<?xml version="1.0" encoding="UTF-8" standalone="no"?>
<svg
   id="Layer_1"
   data-name="Layer 1"
   viewBox="0 0 2592 1728"
   version="1.1"
   sodipodi:docname="falcon-500.svg"
   inkscape:version="1.1.2 (0a00cf5339, 2022-02-04)"
   xmlns:inkscape="http://www.inkscape.org/namespaces/inkscape"
   xmlns:sodipodi="http://sodipodi.sourceforge.net/DTD/sodipodi-0.dtd"
   xmlns="http://www.w3.org/2000/svg"
   xmlns:svg="http://www.w3.org/2000/svg">
  <sodipodi:namedview
     id="namedview7192"
     pagecolor="#ffffff"
     bordercolor="#999999"
     borderopacity="1"
     inkscape:pageshadow="0"
     inkscape:pageopacity="0"
     inkscape:pagecheckerboard="0"
     showgrid="false"
     showguides="false"
     inkscape:guide-bbox="true"
     inkscape:zoom="0.91820988"
     inkscape:cx="1417.9765"
     inkscape:cy="638.19832"
     inkscape:window-width="1920"
     inkscape:window-height="1020"
     inkscape:window-x="0"
     inkscape:window-y="0"
     inkscape:window-maximized="1"
     inkscape:current-layer="Layer_1">
    <sodipodi:guide
       position="1249.98,1223.51"
       orientation="0,-1"
       id="guide8169" />
    <sodipodi:guide
       position="1249.98,1045.65"
       orientation="0,-1"
       id="guide8171" />
    <sodipodi:guide
       position="1446.9607,1204.6325"
       orientation="0,-1"
       id="guide11094" />
    <sodipodi:guide
       position="1543.9764,1064.5275"
       orientation="0,-1"
       id="guide11287" />
    <sodipodi:guide
       position="1629.2571,1311.9731"
       orientation="1,0"
       id="guide12092" />
    <sodipodi:guide
       position="1659.7513,1307.6168"
       orientation="1,0"
       id="guide12094" />
    <sodipodi:guide
       position="1632.9771,1223.51"
       orientation="1,0"
       id="guide13999" />
    <sodipodi:guide
       position="1632.9771,1208.4825"
       orientation="0,-1"
       id="guide14474" />
    <sodipodi:guide
       position="1656.7072,1060.6776"
       orientation="0,-1"
       id="guide14580" />
  </sodipodi:namedview>
  <defs
     id="defs7">
    <style
       id="style2">.cls-1,.cls-100,.cls-101,.cls-102,.cls-103,.cls-104,.cls-105,.cls-106,.cls-107,.cls-108,.cls-109,.cls-110,.cls-113,.cls-114,.cls-115,.cls-116,.cls-117,.cls-119,.cls-12,.cls-125,.cls-126,.cls-127,.cls-13,.cls-130,.cls-139,.cls-14,.cls-143,.cls-145,.cls-146,.cls-147,.cls-149,.cls-15,.cls-157,.cls-158,.cls-159,.cls-161,.cls-168,.cls-173,.cls-174,.cls-175,.cls-177,.cls-178,.cls-179,.cls-182,.cls-183,.cls-186,.cls-187,.cls-188,.cls-189,.cls-190,.cls-191,.cls-192,.cls-193,.cls-196,.cls-197,.cls-201,.cls-206,.cls-207,.cls-208,.cls-210,.cls-214,.cls-218,.cls-24,.cls-25,.cls-27,.cls-3,.cls-37,.cls-4,.cls-42,.cls-46,.cls-50,.cls-56,.cls-57,.cls-6,.cls-70,.cls-71,.cls-72,.cls-78,.cls-83,.cls-84,.cls-85,.cls-86,.cls-87,.cls-88,.cls-89,.cls-90,.cls-92,.cls-93,.cls-94,.cls-95,.cls-96,.cls-97,.cls-98,.cls-99{fill:none;}.cls-2,.cls-212{fill:#fff;}.cls-174,.cls-183,.cls-186,.cls-189,.cls-197,.cls-3,.cls-57,.cls-86,.cls-87{stroke:#231f20;}.cls-100,.cls-101,.cls-102,.cls-103,.cls-104,.cls-105,.cls-106,.cls-107,.cls-108,.cls-109,.cls-110,.cls-111,.cls-12,.cls-139,.cls-14,.cls-146,.cls-15,.cls-159,.cls-161,.cls-174,.cls-175,.cls-177,.cls-178,.cls-179,.cls-182,.cls-183,.cls-188,.cls-189,.cls-197,.cls-214,.cls-3,.cls-4,.cls-5,.cls-50,.cls-56,.cls-57,.cls-6,.cls-85,.cls-86,.cls-87,.cls-88,.cls-95,.cls-96,.cls-97,.cls-98,.cls-99{stroke-linecap:round;}.cls-100,.cls-101,.cls-102,.cls-103,.cls-104,.cls-105,.cls-106,.cls-107,.cls-108,.cls-109,.cls-110,.cls-12,.cls-139,.cls-14,.cls-146,.cls-15,.cls-157,.cls-158,.cls-159,.cls-161,.cls-174,.cls-175,.cls-177,.cls-178,.cls-179,.cls-182,.cls-183,.cls-186,.cls-187,.cls-188,.cls-189,.cls-190,.cls-197,.cls-214,.cls-3,.cls-4,.cls-5,.cls-50,.cls-56,.cls-57,.cls-6,.cls-83,.cls-84,.cls-85,.cls-86,.cls-87,.cls-88,.cls-95,.cls-96,.cls-97,.cls-98,.cls-99{stroke-linejoin:round;}.cls-111,.cls-3,.cls-4,.cls-5,.cls-96,.cls-97{stroke-width:3px;}.cls-100,.cls-102,.cls-104,.cls-106,.cls-108,.cls-187,.cls-188,.cls-190,.cls-4,.cls-56,.cls-88,.cls-98{stroke:#e6282b;}.cls-5{fill:#d7de27;stroke:#d7de27;}.cls-111,.cls-126,.cls-13,.cls-145,.cls-146,.cls-147,.cls-182,.cls-50,.cls-6,.cls-7,.cls-71{stroke:#414142;}.cls-6{stroke-width:9px;}.cls-142,.cls-19,.cls-43,.cls-47,.cls-7{fill:#bababa;}.cls-111,.cls-113,.cls-114,.cls-115,.cls-116,.cls-117,.cls-119,.cls-125,.cls-126,.cls-127,.cls-128,.cls-129,.cls-13,.cls-130,.cls-131,.cls-136,.cls-137,.cls-141,.cls-142,.cls-143,.cls-144,.cls-145,.cls-147,.cls-148,.cls-149,.cls-16,.cls-168,.cls-173,.cls-191,.cls-192,.cls-193,.cls-196,.cls-201,.cls-206,.cls-207,.cls-208,.cls-210,.cls-218,.cls-22,.cls-24,.cls-25,.cls-27,.cls-37,.cls-39,.cls-40,.cls-41,.cls-42,.cls-43,.cls-44,.cls-45,.cls-46,.cls-47,.cls-49,.cls-7,.cls-70,.cls-71,.cls-72,.cls-78,.cls-89,.cls-90,.cls-92,.cls-93,.cls-94{stroke-miterlimit:10;}.cls-8{fill:#1c1c1c;}.cls-9{fill:#141414;}.cls-10{fill:#0d0d0d;}.cls-11,.cls-40{fill:#231f20;}.cls-12,.cls-137,.cls-139{stroke:#010101;}.cls-12{stroke-width:0.51px;}.cls-13,.cls-50,.cls-71{stroke-width:4px;}.cls-13,.cls-50{opacity:0.9;}.cls-14,.cls-84{stroke:#37b04a;}.cls-106,.cls-107,.cls-125,.cls-136,.cls-14,.cls-148,.cls-15,.cls-197,.cls-83,.cls-84{stroke-width:2px;}.cls-15,.cls-83{stroke:#d5dc28;}.cls-136,.cls-16,.cls-18{fill:#1a1a1a;}.cls-136,.cls-148,.cls-16,.cls-27{stroke:#383739;}.cls-16{stroke-width:1.63px;}.cls-137,.cls-17{fill:#212121;}.cls-20{fill:#0d91ce;}.cls-21,.cls-41{fill:#2c292a;}.cls-129,.cls-22{fill:#e9e8e9;}.cls-129,.cls-130,.cls-22,.cls-24{stroke:#424242;}.cls-22,.cls-24{stroke-width:0.41px;}.cls-23{fill:#a7a9ac;}.cls-25{stroke:#929497;}.cls-25,.cls-27,.cls-49{stroke-width:0.61px;}.cls-26{fill:#999;}.cls-28{fill:#ef413e;}.cls-29,.cls-45{fill:#d93b37;}.cls-30{fill:#323031;}.cls-31{fill:#aeb636;}.cls-32{fill:#d5dc28;}.cls-33{fill:#37b04a;}.cls-34{fill:#2b9446;}.cls-35{fill:#080808;}.cls-128,.cls-36{fill:#e8e8e8;}.cls-127,.cls-128,.cls-37{stroke:#e8e8e8;}.cls-37{stroke-width:0.81px;}.cls-38{fill:#808184;}.cls-132,.cls-39,.cls-67{fill:#6e6f71;}.cls-207,.cls-39,.cls-72{stroke:#fff;}.cls-39,.cls-40,.cls-41,.cls-42,.cls-43,.cls-44,.cls-45,.cls-46,.cls-47{stroke-width:0.08px;}.cls-40,.cls-41,.cls-42,.cls-43{stroke:#6e6f71;}.cls-44{fill:#b42e2c;}.cls-44,.cls-45,.cls-46,.cls-47{stroke:#dd5f70;}.cls-48{fill:#747578;}.cls-141,.cls-49{fill:#60b356;stroke:#cfd0d3;}.cls-51{fill:#383739;}.cls-111,.cls-52{fill:#414142;}.cls-53{fill:#be2c3a;}.cls-54{fill:#846c30;}.cls-55{fill:#a2a63c;}.cls-110,.cls-56,.cls-57{stroke-width:20px;}.cls-58{fill:#323130;}.cls-59{fill:#819355;}.cls-60{fill:#bc2031;}.cls-213,.cls-61{fill:#211e1e;}.cls-62{fill:#5b5a5d;}.cls-63{fill:#f2f2f2;}.cls-64{fill:#079247;}.cls-65{fill:#4e4e50;}.cls-66{fill:#595a5c;}.cls-68{fill:#636467;}.cls-69{fill:#6a5f27;}.cls-173,.cls-70{stroke:#5b5a5d;}.cls-129,.cls-130,.cls-145,.cls-72{stroke-width:0.5px;}.cls-73{fill:#99999a;}.cls-74{fill:#171717;}.cls-75{fill:#c6c7c9;}.cls-76{fill:#f1e902;}.cls-77{fill:#7cc244;}.cls-113,.cls-114,.cls-115,.cls-116,.cls-117,.cls-119,.cls-159,.cls-191,.cls-193,.cls-196,.cls-206,.cls-210,.cls-78,.cls-89,.cls-90,.cls-92,.cls-93,.cls-94{stroke:#211e1e;}.cls-78{stroke-width:2.02px;}.cls-79{fill:#272660;}.cls-80{fill:#a4a7a9;}.cls-81{fill:#7bc044;}.cls-82{fill:#314b6c;}.cls-157,.cls-158,.cls-85{stroke:#babcbe;}.cls-104,.cls-105,.cls-175,.cls-177,.cls-178,.cls-85,.cls-86{stroke-width:5px;}.cls-87,.cls-88,.cls-95{stroke-width:15px;}.cls-89{stroke-width:0.18px;}.cls-90{stroke-width:0.22px;}.cls-91{fill:#a5a5a9;}.cls-92{stroke-width:0.17px;}.cls-93{stroke-width:0.13px;}.cls-94{stroke-width:0.1px;}.cls-101,.cls-103,.cls-105,.cls-107,.cls-109,.cls-110,.cls-95,.cls-96,.cls-99{stroke:#211e1f;}.cls-97{stroke:#b9bbbd;}.cls-183,.cls-186,.cls-187,.cls-98,.cls-99{stroke-width:12px;}.cls-100,.cls-101,.cls-189{stroke-width:8px;}.cls-102,.cls-103,.cls-174{stroke-width:6px;}.cls-108,.cls-109{stroke-width:7px;}.cls-112{fill:#e5e5e5;}.cls-113{stroke-width:0.18px;}.cls-114{stroke-width:0.16px;}.cls-115{stroke-width:0.09px;}.cls-116{stroke-width:0.28px;}.cls-117{stroke-width:0.17px;}.cls-118{fill:#2b2929;}.cls-119{stroke-width:0.21px;}.cls-120,.cls-144{fill:#175c94;}.cls-121{fill:#a4833a;}.cls-122{fill:#ed3837;}.cls-123{fill:#f89b53;}.cls-124{fill:#262223;}.cls-125,.cls-131{stroke:#323031;}.cls-126,.cls-168,.cls-173,.cls-196,.cls-218{stroke-width:0.25px;}.cls-131{fill:#3c3b3c;stroke-width:1.03px;}.cls-132{opacity:0.32;}.cls-133{fill:#d79528;}.cls-134{fill:#835d25;}.cls-135{fill:#ed2a2b;}.cls-138,.cls-148{fill:#121212;}.cls-139{stroke-width:0.8px;}.cls-140{fill:#dbd560;}.cls-141{stroke-width:0.75px;}.cls-142,.cls-143,.cls-144{stroke:#909295;}.cls-147{stroke-width:0.63px;}.cls-149{stroke:#808083;}.cls-150{fill:#191919;}.cls-151{fill:#333;}.cls-152{fill:#f15b2d;}.cls-153{fill:#aea2a0;}.cls-154{fill:#b4ada7;}.cls-155{fill:#948b8a;}.cls-156{fill:#7b8188;}.cls-157{stroke-width:1.83px;}.cls-158{stroke-width:1.81px;}.cls-159{stroke-width:1.33px;}.cls-160{fill:#434342;}.cls-161{stroke:#2d2f6c;stroke-width:21px;}.cls-162{fill:#cfd2d3;}.cls-163{fill:#363435;}.cls-164{fill:#505052;}.cls-165{fill:#955f25;}.cls-166{clip-path:url(#clip-path);}.cls-167{fill:#f59222;}.cls-168{stroke:#ab6b29;}.cls-169{fill:#9a9ba0;}.cls-170{fill:#bc984b;}.cls-171{fill:#857133;}.cls-172{fill:#808083;}.cls-175{stroke:#e8282b;}.cls-176{fill:#909294;}.cls-177{stroke:#754e2a;}.cls-178{stroke:#2c3a8c;}.cls-179,.cls-192{stroke:#434342;}.cls-179{stroke-width:25px;}.cls-180{fill:#e4424f;}.cls-181{fill:#892129;}.cls-182{stroke-width:3.94px;opacity:0.8;}.cls-184{fill:#c64e5f;}.cls-185{fill:#8e464f;}.cls-188,.cls-190{stroke-width:11px;}.cls-191{stroke-width:0.39px;}.cls-192{stroke-width:0.56px;}.cls-193{stroke-width:0.37px;}.cls-194{fill:#271e21;}.cls-195{fill:#616262;}.cls-198{fill:#ddd6d3;}.cls-199{fill:#dfd6c8;}.cls-200{fill:#c1baae;}.cls-201{stroke:#c1baae;stroke-width:0.34px;}.cls-202{fill:#b2a696;}.cls-203{fill:#7b776c;}.cls-204{fill:#e8e2d0;}.cls-205{fill:#404042;}.cls-206{stroke-width:0.27px;}.cls-207,.cls-210{stroke-width:0.38px;}.cls-208{stroke:#7f8081;stroke-width:0.07px;}.cls-209{fill:#018fb9;}.cls-211{fill:#010101;}.cls-211,.cls-212,.cls-213{fill-rule:evenodd;}.cls-214{stroke:#2b2929;stroke-width:10px;}.cls-215{fill:#929497;}.cls-216{fill:#d0d2d3;}.cls-217{fill:#dbdddd;}.cls-218{stroke:#343637;}.cls-219{fill:#b59248;}.cls-220{fill:#927738;}.cls-221{fill:#d2ad2a;}.cls-222{fill:#7e6b2b;}</style>
    <clipPath
       id="clip-path">
      <path
         class="cls-1"
         d="M984.89,841.08l.23,109.2,8.42,0,35.6-19.64a4.63,4.63,0,0,0,2.51-3l-.14-63.63a6.82,6.82,0,0,0-2.81-4l-35-19Z"
         id="path4" />
    </clipPath>
  </defs>
  <rect
     class="cls-7"
     x="1200.84"
     y="582.32"
     width="40.02"
     height="22.44"
     id="rect19" />
  <polygon
     class="cls-8"
     points="1398.31 504.65 1249.98 504.62 1248.47 506.13 1248.47 565.26 1248.47 680.35 1249.98 682.35 1397.98 682.27 1398.31 504.65"
     id="polygon21" />
  <polyline
     class="cls-9"
     points="1237.96 565.26 1236.66 566.56 1236.66 581.93 1236.66 620.14 1237.96 621.44 1248.54 621.53 1248.54 565.26"
     id="polyline23" />
  <polygon
     class="cls-9"
     points="1412.84 525.08 1398.24 504.65 1397.91 682.27 1412.84 661.62 1412.84 525.08"
     id="polygon25" />
  <polygon
     class="cls-10"
     points="1461.57 525.19 1412.84 525.08 1412.84 661.62 1461.23 661.61 1465.9 657.14 1465.96 529.81 1461.57 525.19"
     id="polygon27" />
  <line
     class="cls-8"
     x1="1392.13"
     y1="565.87"
     x2="1248.47"
     y2="566.12"
     id="line29" />
  <path
     class="cls-11"
     d="M1412.64,567.24l.27,49.7,17.41-.44a11.41,11.41,0,0,0,6.94-4.33l3.1-5.35,1.19-4.45V581.31l-1.67-4.21-3-5.42a8.39,8.39,0,0,0-6.52-4.06Z"
     id="path31" />
  <rect
     class="cls-10"
     x="1465.94"
     y="574.51"
     width="22.67"
     height="34.72"
     id="rect33" />
  <rect
     class="cls-8"
     x="1461.22"
     y="574.97"
     width="27.46"
     height="3.69"
     id="rect35" />
  <rect
     class="cls-8"
     x="1461.51"
     y="590.24"
     width="27.46"
     height="3.69"
     id="rect37" />
  <rect
     class="cls-8"
     x="1461.25"
     y="605.12"
     width="27.46"
     height="3.69"
     id="rect39" />
  <path
     class="cls-12"
     d="M1236.6,582.29h-1.9m1.9,22.07-.59,0h-1.31m1.9-20.73h-1.9m0,1.55v-1.55m0,19.2v-1.7m1.9,1.72h-1.9m1.9-6.51h-1.9m0,.31h0v-.3m0,3.12v-2.8h0m1.9,2.83h-1.9m1.9-12.57h-1.9m0,2.47h0v-2.47m1.9,3h-1.9m1.9,1.46h-1.9m1.9,3.43h-1.9m25-61.1V504.31M1477,545.5V545m-10.09-.18v.5m10.09,28v0m-2.7,0v.09m2.7-12.52,0,.26v.62h0m-10.14.24h0v-.89m7.39-.12v.89h0m-6.2-.77V562h0m-61.31,104.88,1.58,0m-7.86,8.77,1.57,0m6.55-9.17-1.84,0m-4.61,9-.9,0h-.77m6.39-155.27h1.15m-.2-.28-1,0m-6.39-7.34h.76l1.61,0m5,7.29-.32-.33-.52-.51-.37-.33-.12-.08m-3.74-6.19-2.27,0m2.27,0-.82-.92-.69-.73-.53-.52-.38-.33-.24-.17m10.49,13.52-3.71-.05m-.11,140.94,3.82-.07m0-7.81-.59,0m0-126.28h.59m-.24.23.15,0,.09-.21m0,126.25,0-.1-.13-.13h-.09m-6.2-141.76-2.9,0h-.76m0,158.94,2,0,1.69,0m2.62-142.71h1.84m0,125.48h-1.73m-2.73,8.24-.6,0m0-142h.6m-.25.23.17,0,.08-.21m0,142,0-.1-.13-.13H1404m4.44-133.81-1.58,0m.11,126,1.47,0m-1.5,1,.68-.36.82-.67m0-126.1-.14-.13-.69-.56-.53-.29-.18-.05m-6.32-6.43h1.67m0,141h-1.67m1.57-141.12-1.57,0m0,141.16,1.57,0m-1.5,1,.68-.36.82-.67m0-141.24-.13-.12-.69-.56-.53-.3-.18,0m6.35,131.4,3.71,0m8-86-.09.12-.17.1-.1,0m-7.61,71.91-2,0m8.42-72.2h0v.2h0m.49-.22,0,.05.06.06,0,.05.07,0,.07,0h.06m-4.45-.08h0V567m-4.93,72.28v.08l0,.06,0,0m2.12-.23v-.12l-.11-.36-.29-.24-.38,0m8.4-22.09.21.07.11.12,0,.06m-1.5-.23h0v.22m.83-.24h-.06l-.07,0-.07,0-.06,0,0,.07,0,0m-4.11,0v-.21h0m-2.84-82.86-3.82,0m1.17,21.3,2.65.06m-1,1h.36l.36-.17.23-.33.09-.47m-1.65.71h0l.06.05,0,.08,0,.08v.1m-8.59,104.89h3.66m0-16.25-2,0m2,0,0-.18-.13-.34,0-.07-.35-.18-.25,0m0-.29,0,.09,0,.07,0,.07-.06.06-.06,0m3.84-86h1.67m.07-2.41h0l.06.06,0,.07,0,.08v.1m-4.67-29.92-3.66,0m7.86,31.87-1.16,0m-4,85.87,0,.09,0,.08,0,.07-.06,0-.06,0h0m5.36-86.23-.14-.07-.69-.2h-.09m.6,62.86h-.45m-6-70,.88,0,1.69,0m-1.65.72h0l.06.06,0,.07,0,.08v.1m.48,0h.36l.36-.18.24-.33.08-.48m-3.45,3.14h1.46m.23-2.48h0l.06,0,0,.07,0,.09v.09m-.47,2.11-1.16,0m1.16,0-.13-.06-.69-.21-.09,0m1.71,70.23h-2.18m9.91-62.55-3.82,0m.13,29.06,3.69.06m0,6.77-3.69.07m-.13,20.52,3.82.06m-9.89,6,2.06.05m-1.43.54.61-.08.82-.46m16-56.41h0m-5.93-.45v0l0,0,0,0,.08,0,.08,0h.07m-.32,50.22v0l0,0,0,0,.08,0,.08,0h0m-9-60.47-3.66,0m.12,33.35,1.85,0,1.69,0m0,7-3.53.06m-.13,24h3.66m1.3,2.92,1.12-.65m-5.92,55.41-.15.18h0m6.45-9-.15.2h0m-8.52-165.38V549m0,0v133m-.47.24V548.88m0,0V504.4m22.4,87.47-2.1.49-1.3.72m7.3-.27-.89-.45-2.11-.49m3-12.4-.89-.45-2.56-.51-2.55.51-1.32.73m17.9,12.88-.69-.46-.85-.17-.85.17-.72.49-.15.16m1.52,3.64-.65.17-.72.48-.15.16m3.26-.19-.69-.45-.66-.17m-.39-9.3-.65.17-.72.48-.15.16m3.26-.19-.69-.45-.66-.17m1.35-3.83-.69-.46-.85-.17-.85.17-.72.49-.15.16m36.67-17.12v-4.48m-1.22.07v4.41m-1.21-18.92.07-.05.11-.1.09-.11,0-.13,0-.13m-.27-.46V529.27m-3.93-3.93h0v18.48m-.62-.19V525.08m-1.88,19.67,0,0-.06-.07,0-.09v-.08m.89-19.4h0v18.53m5.36,3.7,0,0,.1-.15.08-.16.06-.16,0-.15v-.14m-4.26-1.85.06-.07.1-.16.08-.16,0-.15,0-.16v-.13m-.62-.19v.94m-2-.11v.08l0,.08.06.07,0,0m.74-1.12h0l-.1.23-.11.34-.06.28v.06m5.8,9.87,0,0,.06.08,0,.11v.14m-4.07-2.95,0,0,0,.09,0,.11v.13m-.64-.51h0V552m-1.12,0h0l-.11-.2-.1-.13h0m6.53,53h.28m-.9,52.7V609.89m-3.93-.84v52.31m-.62.26V609.11M1460.1,552V661.62m5.67-114v-.08l0-.06,0,0h0m-5.88-2.77v-.16h0m1.94.39v-.08l0-.06,0,0h0m-.53,0v-.16h0m-1.34,6.9v.24m-23.76,61.67v.26m-16.61,3v-.13m-.57-49.44,0,0v0m.6.1v-.17m10,.17h0v-.16m6.07,47.31h0m-2.54,1.42h0l0,0,0,0,0,0h0m1.54-1h0l0,0,.05,0,0,.05h0m.6-15.62v.93m0-5.39V598m0-8v3.51m0-8v3.11m0-5.4v.95m5.94,20.39h0l-.28.14m.41-.55-.2.32-.07.08m.48-2.47h-.11l0,0h0m-15.23.13-.23,1m0-9.71.24,1.07m0-5.7-.23,1m0-9.71.25,1.08m4.94,19.6,0-.14v-.25m0-16.43v-1.09m0,5.54v-2.91m0,7.76v-3.31m0,7.76V595m0,5.59v-1.14m0-16.38,0-.38,0-.08m-10.26,23.3h0M1234.7,582.31v-.76m0,23.58v-.78m0-22h-33.86m0,22h33.86M1200.84,583h33.86m0,20.51h-33.86m33.86-19.88v-.91m0,21v-.9m0-19.2h-33.86m0,19.2h33.86m-33.86-17.12h33.86m0,14.92h-33.86m33.86-.35v-.85m0-12.56V586m-33.86,13.42h33.86m0-12.56h-33.86m0,3.07h33.86m0,6.37h-33.86m33.86-6.1V590m0,1.46h-33.86m0,3.43h33.86m0,1.48V596m0-4.6v-.65m0,4.71v-.63m0-4.89v-.25h0m0,5.14v-3.43m1.9-9.86h-1.9m0,1,1.9,0m-1.9.27v-.23m1.9.29-1.9-.06m0,2.86,1.9-.08m-1.9.51v-.43m1.9.53-1.9-.1m0,4.2,1.9-.11m-1.9.65v-.54m1.9.66-1.9-.12m0,4.71,1.9-.12m-1.9.66v-.54m1.9.66-1.9-.12m0,4.28,1.9-.09m-1.9.53v-.44m1.9.51-1.9-.07m0,3,1.9,0m-1.9.31v-.26m1.9.3-1.9,0m0,1.13h1.9m-1.9,0h0m157.43-71.39V504.3m-131.79,29.44V504.3m0,61.57V533.74m59.9,16.06.46,2,1.3,1.68,1.94,1.13,2.29.39,2.3-.39,1.94-1.13,1.3-1.68.46-2-.46-2-1.3-1.69-1.94-1.12-2.3-.4-2.29.4-1.94,1.12-1.3,1.69-.46,2m-59.9-16.06h131.79m-131.79,146.7V565.87m0,114.57h131.79m0,0V565.87m-131.79,0h131.79M1236.6,620.14v-13.4m0,0V566.56m1.29-1.3v56.18m10.58-86.7V506m1.51-1.51v29.36m-1.51,32.72V534.74m1.51-.9-1.51.9m11.27-1-9.76.1m0,0v32.1m10.36-31.85h0l0-.07-.08-.11-.13-.08-.18-.06-.19,0m0,32.13V533.74m-11.27,145V566.56m1.51-.62-1.51.62m1.51,113.7-1.51-1.51m11.27-112.88-9.76.07m0,0V680.26m9.76.17-9.76-.17m10.36-114.14h0l0-.05-.08-.08-.13-.06-.18,0h-.19m0,114.56V565.87m.6,114h0l0,.13-.08.18-.13.15-.18.09-.19,0m211.19-66.3v5.69m0,0V623m-4.16-12.9h0v10.8m0,0V627m4.16-88.58v6.48m-4.16-10.48v10.43m-64.55,83v5m0,0v3.87m75.69-90.84v.32m0,27.09,0,.17-.05.16-.08.16-.11.13-.13.11-.15.09-.16.05-.18,0m.88-.93v0m0,0H1477m0,.89-2.7,0m2.7-.94v.89m-2.7-.84,2.7,0m-7.72,1h.6m2.67,0h1.75m0-.89v.89m0-.89h-.87m4.45-27.17v12M1477,545.5h.18l.16,0,.15.07.13.09.11.11.08.13.05.14,0,.14m-.88,11.31v-12m0,0-10.09-.15m0,0v12m-.9-11.31V546l.06-.14.08-.13.11-.12.14-.09.16-.06.17,0h.17m11,12.94v.48m-.88-1.22.18,0,.16,0,.15.07.13.09.11.11.08.13.05.14,0,.14m-.88-.21v-.53m0,0-10.09-.15m0,0v.6m-.9.14V558l.06-.14.08-.13.11-.12.14-.09.16-.06.17-.05h.17m11,3.46H1477m.88-2.09v2.09m0-2.09,0-.13-.05-.13-.08-.12-.11-.11-.13-.08-.15-.07-.16,0H1477m.88.69H1477m-3.57,14.64,0,.17,0,.16-.08.16-.11.13-.13.11-.15.08-.17.06-.17,0m.88-.89h-.88m.88-5v5m-.88.89-2.67,0m2.67-.93v.89m-3.58-.85,0,.18,0,.17.09.15.11.14.14.11.16.08.17.05h.17m0-.89v.88h0m-.91-8.57v-.93m.91,8.61H1469m8-15.37v.69m-10.09-.77h1.78l7.13.06H1477m-11,3h.9m0-3.1h-.17l-.17,0-.16.06-.14.08-.11.11-.08.12-.06.13v.14m0,0h.9m0-.69v.69m5.64,6h.88m-3.55.18H1469m5.33-3.86h-.13l-.4.14-.4.3-.4.6-.28.84-.14,1.79m1.75-3.68,1.09-.05,1.61-.07m0,0v-2.09m0,0-10.09-.08m0,0v2.41m0,0h1.22m1.75,3.74-.19-2.08-.36-.88-.4-.47-.37-.22-.43-.09m1.75,3.74v8.61m0,0,2.67,0m0,0v-8.75m.88,3.74v-4.21m8.44-3.85v12.11m-8-10.2v11m7.18,0h0V559.5M1329.77,552l0-.4-.09-.39-.15-.38-.21-.36-.25-.33-.31-.3-.34-.27-.39-.22m0,0-.41-.18-.44-.12-.45-.08-.47,0-.46,0-.45.08-.44.12-.41.18m0,0-.39.22-.34.27-.31.3-.26.33-.2.36-.15.38-.09.39,0,.4m1.77-2.65-1.77.88m3.53-1.76-1.76.88m1.76-3.09-1.54,1-1.14.5-.85.23m7.07,0-1.55-.51-1.14-.64-.85-.62m0,2.21v-2.21m1.77,3.09-1.77-.88m3.54,1.76-1.77-.88m-5.3-1.32v3.53m7.07,0V548m-7.07,3.53,1.55,1,1.14.5.84.23m0,0,1.55-.51,1.14-.64.85-.62m-3.54-5.3-.53,0-.52.09-.51.15-.48.2-.44.26-.4.3-.35.35-.3.39m7.07,0-.3-.39-.35-.35-.4-.3-.45-.26-.47-.2-.51-.15-.52-.09-.54,0m3.54,5.3.23-.42.18-.43.1-.46,0-.46,0-.46-.1-.45-.18-.44-.23-.41m-3.54,5.3.54,0,.52-.09.51-.15.47-.21.45-.25.4-.31.35-.35.3-.38m-7.07,0,.3.38.35.35.4.31.44.25.48.21.51.15.52.09.53,0m-3.53-5.3-.24.41-.17.44-.1.45,0,.46,0,.46.1.46.17.43.24.42m3.53,3.19,2.2-.37,1.86-1.08,1.24-1.61.43-1.9-.43-1.9-1.24-1.61-1.86-1.07-2.2-.38-2.19.38-1.86,1.07-1.24,1.61-.44,1.9.44,1.9,1.24,1.61,1.86,1.08,2.19.37m82.18,112.15.26-.37m-6.55,9.17.1-.15m6.45-9,.09.07.09.06.08.06.07,0,.06,0,0,0,0,0h0m-.47-.35.76-.85.54-.59.36-.42.23-.28.09-.12m-8.43,11.28.1.07.08.06.09.06.07,0,.06.05,0,0,0,0h0m-.47-.35.77-.85.54-.6.36-.41.24-.28.08-.11m4.2-6.4.09.06.09.07.08.06.07,0,.06,0,0,0,0,0h0m-2.52,1.84h0l.14-.13,0,0,.35-.37.68-.74.82-.9m-6.29,8.8.09.06.09.07.08.06.07.05.06,0,0,0,0,0h0m-2.51,1.84h0l.15-.14,0,0,.35-.37.68-.74.82-.9m6-155.38-.2-.28m-5-7.29-.1-.15m5.74,7.14v0l0,.06,0,.07,0,.08-.08.09-.09.08-.1.08-.1.07m2.56,3.13v0l-.11-.22-.29-.41-.5-.62-.82-.94-.83-.9m-4.7-7.78h-.11l-.06,0-.06,0-.08,0-.08.05-.08,0m1.29,1.72,0-.05-.13-.24,0-.07-.35-.47-.74-.89m5.45,6.73v0l0,.06,0,.07-.06.08-.07.08-.09.09-.09.07-.11.07m-4.6-7.64h-.06l0,0-.06,0-.06,0-.08,0-.08,0-.08.05m7.83,151.67h.13l.07,0,.06,0,.06,0,.06,0,0,0,0-.05m-.47-140.58h.07l.06,0,.07,0,.06,0,.06,0,.06,0,0,0,0,.05m-.47,6.52v-6.76m0,140.82v-7.81M1406.83,670l.08-.14,0-.16v-.16l0-.15-.05-.08m0-151.52.08.14,0,.16v0m2.18,11.06v.08m1.51.91h.13l.07,0,.06,0,.06,0,.06,0,0,0,0,0m-2,126.95v.07m1.53-1h.13l.07,0,.06,0,.06,0,.06,0,0,0,0,0m-6.91,17.06h.13l.07,0,.06,0,.06,0,.06,0,.05,0,0-.05m-.47.25v-9m0-149.86h.13l.07,0,.06,0,.06,0,.06,0,.05,0,0,.05m-.47,7.62v-7.87m4.64,14.43,0,0v0m0,128.72v0l0,0m-.44-1.38.26-.31m0-125.48-.26-.31m.73-.28v.06l0,.07,0,.08-.06.08-.07.09-.08.07-.09.08-.09.06m-8.12,148.22.07-.14,0-.16v-.16l-.05-.15,0-.08m10.1-144.53,0-.15-.13-.43,0-.12-.37-.63-.59-.79-.82-.88M1400.55,509l.07.15,0,.15v.16l-.05.15,0,.08m8.12,146.37.09.06.09.07.08.08.07.08.06.08,0,.08,0,.07v.07m-.47-.59.76-.81.54-.69.36-.58.23-.51.09-.41m-8-131.73,0,0v.05m1.52.91h.07l.06,0,.07,0,.06,0,.06,0,.06,0,.05,0,0,.05m-2,142.69v0l0,0m1.54-1h.13l.07,0,.06,0,.06,0,.06,0,.05-.05,0,0m3.73-7.72.09.06.09.08.08.07.07.09.06.08,0,.08,0,.07V657m0-127.29v.07l0,.07,0,.08-.06.08-.07.08-.08.08-.09.07-.09.07m-5.84-9.06v.07m0,144.07v.08m-.35-142.61-.1-.12m0,141.24.1-.13m.47-141.58v.06l0,.08,0,.08-.06.08-.07.08-.09.08-.08.07-.1.06m2,3,0-.16-.13-.43-.06-.12-.36-.63-.6-.79-.82-.88m0,141,.1.06.08.08.09.08.07.08.06.08,0,.08,0,.07v.06m-.47-.59.77-.81.54-.69.36-.58.24-.51.08-.41m-2.09,3.13.09.06.09.07.08.08.07.08.06.08,0,.08,0,.08v.06m0-142.42v.06l0,.07,0,.08-.06.08-.07.09-.08.07-.09.08-.09.06m8.53,130.36h.13l.07,0,.06,0,.06,0,.06,0,0,0,0,0m-.47.21V639.21m-2.12.23h0m2.12-.24h.13l.07,0h.06l.06,0,.06,0,0,0,0,0m7.72-22.4v-.86m-8.19-82.18h.13l.07,0,.06,0,.06,0,.06,0,0,0,0,.05m-.47,21.13V533.61m-2.28,105.9v.07l0,.07,0,0m-1.49,3.36.08-.09,0-.1v0m13.39-65.8v.11l0,.1,0,.1-.06.08-.08.08-.09.06-.1,0-.11,0m.53,29v-.11l0-.1,0-.1-.06-.08-.08-.08-.09-.06-.1,0-.11,0m-2.73-15.18.15.21.11.23.06.25,0,.26,0,.26-.06.25-.11.23-.15.21m-4.16-26.17v.11l0,.12,0,.1.08.09.08.07.1.06.12,0h.11m4.77.09h.11l.11,0,.1,0,.09.07.07.09.06.11,0,.11v.11m-.58-.59h0v.37m-4.76-.46,4.77.09m-4.77-.09v0m-.54-.39.1.17.15.12.19.08.09,0h0m0,0h0l-.15.07-.1.11,0,.1v.05M1410.65,555h.2l.06,0,.06,0,.06,0,0,0,0,0m-6.91,105.76h.07l.06,0h.07l.06,0,.06,0,.06,0,.05,0,0,0m13.59-82.37.16-.13.18-.12.19-.1.19-.09.19-.07.21-.06.2-.05.21,0m-15.59,83.23V644.59m8.7-27.53v-.12l0-.1,0-.11.08-.09.08-.07.1-.06.12,0h.11m-9.28,28.12h.13l.07,0h.06l.06,0,.06,0,.05,0,0,0m13.58-28h.11l.11,0,.1-.05.09-.08.07-.08.06-.11,0-.11v-.11m-5.35.63h0v0m4.77-.09-4.77.09m4.76-.48v.39h0m-15.1,27.51h0m3.7-115.1.08.12,0,.13v.05m7.62,73.93v3m-5.88-48.12-.26-.18m9.86,47.73.16.12.18.12.19.1.19.09.19.07.21.06.2,0,.21,0m-4.63-2.66,0,.52,0,.5.06.45.07.39.1.31.11.24.12.15.12,0M1413,616.81l.1-.17.15-.12.19-.08h.1m-.28-.35,0,.13v0l.1.11.15.08m2.76-36.87.09-.4.13-.38.15-.32.18-.28.2-.23.21-.17.23-.1.23,0m-3.07,2.94v-2.92m-1.1,25.36v3m0-28.31v2.92m6.25-7.29.12,0,.11,0,.1.06.09.07.07.09,0,.1,0,.11v.12m-.6-.17v-.42h0m-.31,0h.31m-10.6-16.11v.11l0,.1,0,.11-.06.09-.07.09-.08.08-.09.06-.09,0m2,2.93,0-.23-.13-.57,0-.15-.37-.67-.59-.71-.82-.6m10.75,15.84v-.41h0m0,0-.2,0-.16-.09-.13-.14-.08-.18,0-.14m0-4.82v4.82m-.59-.18h.33l.09,0,.07,0,.06,0,0,0v0m-.59-5h.11l.12,0h.1l.09,0,.07,0,.06,0,0,0v0m1.49,6v1m-.6-1.2h.23l.1,0,.09,0,.08,0,0,0,0,0v0m0,35.88v.12l0,.11,0,.1-.07.09-.09.07-.1.06-.11,0-.12,0m0,0h-.31m.31,0h0v-.44m-11.21-54.51h.15l.07,0m4.75,22.2h-.11l-.12,0-.1.06-.08.07-.08.09,0,.1,0,.11v.11m.58-2.16h0l-.2,0-.17.05-.12.07m6.75,1.34.12,0,.11,0,.1-.06.09-.07.07-.09,0-.1,0-.11V577m0-2.07v2m-.6-2.17h.33l.09,0,.08,0,0,0,0,0v0m-.59,2.67-2.07,0m2.07,0v-2.84m-6.52.12.08.64.2.57m0,0v1.58m0,0,1.1,0m0,0h3.08m1.17,33.35,0-.21.1-.18.16-.13.18-.07h.11m0-.45v.44h0m-1.16-32.12-1.13,1.09-.32.4m1.45-1.49h0l-.07,0-.25.14-1.15.73-.53.37m0,0-1.18.74-.47.28m2.47,10.32,0,0-.06.05-.1.09-.14.12-.17.14-.19.17-.21.18-.22.18m4.37,17.94v0l0,0,0,0-.08,0-.09,0-.1,0h-.23m.6-1.25v1.1m-7.12-34.9,6.52-.12m0,0v-1m0,0h-.31m-1.17-1.19,0,.29.16.36.26.29.34.18.38.07m-1.17-1.19v-4.86m0,0-5-.09m7.12,39.1v-.12l0-.11,0-.1-.07-.09-.09-.07-.1-.06-.11,0-.12,0m.59,2.6v0l0,0,0,0-.08,0h-.09l-.1,0h-.23m.6-2.13v2m-5.77-5.65.61.38m0,0,.52.35,1.12.75.93.6.43.26.07,0h0m-1.39-1.41.26.31,1.13,1.1M1416,591.84l.22.18.21.18.19.17.17.14.14.12.1.09.06,0,0,0M1413.49,606l-.11,0-.12,0-.1-.06-.08-.07-.08-.09,0-.1,0-.11v-.12m6.82,3.43v-2.73m-3.93-.06,3.93.06m-3.93-.06-1.26,0m0,0-1.06,0m0,0v1.51m-.76-32.68,0,0h.44m0-7.3v7.3m-.48-7.4,0,0h0l.06,0h.33m.28,39.91h0l-.2,0-.17-.06-.12-.07m.5.18-.2.57-.08.64m-9-82.84h.13l.07,0,.06,0,.06,0,.06,0,.05,0,0,.05m-.47,24.26V525.86M1418.84,611v4.81m-.59.2h.23l.1,0,.09,0,.07,0,.06,0,0,0v0m-.59-4.66h.23l.1,0,.09,0,.07,0,.06,0,0,0v0m-15.79,32.95h0m5.86-86.93v.11l0,.1,0,.11-.06.09-.07.09-.08.08-.09.06-.09.05m11,52.23h.31m0,0v-1.12m0,0-6.52-.11m0,7.37,5-.08m0,0v-4.86m1.17-1.2-.21,0-.37.15-.31.26-.21.36-.07.41m-10.16,9.17.65-.17.7-.44.53-.54.37-.56.23-.6.08-.61m2.56-8.68h-.48m.48,7.32h-.39l0,0,0,0m.48-7.46v7.37m-5.12,4.23.1,0,.1,0,.09.07.08.09,0,.11,0,.12,0,.13V621m-.67-.68.2,0m6.51-39.73h0l-1.06,0m0,22.42,1.07,0m0,0-.69-1.86-.32-2,.06-2,.43-1.94.79-1.82,1.13-1.63m0,0-1.14-1.65-.79-1.83-.43-2,0-2,.34-2,.71-1.87m-10.39-30.24h.13l.07,0h.06l.06,0,.06,0,.05,0,0,0m3,69.86h.26m5.6-39.75h-.58m.58,22.42h-.58m.58-22.42V603m-12.94-81.78.07.12,0,.13v0m1.56,31.93-.1-.07m5.77,67,.11,0,.09,0,.09.07.07.1.06.1,0,.12,0,.13v.12m-.71-.74.23,0m-5.2-67.56v.1l0,.11,0,.1-.06.1-.07.09-.09.08-.08.06-.1,0m2,2.94,0-.23-.13-.57-.06-.15-.36-.68-.6-.7-.82-.61m6.45,38.59.76-.15.54-.34.36-.44.23-.54.09-.62m-8.42-39h.07l.08,0,.07,0m6.22,41.07h.09l.09,0,.08,0,.07.07.06.09,0,.1,0,.12v.11m-.73-.6h.26m0,2.6h-.26m.73-.59v.11l0,.11,0,.1-.06.09-.07.07-.08.06-.09,0-.09,0m2,2.08,0-.25-.13-.56,0-.13-.37-.54-.59-.43-.82-.17m-5.85,28.82.1-.1m-.33-70.66v.1l0,.11,0,.1-.06.1-.07.09-.08.08-.09.06-.09,0m.8,70,.08,0,.08.05.08.07.06.07.06.08,0,.08,0,.08,0,.08m-.47-.56.07-.06.53-.55.37-.57.23-.6.09-.62m4.67-26.91v.12l0,.11,0,.1-.06.09-.07.07-.08.05-.09,0h-.09m2.24-4.69h.47m-.47-29.17h.26l.06,0,.06,0,0,0,0,0M1408.41,592l.09,0,.09,0,.08.06.07.07.06.09,0,.1,0,.11v.11m1.77-2.67V560.81m0,56.57h.38l0,0,0,0m-.47-20.56h.47m-.47,20.66V596.73m-7.83,26.74.08,0,.08.05.08.07.06.07.06.08,0,.08,0,.08,0,.08m-1.7,17.21,2-.33,3-2,2.25-2.46,1.94-3.06,1-2.37.52-2.26,0-2.22-.62-1.72-1.28-1.25-2.59-.39-1.6.49m-3.94-31.72.77-.16.54-.34.36-.44.24-.54.08-.62m-2,2.1h.1l.08,0,.09.06.07.07.06.09,0,.1,0,.11v.12m-.57-.6h.1m0,2.82h-.1m.57-.59v.11l0,.11,0,.11-.06.08-.07.08-.09.05-.08,0h-.1m2,2.09,0-.26-.13-.55-.06-.14-.36-.53-.6-.44-.82-.17m.37-.59v.12l0,.11,0,.1-.06.09-.07.07-.08.05-.09,0h-.09m0-2.83.09,0,.09,0,.08.06.07.07.06.09,0,.1,0,.11v.12m1.62-2.69h.47m-.47-33.45h.2l.06,0h.06l.06,0,.05,0,0,0m-.47,33.32V556.4m0,64.57h.32l.06,0,.05,0h0m-.47-24h.47m-.47,24.13V596.85m8.7-29.94,0,0m0,0,0-.1v-.13m0-41.55v41.55m0,50.41v44.58m0-44.58v-.11l0-.1v0m0,0,0,0m0,0-.05-.07-.1-.23,0-.3m0,0v-7.41m0,0,.08-.8.1-.4.08-.24m0,0,0,0,0-.08,0-.16v0m0-30.4V607m0-30.4v-.17l0-.09,0-.05h0m0,0-.08-.25-.1-.39-.08-.81m0,0v-7.33m0,0,0-.29.1-.22.05-.06m-4.54-47.42.19.26m0,0,.83,1.13.81,1.19.51.78.29.52.12.29v0m0,0v6.74m0,0-.08.27-.24,0-.37-.17-.53-.43-.76-.83m0,0-.26-.32m0,0-.82-1.12-.68-1.19-.35-.78-.18-.65,0-.17m0,0v-7.26m0,0,.08,0,.24.2.37.42.52.66.33.42m-5.08-7.08.1.14m0,0,.63,1,.11.17.35.59.19.4v.07m0,0v7.84m0,0-.09.27-.23,0-.36-.17-.54-.44-.77-.83m0,0-.1-.13m0,0-.82-1.12-.68-1.18-.35-.79-.18-.64v-.17m0,0V509m0,0,.08,0,.24.21.37.42.54.67.69.93.82,1.17m9.45,12.46,0,0-.48-.6-1-1.18-1.88-2.41-2.19-2.94-2.71-3.79-2.66-3.89-1.62-2.46L1399.2,506l-.08-.13m0,0-.21-.34m10,24.22.26.32m0,0,.82,1.11.59,1,.36.8.2.69v.2m0,0v21.26m0,0-.08.61-.24.41-.37.23h-.53l-.76-.36m0,0-.26-.19m0,0-.82-.8-.68-1.1-.35-.9-.18-.91,0-.28m0,0v-23m0,0,.08-.35.24-.11.37.11.53.38.69.71.14.16m-6.29-7.56.1.12m0,0,.83,1.11.59,1,.36.8.2.7v.2m0,0v24.4m0,0-.09.6-.23.42-.36.23h-.54l-.77-.37m0,0-.1-.08m0,0-.82-.8-.68-1.1-.35-.89-.18-.91v-.28m0,0V521.23m0,0,.08-.35.24-.11.37.12.53.38.69.71.13.16m0,30.57.1.07m0,0,.83.77.59.9.36.85.2.91v.31m0,0v33.33m0,0-.09.79-.23.68-.36.57-.54.44-.77.2m0,0h-.1m0,0-.82-.27-.68-.72-.35-.76-.18-.93v-.32m0,0V553.91m0,0,.08-.68.24-.49.37-.3.53-.07.69.25.13.09m6.29,4.3.26.18m0,0,.82.77.59.9.36.86.2.91v.3m0,0V590m0,0-.08.78-.24.68-.37.57-.53.44-.76.19m0,0h-.26m0,0-.82-.26-.68-.72-.35-.76-.18-.93,0-.33m0,0v-31.4m0,0,.08-.68.24-.5.37-.31.53-.07.69.25.14.09m-6.29,37.16h.1m0,0,.83.23.59.55.36.68.2.88v.33m0,0v24m0,0-.09.78-.23.77-.37.73-.53.7-.07.06m0,0-.1.1m0,0-.82.6-.77.12-.67-.35-.32-.55-.15-.78v-.21m0,0v-25.7m0,0,.08-.83.24-.74.37-.64.53-.51.69-.26h.13m6.29-.11h.26m0,0,.82.22.59.55.36.69.2.88v.32m0,0v20.57m0,0-.08.78-.24.77-.36.72-.53.68-.7.56-.65.22m0,0-.19,0m0,0-.77-.12-.44-.44-.28-.73-.05-.6m0,0V597.07m0,0,.08-.84.24-.75.37-.64.53-.51.69-.26h.14m-2.25,29.18,1.6-.53,2.59.43,1.29,1.35.61,1.84,0,2.37-.52,2.42-1,2.53-1.93,3.26-2.25,2.62-3,2.15-2.56.44-1.47-.85-.93-2-.2-2.49.35-2.63.8-2.71,1.28-2.75,1.8-2.63,2.35-2.19h0m-2.22,19.71.1,0m0,0,.63-.13.11,0,.35.24.19.51v.23m0,0v16.2m0,0-.09.52-.23.64-.36.74-.54.87-.77,1m0,0-.1.13m0,0-.82.86-.68.46-.35,0-.18-.27v-.16m0,0V648.15m0,0,.08-.72.24-.78.37-.82.54-.86.69-.79.82-.58m-.7,21.78.1-.12m0,0,.83-.89.59-.45.36-.11.2.18v.13m0,0v8.94m0,0-.09.15-.23.34-.36.53-.54.75-.77,1.08m0,0-.1.14m0,0-.82,1.14-.68.95-.35.47,0,0m-.16.18v-9.54m0,0,.08-.49.24-.64.37-.76.53-.89.69-1,.13-.17m5.78-25.87.19-.24m0,0,.83-.79.81-.4.51,0,.29.3.12.47v.15m0,0v13.83m0,0-.08.52-.24.65-.37.73-.53.88-.76,1m0,0-.26.31m0,0-.82.86-.68.46-.35,0-.18-.27,0-.16m0,0V643.05m0,0,.08-.71.24-.77.37-.81.52-.85.33-.4m.51,18.2.26-.32m0,0,.82-.89.59-.45.36-.11.2.18v.13m0,0V664m0,0-.08.15-.24.35-.37.52-.53.75-.76,1.08m0,0-.26.36m0,0-.82,1.15-.68.94-.35.47,0,0m-.17.2v-8.41m0,0,.08-.49.24-.64.37-.75.53-.89.69-1,.14-.17m-16.75,24.68V548.83m0,0V504.3m28.56,100.93,2.56-.51,2.17-1.45,1.44-2.16.51-2.56-.51-2.56-1.44-2.16-2.17-1.45-2.56-.51-2.55.51-2.17,1.45-1.45,2.16-.5,2.56.5,2.56,1.45,2.16,2.17,1.45,2.55.51m0-13.35,2.56-.5,2.17-1.45,1.44-2.17.51-2.55-.51-2.56-1.44-2.17-2.17-1.45-2.56-.5-2.55.5-2.17,1.45-1.45,2.17-.5,2.56.5,2.55,1.45,2.17,2.17,1.45,2.55.5m12.49,4.59.85-.17.72-.48.48-.72.17-.85-.17-.86-.48-.72-.72-.48-.85-.17-.85.17-.72.48-.49.72-.17.86.17.85.49.72.72.48.85.17m0,4.46.85-.17.72-.49.48-.72.17-.85-.17-.85-.48-.73-.72-.48-.85-.17-.85.17-.72.48-.49.73-.17.85.17.85.49.72.72.49.85.17m0-9.31.85-.16.72-.49.48-.72.17-.85-.17-.85-.48-.72-.72-.49-.85-.17-.85.17-.72.49-.49.72-.17.85.17.85.49.72.72.49.85.16m0-4.45.85-.17.72-.48.48-.72.17-.85-.17-.85-.48-.73-.72-.48-.85-.17-.85.17-.72.48-.49.73-.17.85.17.85.49.72.72.48.85.17m8.07-7.42h0m-.47-1.51h.08m-.11-.07h.09m48.79,8.64h-.74m.74,0h-.74m-19-12.23-.17,0-.17,0-.15-.08-.08-.07m.57.23-.17,0-.17,0-.15-.08-.08-.07m20.32,23.57h-.74m.74-11.08h-.74m-19-12.26-.17,0-.17,0-.15-.08-.13-.11-.11-.13-.08-.16,0-.16,0-.17m0-7.29v7.29m0-7.29h-.87m.87-.63v.63m0-2.09v.46m-.87,8.88V566.4m0,0h-1.22m3,8.18-.17,0-.17,0-.15-.08-.13-.11-.11-.13-.08-.16,0-.16,0-.17m0,0h-.87m0,.89h0v-.88m-1.22,0,1.22,0m-1.22.87h0v-.88m0,0H1466m.87-7.23v7.23m0-7.23H1466m23.59,20.44h-.74M1466,529.9V547m0,0V548m-.27-1.52.06,0,.06.05,0,.06,0,.05,0,.06,0,.07V547m-6.83-2.48v0m2.63-.64,1.26.86,2.67,1.82m-4.55-2.87h.25l.09,0,.07,0,.08,0,.07,0,.06.05m-1.74-.21,1.12,0m-2,.83,0-.18.08-.16.18-.2.3-.2.29-.11h0m29.53,45.77v8.47m0,0h-.74m0,5.19v2.85m0-28.2v2.95m-22,24.09v-1.44m21.11.33v1.48m0-25v-1.48m-21.11,1.82V579m22.72,7.92h0m0,0h-.74m-22.83-13h0v0m.85.69-.17,0-.17,0-.15-.08-.13-.11-.11-.14-.08-.15,0-.16v-.18m23.59,15.75h-.74m.74-2.51v2.51m0-2.51h-.74m0-11.09h0m0,0,0-.17,0-.17-.09-.15-.1-.13-.14-.11-.15-.09-.16-.05-.17,0m-22-19.74v18.48m0-18.48V555l0,0,0,0,0-.05,0,0-.06,0-.06,0m23.12,21,0-.17,0-.17-.09-.15-.1-.13-.14-.11-.15-.08-.16-.06-.17,0m-22-1.26v.18l0,.16.08.15.11.14.13.11.15.08.17,0,.17,0m-.87-.89-.06.1-.16.07,0,0m23.12,2v1.91m-.21-2.07,0,0,0,0,0,0,0,0,0,0,0,0v0m-.87,2.8.17,0,.16-.06.15-.08.14-.11.1-.13.09-.16,0-.16,0-.17m-.21-.14h0l0,0h0l0,0,0,0,0,0v0M1466,610.05V656.8m22-51.7.17,0,.16.06.15.08.14.11.1.14.09.15,0,.16,0,.17M1466,579.84v-.18l0-.16.08-.15.11-.14.13-.11.15-.08.17,0,.17,0M1488,608.79l.17,0,.16,0,.15-.09.14-.11.1-.13.09-.15,0-.17,0-.17m0-13.59V603m-.87.58h.17l.16,0,.15-.06.14-.07.1-.09.09-.1,0-.11,0-.11m0-22.4v8.73m-.87-9.31h.17l.16,0,.15.06.14.07.1.09.09.1,0,.11,0,.11m-22,22.65,10.64.17,10.47.16m0,0v-9.18m.87,11.55v1.91m-.21.13h0l0,0,0,0h0l0,0,0,0h0v0m-.21-1.79h0l0,0h.07l0,0,0,0h0v0m-.87-.89.17,0,.16.06.15.08.14.11.1.14.09.15,0,.16,0,.17m-22,3.17h-.52m-.35.88v-.17l0-.17.08-.15.11-.14.13-.11.15-.08.17-.05.17,0m-1.14.73.18.06.08.07v0m.87-5.32h-.17l-.17-.06-.15-.08-.13-.11-.11-.14-.08-.15,0-.16v-.18m22-14.6v-9.18m0,0-10.47.16-10.64.18m21.77-4.78,0-.14-.05-.14-.06-.13-.09-.11-.09-.09-.11-.06-.11,0-.12,0m.87,19.42v-1.17m-.87,1.3h.48l.14,0h.1l.09,0,0,0,0,0m0-3.89h0v-1m0,0,0,0,0,0-.09,0-.1,0-.14,0H1488m0,.76.17,0,.16.05.15.08.14.11.1.14.09.15,0,.17,0,.17m-22.85-11v.1l0,.11.08.09.11.09.13.07.15.05.17,0,.17,0m0,0v7.22m20.44-12,0-.14,0-.14-.07-.13-.08-.11-.1-.09-.11-.06-.11,0h-.12m-19.78,12.75h-.34l-.28-.05-.19-.07-.06-.07m.87.2.08.45.24.37m-.32-9.49h-.52m-.35.89v-.18l0-.16.08-.15.11-.14.13-.11.15-.08.17,0,.17,0m-.87,24.89v-.1l0-.11.08-.09.11-.09.13-.07.15,0,.17,0h.17m0-8.49v8.49m-.87-8.35v0l0,0,.08,0,.11,0,.13,0h.49m0-.75,21.11-.37m-21.11,1.12v-.74h0m21.11.39-1.78,0-7.12.12-12.21.21m21.11-1.12v.76m-22,.5v-.17l0-.17.08-.15.11-.13.13-.11.15-.09.17,0,.17,0m21.77-16.5v-1.93m0,0h-1.33m.67,3h-1.33m1.33,0,.14,0,.14-.06.13-.1.1-.13.09-.16.05-.18,0-.18v-.19m-1.33,0h1.33M1488,590h0v-.76m-19.51-.33h.18l7.12.12,12.21.21m0,19.55h-1.33m2-.78,0,.15-.05.15-.07.13-.08.11-.1.09-.11.07-.11,0-.12,0m0-18.79.17,0,.16.05.15.08.14.11.1.14.09.15,0,.17,0,.17m-1.54-15.29v2m-.6-2.05h.25l.08,0h.15l.07,0h0m-.66,3,.14,0,.14-.07.13-.09.11-.14.08-.15,0-.18,0-.19v-.19m-.6-.07h.48l.07,0h0m.67,16.11.17,0,.16,0,.15-.08.14-.11.1-.14.09-.15,0-.16,0-.18m-.21,0h.21m0-1.9v1.9m-.21-1.92h.21m-22,13.84h-.17l-.17-.06-.15-.08-.13-.11-.11-.14-.08-.15,0-.16v-.18m2.47-14.18v-.75m-1.28-.47.24.2.3.15.74.12m-1.4.72,0-.07,0-.24,0-.37,0-.51m0,0h-.45l-.39,0-.3-.06,0,0h0m20.65,20.53h.12l.11,0,.11-.07.1-.09.08-.11.07-.13,0-.15,0-.15m-21.58-4.32.07,0,.14,0,.06.05m0-8.9v8.9m-.27-15.07.14-.13.09-.1,0,0v-.21m0-8.44v8.44m-.27-8.3.18-.06.08-.06v0m21.31,28.21,1.13,0h.2m0,0v-1.92m0,0-.78,0h-.55m.67-1,.14,0,.14.06.12.09.11.13.08.15.05.18,0,.18v.19m-18.8-31.53h0m0,0h0m-1.75,0h1.75m-1.75,0-1.22,0m0,0h0m-.52,0h.52m19.78.35H1488m0,0h0m0,0h-1.33m0,0-12.19-.21-4.62-.08m-3.49-.06-1.85,0h-.74m2-.65,0,.14,0,.13.07.12.07.11.09.08.1.06.1,0,.11,0m20.36,33.6h.48l.07,0h0m0-2v2m-.6-1.91h.55l0,0m0,0v-.19l0-.18,0-.17-.08-.15-.11-.13-.12-.1-.14-.06-.14,0m-19.78-11h-.52m-.35.88v-.17l0-.17.08-.15.11-.13.13-.11.15-.09.17,0,.17,0m-1.14.89h.27m-1.27-16,1.62,0m-.62,1v-.19l0-.19,0-.18.08-.15.09-.13.12-.1.12-.06.14,0m-2.51,30.26h.67l1.84,0m-.62.72,0-.14,0-.14.06-.13.08-.1.09-.09.09-.07.11,0h.11m-.62-20.4.22.33.31.27.38.2.43.06M1488,590l.13,0,.12.05.11.08.1.11.09.13.06.15,0,.16v.17m-.66,2.81-.69,0h-.64m2-.92V593l0,.17-.07.15-.08.14-.1.11-.11.08-.13,0-.13,0m.66-.89v-1.92m0,0-1.14,0h-.19m0,2,1.15,0h.18m-22.91-38-1.25-.83-2.68-1.76m1.34,21.58.74,0,1.85,0m0,0V554.77m21,20.75v-.64h0m-22.89-.4,10.7.19,12.19.21m-23.51-1.11H1463l-.65.19-.35.33-.16.3m.49.51,0-.13,0-.08.17-.17.37-.16.68-.09h.19m-.62-.71,0,.15,0,.13.06.12.08.11.09.08.09.07.11,0,.11,0m22.89,30.61H1488m0,0-10.47-.18-10.64-.19m-.24,0h.24m-.52,0-1.71,0m1.09-1v.19l0,.18,0,.17.07.15.1.13.11.09.13.07.13,0m-4.55-52.55v22.41m-.62-22.57h.17l.08,0h.09l.07,0,.08,0,.07,0,.06,0m25.51,38.66v-.17l0-.16-.06-.15-.08-.13-.1-.1-.12-.09-.12,0-.13,0m.66.87v2m-.6-2h.6m-.66,2.87.13,0,.13-.05.11-.09.1-.11.09-.14.06-.15,0-.17v-.17m-.6,0h.6m-25.51-18.22,0,.44m-.59-.51h.41l.08,0h.07l.06,0m24.91,2.91v-2m0,0-1.77,0-7.1-.12-15.55-.27m24.36,3.5,0,0v-.07l0-.11v-.9m-24.42.43,1.77,0,7.09-.12,15.56-.28m-.06,1.1-12.23.21-9.69.17m21.92,29.83h0v-.68m-.06.69-12.19.22-10.62.18M1461.81,575l.06,0h.46m0,0v2.83m3.44,32-1.84,0h-.66m-1.43-.89,0,.06.21.36.37.29.82.18m0,0,0-.15,0-.13.06-.13.08-.11.09-.09.1-.06.1,0h.11m0,0-.85-.09-.38-.14-.23-.18-.06-.11,0-.07v-.07m-.52-33.52v2.85m-.59-2.91h.59m0,34h-.06l-.07,0h-.49m.59-.51,0,.45m0-31.17.06,0h.46m1.82,2.07v-.19l0-.18,0-.18.07-.16.1-.13.11-.09.13-.06.14,0m0,0-1.06-.1-.69-.22-.39-.23-.21-.21-.07-.13,0-.07v-.09m-.52,0,0,.47m-.62-.52h.59m24.94,30.24v-2m-24.42,2.41,1.77,0,7.1-.13,15.55-.27m-.06-18.15.66,0h.67m0,0-19.51-.34m0,0h-.65l-.75,0m0,0-1.35,0m0,0-1.15,0h-.37m.91-.82,0,.33.13.27.2.18.23.07m-1.44,4.49h.31l1.76,0m-.62.88,0-.17,0-.17.06-.15.08-.13.09-.11.1-.08.12,0,.12,0m20.36,12.08v-.87l0-.1,0-.07v0m-22-.38,9.78.17,12.23.21m.06,1.06-1.77,0-7.09-.13-15.56-.27m-.52,2.89h.52m0-2.84v2.84m-.52.05h-.59m.59-2.9v2.85m0-2.85h.52m0,0v-.13l0-.09.16-.2.34-.23.63-.24,1-.12h.18m-.62-1v.18l0,.19.05.16.07.16.1.12.11.1.13.06.13,0m-3.46,1.09h.59m0-.47,0,.47m24.94-12.94v-2m0,0V590l0,0v0m-22.45-.39,10.25.18,12.2.21m.06.86-1.77,0-7.1-.13-15.55-.27m24.36,3.31v0l0-.05v-.83m-24.42.43,1.77,0,7.1-.13,15.55-.27m-.06.9-12.21.21-10.16.18m-2-3.7v2.84m-.52-2.85h.52m0,0v-.13l.05-.09.16-.18.36-.21.65-.17.68,0m-.62-.84,0,.16,0,.16.06.15.08.12.09.11.1.08.12.05h.12m-.09-9.58-1-.22-.66-.45-.39-.46-.21-.43,0-.09m0,11.57.15-.34.35-.41.63-.34.65-.09m0,0,1.26,0h.27m0,0h.62m0,0V580m0,0-1.24,0h-.38m-2.31-1.65v11.57m-.62-11.62h.62m0,11.57,0,.47m-.59-.48h.62m0,15.36.15-.36.34-.47.61-.47,1-.27h.17m0,0,1.25,0h.46m0,0v-8.79m0,0-1.25,0h-.81m-1.9-1.73h.52m1.38,1.73-1-.21-.49-.36L1462,594l-.12-.28m1.87,1.26v-.17l0-.16,0-.15.08-.13.09-.11.11-.08.11-.06h.12m0,0-1-.1-.51-.18-.3-.2-.1-.13-.05-.07,0-.12v-.06m-1.11,12.08h.62m0-11.57v11.57m0-14.89v2.85m-.59-2.86h.59m-.59,3.32h.62m0-.47,0,.47m-.62-.47h.59m-.59-41.22-1.12,0m1.12,57.07v-.46m0,0v-2.86m0,0v-.47m0,0V593.71m0,0v-.47m0,0v-2.86m0,0v-.47m0,0V578.3m0,0v-.47m0,0V575m0,0v-.45m0,0V552m-1.12,0h0l-.3,0-.3,0-.17.09-.08.1,0,.14m-44.82,64.28h-.59m15.75,0h-15.16m-.59,0h0m-.89.89,0-.2.07-.2.1-.16.17-.17.28-.13.25,0m15.75,0,2.82-.46,2.49-1.3,2-2,.4-.65m-7.71,4.46h0m7.71-4.46,1-1.77,1-1.78,1-1.8m-3.1,5.35h0m3.1-5.35,1-2.83.15-1.62m-1.19,4.45h0m18.85-81.74v68.27m0,0v68.27m-46.3-136.54v41.09m0,51.35v44.1m0-95.45,0,.31.17.28.26.2.28.09h.13m0,0h15.75m0,0,2.8.45,2.47,1.27,2,2,.44.7m0,0,1,1.77,1,1.78,1,1.8m0,0,1,2.85.15,1.6m0,0v21.06m0,0-.51,3-.68,1.48m0,0-1,1.8-1,1.78-1,1.77m0,0-1.93,2.32-2.63,1.56-3.15.58m0,0H1413.8m0,0-.28,0-.26.13-.19.2-.13.27,0,.25M1466,553.85v1.3m0-7v5.75m0-5.75,0-.21-.15-.18-.07-.05m-.32,6.63h.12l.11,0,.1,0,.09-.05.07-.07,0-.08,0-.08v-.08m-.27-.4.18.15.08.18v.07m-.27-.4v-5.79m0,0-.83-.58-3.18-2.16m3.69,9.37v0l0-.07-.05-.05m-4.23-9.42-1.18,0h-.15m0,0v5.95m-.6-5.53V545l0-.08,0-.08.08-.06.09-.05.1,0,.12,0h.11m1.33,5.95v-5.92m.62.19v5.89m0-5.89-.24-.13-.29,0h-.09m4.23,9.42.08-.06.07-.08.07-.08.06-.1,0-.1,0-.1,0-.09v-.09m-4-2.64.84.55,3.17,2.09m-.4.7-4-2.64m-1.54-.86h1.33m0,.81h-1.33m-.6-.44v.09l0,.08,0,.07.08.07.09.06.1,0,.12,0h.11m0,0v-.81m-.6.37v-.08l0-.06,0-.07.08-.06.09,0,.1,0,.12,0h.11m1.54.86.08-.06.07-.07.07-.09.07-.1,0-.09,0-.1,0-.1v-.09m-.62-.16.3,0,.26.09.06,0m-.62.65v-.81m.21.86h0l-.09,0h-.1m-26.42,31.84h0m0,17v.12l0,.11-.06.1-.07.09-.09.07-.1.06-.11,0-.11,0m0,0h0m0,0h-.58m-.39,0-1.51,0m1.9,0h-.38m.12,0h.85m-2.57,0,1.55,0m-14.29-33.8v.62m11.48,48.75h-.92m0,0h0l1.36-.11,1-.3m3.2-1.62.23-.18.19-.17m-2.57,1.67,1.63-.91m6.59-10.08h-.26m-6.72-3.89.11,0,.11,0,.1-.06.09-.07.07-.09.06-.1,0-.11v-.12m.75,13.54v.27m-.75-30.79v0m0,4.48v-1.23m0,6.08V591m0,6.08v-1.23m0,4.46h0m.92,13.65,1.48-1.9m-1.81-11.76h-.59m-.58.6.11,0,.11,0,.1-.06.09-.07.07-.09.06-.1,0-.11v-.12m0-17v-.12l0-.11-.06-.1-.07-.09-.09-.07-.1-.06-.11,0-.11,0m1.17.62h-.59m.59,17,1.06,0m-1.06.62h0v-.59m1.06.58h0v-.59m0,0V583.34m.58,16.93h-.58m.58-16.93h-.58m-1.06-.62,1.06,0m0,.6v-.59h0m-1.06.58v-.59h0m1.06.62-1.06,0m-15.87-16.09h-.12l-.11,0-.1.06-.09.07-.08.09,0,.11,0,.11v.11m.6-.59h0m10,0h-10M1441,604.84h0l0,0m.14-.15-.14.15m-21.49-37.58h-.12l-.11,0-.1.06-.09.07-.08.09,0,.11,0,.11v.11m.6-.59h10m-10,.37v-.35h0m10,49.27h-10m-.6-.59V616l0,.11,0,.11.08.09.09.07.1.06.11,0h.12m0,0h0v-.39m17.68-44.42-1.86-2.25m-16.42,2.84v-4.45m.6-.22h-.23l-.1,0-.09,0-.08,0,0,0,0,0v0m.6,4.26h-.23l-.1,0-.09,0-.08,0,0,0,0,0v0m0,0v.11l0,.11,0,.1.07.09.09.08.1,0,.11,0h.12m0-.78v.78m10.7.18-10.7-.18m-.59,38.6h0m.59-.59h-.12l-.11,0-.1.05-.09.08-.07.09,0,.1,0,.11v.11m11.29-.78-3,.05-7.73.14m0,0h0m10-43.64,3.13.56,2.65,1.57,1.94,2.32m-7.72-4.08v-.35h0m.74,5V573h0m.59.6,0-.15-.08-.18-.13-.14-.17-.09-.19,0m0,37.64h0M1440.21,577l-1-1.8-1-1.78-1-1.77m-18.28,44.23v0l0,0,0,0,.08,0,.09,0,.1,0h.23m-.6-.19v-4.45m.59-.59h-.12l-.11,0-.1.05-.09.08-.07.09,0,.1,0,.11v.11m0,0v0l0,0,0,0,.08,0,.09,0h.33m0-.75v.75m0-.75,10.7-.19m-.73,5.82h0v-.39m7.72-4.05-.37.58-2,2.09-2.51,1.32-2.84.46m.73-5.82v.75m.58-1.34,0,.2-.1.18-.16.13-.19.07h-.1m7-39,0,0h-.15l-.07,0-.09,0-.09,0-.09,0m.52-.11,1,1.77,1,1.79,1,1.79m0,29.66-1,1.8-1,1.79-1,1.77m4.28-30.56-.14-1.6-.2-.84m0,0-.25-.75m0,0-.6-1.27m-9.49,24.52v-.11l0-.11,0-.11.08-.09.08-.07.1-.06.11,0h.12m1.83,0-1.83,0m2.84-.05h-.84m-2,0h0m5.07-.09-1.06,0m-1.17,0h1.17m-1.17,0h0m-2.83-27.44h-.23l-.1,0-.09,0-.07,0-.06,0,0,0v0m0,8.42v-8.42m.59,8.32h-.42l-.07,0h-.06l0,0v0m.58.59h-.12l-.11,0-.1-.06-.08-.07-.08-.09,0-.11,0-.1v-.12m.59-.1v.68h0m5.07.09-5.07-.09m5.08-.6v.68h0m0,0,.19,0,.17.1.13.14.08.19v.13m3.26-6.31h-.11l-.06,0-.08,0-.08,0-.09,0-.1.05m.52-.16.67,1.46.52,3m-10.68,28.6v0l0,0,.06,0,.07,0,.09,0,.1,0h.23m-.59-.15v-8.54m0,0h0l0,0h.55m-.59-.07v-.11l0-.11,0-.11.08-.09.08-.07.1-.06.11,0h.12m0,0,5.07-.09m-5.06.75V601h0m5.65-.69,0,.2-.09.18-.15.13-.19.07-.11,0m0,.66v-.65h0m3.84,5.82,0,0h0l-.05,0-.06,0-.07,0-.09,0-.09-.05-.1,0m1.71-4.27-.15,1.63-1,2.82m-2.67-23.44h-.42l-.07,0H1437l0,0v0m0,16.93V583.34m.59,17H1437v0m4.45-18.78v0l0,0-.06,0-.07,0h-.42m.59,20.86v0h-.09l-.07,0h-.42m.59-20.83v20.75m-5-.71.23,0,.37-.16.3-.26.19-.36.07-.4m-1.16,1.2-5.07.09m0,0v8.62m-1.17,1.19.2,0,.38-.14.31-.27.21-.36.07-.4m-1.17,1.19-10.7.19m0,0v4.48m0,0h10m0,0,2.65-.43,2.35-1.25,1.86-2,.34-.55m0,0,1-1.78,1-1.81,1-1.81m0,0,1-2.66.14-1.53m0,0V581.38m0,0-.49-2.82-.63-1.37m0,0-1-1.81-1-1.8-1-1.79m0,0-1.8-2.19-2.48-1.47-2.92-.53m0,0h-10m0,0v4.48m0,0,10.7.19m1.17,1.2,0-.3-.16-.36-.26-.29-.33-.18-.38-.07m1.17,1.2V582m0,0,5.07.09m1.16,1.2,0-.26-.16-.37-.26-.3-.34-.2-.38-.07m1.16,1.2v17.08m-13.42,3.93-.29.8m0-13.36v.14m.29-.9-.28.76m0,0V592m.17-.37,0,.11V592l0,.11m7.46,8v.49m0-4.94v1.61m0-6.46v2m0-6.46V588m0-4.89v.44m0-.44h-.37m.37,17.52h-.37m.37,0v.12l.07.18,0,.05m-7.75-9,.06,0,.11.06m.14.74-.31-.83m0,13.08.29-.78m0-24.81-.31-.85m0,13.08.28-.76m-.11.67-.12.07-.05,0m.6-.35-.27.17-.16.09m-3.67-17.9h0m.6-.59h-.12l-.11,0-.1.05-.1.08-.07.09-.06.1,0,.12v.11m10.39.16,0-.11,0-.11-.05-.1-.08-.09-.08-.08-.1,0-.11,0h-.12m0,0h.47m-.47,0h0m0,0-9.2-.16m0,0h0m9.2.16h0m.44,0h-.44m-9.2-.16h-.12l-.11,0-.1.05-.1.08-.07.09-.06.1,0,.12v.11m10.39.16,0-.11,0-.11-.05-.1-.08-.09-.08-.08-.1,0-.11,0h-.12m-9.2-.16h0v.41m9.21-.26h0v.41m-9.19-.58,9.2.16m-9.8.43v0l0,0,.06,0,.07,0,.09,0,.1,0h.23m-.59,2.51v-2.34m0,3.46v.11l0,.11.05.1.07.08.08.08.09.05.11,0,.11,0m-.55-1.71v0l0,0,.06,0,.07,0,.09,0h.33m-.59,1.27h0v-1.11m0,33.92v.12l0,.11.06.1.07.09.1.08.1,0,.11,0h.12m0,0h0v-.44m9.21.29-9.2.16m9.2-.16h.12l.11,0,.1-.05.08-.08.08-.08.05-.11,0-.11,0-.11m-.59.59h0V610m-9.79,0v-2.38m0,2.38v0l0,0,.06,0,.07,0,.09,0h.33m3.51-18.76-.11.09-.09.12,0,.14,0,.14,0,.15,0,.13.09.12.11.09m-3.55,13.59-.11,0-.11,0-.09,0-.08.08-.07.08-.05.1,0,.11v.11m0,1.08v-1.08m.59,1.21h-.33l-.09,0-.07,0-.06,0,0,0v0m5.61-4.22.77-1.07.57-1.19.35-1.28.12-1.31m-1.81,4.85-1.09,1-.44.31-.38.24-.15.08-.05,0m2.11-15,.77-1.08.57-1.19.35-1.27.12-1.32m-1.81,4.86-1.09,1-.42.31m0,0h0m6.29-17.48,0,0,0,0-.06,0-.07,0-.09,0h-.1l-.11,0h-.12m.6,36.11,0,0,0,0-.06,0-.07,0-.09,0h-.33m.6-36.08v35.94m-9.8-2.09v2.39m0,0,9.2-.16m0,0V573.7m0,0-9.2-.16m0,0v2.36m0,30,1.95-.42,2.13-1.18,1.64-1.85,1-2.42.1-2.47-.73-2.37-1.45-2-1.08-.88m-3.55,13.59v1.15l0,.5v.15m5.3-15.91.32.31,1.75,2.45.87,2.91-.12,3-1.18,3-2,2.26-2.55,1.46-2.42.52m3.51-15.39h0m1.79-.52h-.06l-.07,0-.15,0-.35.09-.66.2-.32.1-.14,0,0,0m0-1-.11.09-.09.12,0,.14,0,.14,0,.15,0,.13.09.12.11.09m-3.51-16.43,2.33.48,2.54,1.41,2,2.21,1.25,3.06.13,3-.86,2.93-1.75,2.46-.33.32m-5.3-15.91v.5l0,.48v.87h0m3.55,13.59,1.08-.88,1.46-2,.72-2.38-.11-2.48-1-2.49-1.66-1.81-2.11-1.15-1.89-.39m3.55,13.59h0l.14,0,.32.08.66.18.35.09.15,0h.13M1234.7,582.3h-33.86m0,22.1h33.86m-34.39-7.76h34.39m0-6.95h-34.36m34.36,15.46h1.9m0-23.6h-1.9m157.43-77.25H1260.34M1236.6,620.14l1.29,1.3m0-56.18-1.29,1.3m1.29,54.88,10.58.18m0-56.54-10.58.18M1250,504.48l-1.51,1.51m11.27-1.68-9.76.17m10.36.43v-.12l0-.11,0-.11-.08-.09-.09-.07-.1-.06-.12,0h-.11m175.73,109.82h-.15M1466,627h.73m0-16.89H1466m.73,16.89.65-.34.61-.4.59-.44.55-.49.5-.52.47-.57.42-.6.37-.63m0-8.9-.37-.64-.42-.6-.47-.56-.5-.53-.55-.48-.59-.45-.61-.39-.65-.35m0,0H1466m.73-75.69H1466m4.89,4-.37-.63-.42-.6-.47-.57-.5-.53-.55-.48-.59-.44-.61-.4-.65-.35m-66.94,105.2.08-.06.54-.49.51-.53.47-.57.42-.6.37-.63m75.69-90.84,0-.17-.05-.17-.08-.15-.11-.13-.13-.11-.15-.09-.16-.05-.18,0m0,0-6.1-.11m7,1,0-.17-.05-.17-.08-.15-.11-.13-.13-.11-.15-.09-.16-.05-.18,0m0,0-10.09-.18m0,0-.17,0-.17,0-.16.08-.14.11-.11.13-.08.16-.06.17v.17m11,16,.17,0,.16-.05.14-.09.13-.11.11-.13.08-.15,0-.16,0-.17m-3.55,1,2.7-.12m-10.14.22h1.22m-2.1-.9v.17l0,.17.09.15.1.13.14.11.15.09.17.05.17,0m6.55,2.66v-.86l.23-1.2.31-.53.19-.15.12,0h.13l.09,0m-6.41.08h.06l.13.06.16.15.2.32.19.63.13,1.22v.46m12.89-4.5-.84-.84m0,0h-3.15m-4.45,13.37.42.42m8-12.95-.84-.84m0,13.79.84-.84m-.84-13h-3.15m-4,13.79h7.18m-74.12-47.9v-7.23m1.91,139.62.19-.22.08-.1m0-128.23-.19-.22-.08-.1m1.58,1.56h0l-.09,0-.22-.15-.42-.37-.65-.73L1409,529m.16,128.46.25-.32.65-.64.31-.24.12,0h0m-7.84,9.23.07-.09,0,0m0-144-.07-.08,0,0m1.42,1.36h0l-.09,0-.22-.16-.43-.38-.66-.74-.1-.14m.17,144.21.26-.32.64-.64.32-.24.11,0h0m2.93-6.51,0,.08v-.08m0-128.49V529h0m-6.29,136.2v-.07m0-143.63v-.07h0m7.67,118.22.14-.17.06-.07m0,0,.16-.21.72-.61.41-.19h0m-2.92,4.37v0l.06-.49.18-.61,0-.12m0,0,.26-.61.48-.8.36-.44m-1.39,17.9V642.83m2.67-86.92-.21,0-.41-.27m0,0-.18-.13-.08-.06m-5.6,88.44.21-.09h.05m-.35.11.07,0h0m-2.48,3.87v-.21l.14-.57.26-.71.44-.8.59-.79.68-.61.23-.1m3.92-85.58v-.07l.07-.47.12-.27.14-.12h.22m-4.93-6.42-.07,0,0,0m.71.32-.2,0-.41-.28m5.11,69.34h0l-.38-.2-.21-.41-.09-.5v-.33m-6.29-64.83V554l.07-.46.12-.27.14-.12h.22m5.75,43.67.06-.53.2-.61.31-.52.4-.37.48-.15.06,0m-.07-2.64h-.13l-.54-.28-.4-.51-.25-.63L1407,590v-.32M1401.39,624l-.12,0-.39-.3-.16-.42-.06-.53,0-.63,0-.09m4.62,2.2.18-.11M1400.67,597l.07-.56.2-.61.31-.52.4-.37.48-.14.06,0m-.08-2.86H1402l-.53-.28-.4-.51-.26-.63-.12-.66v-.32m12.23-64.44-.16-.22m-13.84-19.38-.6-.83m0,177.4,14.6-20.43m-14.6-157,0,0,0-.05,0,0-.06,0-.07,0-.06,0h-.14m0,177.89h.14l.06,0,.07,0,.06,0,0,0,0,0,0-.05m-.47-177.65-5.71-.1m0,178.09,5.71-.1m29.53-71.35v-.49m-7.13-18.58-2.1.49-1.3.72m7.3-.27-.89-.45-2.11-.49m-7.12,6.66v0m13.35,0v0m0-25.3v-.53M1414,585.19v0m13.35,0v0m7.35,7.44-.69-.46-.85-.17-.85.17-.72.49-.15.16m-.51,1.41v0m4.45,0v0m-2.42,2.23-.65.17-.72.48-.15.16m3.26-.19-.69-.45-.66-.17m-2.42,2.22v0m4.45,0v0m-4.45-9.3v0m4.45,0v0m-4.45-4.45v0m4.45,0v0m30.64-55v-.17l0-.09,0-.08,0-.08,0-.07-.06-.07-.06-.07m0,0-3.93-3.93m0,0-.06-.06-.07,0-.08,0-.07,0-.09,0-.08,0-.09,0h-.08m0,0h-1.12m0,0-.17,0-.17,0-.15.08-.14.11-.11.13-.08.16,0,.17,0,.17m6.83,29.18V555l0-.11,0-.11,0-.1-.06-.09-.07-.09-.08-.07-.09-.07m0,0-3.93-2.58m0,0,0,0-.06,0-.06,0-.06,0-.07,0h-.2m0,0h-1.4m.06,0h-.1l-.22.07-.18.15-.11.21,0,.19v0m6.56,105.08.06-.07.06-.07,0-.07,0-.08,0-.09,0-.08v-.17m-4.2,4.56,3.93-3.93m-4.55,4.19h.17l.08,0,.09,0,.07,0,.08,0,.07-.06.06,0m-1.74.26h1.12m-2-.89,0,.17,0,.17.08.15.11.14.14.11.15.08.17.05.17,0m-.89-136.54h-46.3m0,136.54h46.3M1466,548.09V548l-.1-.25-.16-.18-.08,0m0,0-2.81-1.92-1.21-.83m-.52-.16-1.33,0m0,0h-.12l-.11,0-.11,0-.09.08-.08.09,0,.1,0,.11v.12m2.46-.39-.13-.08-.28-.08h-.11m-22.47,65.15h-.22m-14.3-17.88h0"
     id="path41" />
  <path
     class="cls-10"
     d="M1466.08,534.35c2.51,1,4.12,2.36,4.85,4.09v6.48l6.1.11a.89.89,0,0,1,.88.89V559.5h3.15l.84.84v12.11l-.84.84h-3.15l-.87.91-7.38.28-3.72,0Z"
     id="path43" />
  <path
     id="polyline57"
     class="cls-14"
     style="fill:none;stroke:#37b04a;stroke-width:2px;stroke-linecap:round;stroke-linejoin:round"
     d="m 1659.7513,523.3675 h -30.4942 V 508.18 H 1520.92 v 64.48 h -95.88"
     sodipodi:nodetypes="cccccc" />
  <path
     id="polyline59"
     class="cls-15"
     style="fill:none;stroke:#d5dc28;stroke-width:2px;stroke-linecap:round;stroke-linejoin:round"
     d="m 1659.7513,519.5175 -26.7742,0 V 504.49 H 1516.78 v 64.54 h -92"
     sodipodi:nodetypes="cccccc" />
  <path
     id="polyline2575"
     class="cls-87"
     style="fill:none;stroke:#231f20;stroke-width:15px;stroke-linecap:round;stroke-linejoin:round"
     d="m 1659.7513,579.09 -30.4942,0 v 3.76 l -208.1171,0"
     sodipodi:nodetypes="cccc" />
  <path
     id="polyline2577"
     class="cls-88"
     style="fill:none;stroke:#e6282b;stroke-width:15px;stroke-linecap:round;stroke-linejoin:round"
     d="m 1420.48,600.11 208.7771,0 v 9.1 h 30.4942"
     sodipodi:nodetypes="cccc" />
  <path
     id="polyline6489"
     class="cls-84"
     style="fill:none;stroke:#37b04a;stroke-width:2px;stroke-linecap:round;stroke-linejoin:round"
     d="m 1659.7513,667.3224 -26.7742,0 0,15.0276 H 1517.19 l -0.74,-68.85 h -94.48"
     sodipodi:nodetypes="cccccc" />
  <path
     id="polyline6491"
     class="cls-83"
     style="fill:none;stroke:#d5dc28;stroke-width:2px;stroke-linecap:round;stroke-linejoin:round"
     d="m 1659.7513,663.4725 h -30.4942 l 0,14.5175 H 1520.92 v -67.03 l -98.28,-0.28"
     sodipodi:nodetypes="cccccc" />
</svg>
