<?xml version="1.0" encoding="UTF-8" standalone="no"?>
<svg
   id="Layer_1"
   data-name="Layer 1"
   viewBox="0 0 459.69629 179.25999"
   version="1.1"
   sodipodi:docname="falcon-500.svg"
   inkscape:version="1.1.2 (0a00cf5339, 2022-02-04)"
   width="459.69629"
   height="179.25999"
   xmlns:inkscape="http://www.inkscape.org/namespaces/inkscape"
   xmlns:sodipodi="http://sodipodi.sourceforge.net/DTD/sodipodi-0.dtd"
   xmlns="http://www.w3.org/2000/svg"
   xmlns:svg="http://www.w3.org/2000/svg">
  <sodipodi:namedview
     id="namedview7192"
     pagecolor="#ffffff"
     bordercolor="#999999"
     borderopacity="1"
     inkscape:pageshadow="0"
     inkscape:pageopacity="0"
     inkscape:pagecheckerboard="0"
     showgrid="false"
     showguides="false"
     inkscape:guide-bbox="true"
     inkscape:zoom="2.5970897"
     inkscape:cx="386.39404"
     inkscape:cy="82.784972"
     inkscape:window-width="1920"
     inkscape:window-height="1020"
     inkscape:window-x="0"
     inkscape:window-y="0"
     inkscape:window-maximized="1"
     inkscape:current-layer="Layer_1"
     fit-margin-top="0"
     fit-margin-left="0"
     fit-margin-right="0"
     fit-margin-bottom="0">
    <sodipodi:guide
       position="49.924996,178.53499"
       orientation="0,-1"
       id="guide8169" />
    <sodipodi:guide
       position="49.924996,0.67499428"
       orientation="0,-1"
       id="guide8171" />
    <sodipodi:guide
       position="246.9057,159.65749"
       orientation="0,-1"
       id="guide11094" />
    <sodipodi:guide
       position="343.9214,19.552494"
       orientation="0,-1"
       id="guide11287" />
    <sodipodi:guide
       position="429.2021,266.99809"
       orientation="1,0"
       id="guide12092" />
    <sodipodi:guide
       position="459.69629,262.64179"
       orientation="1,0"
       id="guide12094" />
    <sodipodi:guide
       position="432.92209,178.53499"
       orientation="1,0"
       id="guide13999" />
    <sodipodi:guide
       position="432.92209,163.50749"
       orientation="0,-1"
       id="guide14474" />
    <sodipodi:guide
       position="456.65219,15.702594"
       orientation="0,-1"
       id="guide14580" />
    <sodipodi:guide
       position="277.715,123.67499"
       orientation="0,-1"
       id="guide18183" />
    <sodipodi:guide
       position="459.69629,100.17499"
       orientation="0,-1"
       id="guide18289" />
    <sodipodi:guide
       position="459.69629,82.914994"
       orientation="0,-1"
       id="guide18291" />
    <sodipodi:guide
       position="358.2878,59.414994"
       orientation="0,-1"
       id="guide18293" />
    <sodipodi:guide
       position="300.1916,113.99499"
       orientation="1,0"
       id="guide19636" />
    <sodipodi:guide
       position="304.3316,110.36499"
       orientation="1,0"
       id="guide19638" />
  </sodipodi:namedview>
  <defs
     id="defs7">
    <marker
       style="overflow:visible"
       id="SemiCircleIn"
       refX="0"
       refY="0"
       orient="auto"
       inkscape:stockid="SemiCircleIn"
       inkscape:isstock="true">
      <path
         transform="scale(0.6)"
         style="fill:context-stroke;fill-rule:evenodd;stroke:context-stroke;stroke-width:1pt"
         d="m -0.37450702,-0.04569258 c 0,2.75999998 2.24000002,4.99999998 5.00000002,4.99999998 v -10 c -2.76,0 -5.00000002,2.24 -5.00000002,5.00000002 z"
         id="path20657" />
    </marker>
    <style
       id="style2">.cls-1,.cls-100,.cls-101,.cls-102,.cls-103,.cls-104,.cls-105,.cls-106,.cls-107,.cls-108,.cls-109,.cls-110,.cls-113,.cls-114,.cls-115,.cls-116,.cls-117,.cls-119,.cls-12,.cls-125,.cls-126,.cls-127,.cls-13,.cls-130,.cls-139,.cls-14,.cls-143,.cls-145,.cls-146,.cls-147,.cls-149,.cls-15,.cls-157,.cls-158,.cls-159,.cls-161,.cls-168,.cls-173,.cls-174,.cls-175,.cls-177,.cls-178,.cls-179,.cls-182,.cls-183,.cls-186,.cls-187,.cls-188,.cls-189,.cls-190,.cls-191,.cls-192,.cls-193,.cls-196,.cls-197,.cls-201,.cls-206,.cls-207,.cls-208,.cls-210,.cls-214,.cls-218,.cls-24,.cls-25,.cls-27,.cls-3,.cls-37,.cls-4,.cls-42,.cls-46,.cls-50,.cls-56,.cls-57,.cls-6,.cls-70,.cls-71,.cls-72,.cls-78,.cls-83,.cls-84,.cls-85,.cls-86,.cls-87,.cls-88,.cls-89,.cls-90,.cls-92,.cls-93,.cls-94,.cls-95,.cls-96,.cls-97,.cls-98,.cls-99{fill:none;}.cls-2,.cls-212{fill:#fff;}.cls-174,.cls-183,.cls-186,.cls-189,.cls-197,.cls-3,.cls-57,.cls-86,.cls-87{stroke:#231f20;}.cls-100,.cls-101,.cls-102,.cls-103,.cls-104,.cls-105,.cls-106,.cls-107,.cls-108,.cls-109,.cls-110,.cls-111,.cls-12,.cls-139,.cls-14,.cls-146,.cls-15,.cls-159,.cls-161,.cls-174,.cls-175,.cls-177,.cls-178,.cls-179,.cls-182,.cls-183,.cls-188,.cls-189,.cls-197,.cls-214,.cls-3,.cls-4,.cls-5,.cls-50,.cls-56,.cls-57,.cls-6,.cls-85,.cls-86,.cls-87,.cls-88,.cls-95,.cls-96,.cls-97,.cls-98,.cls-99{stroke-linecap:round;}.cls-100,.cls-101,.cls-102,.cls-103,.cls-104,.cls-105,.cls-106,.cls-107,.cls-108,.cls-109,.cls-110,.cls-12,.cls-139,.cls-14,.cls-146,.cls-15,.cls-157,.cls-158,.cls-159,.cls-161,.cls-174,.cls-175,.cls-177,.cls-178,.cls-179,.cls-182,.cls-183,.cls-186,.cls-187,.cls-188,.cls-189,.cls-190,.cls-197,.cls-214,.cls-3,.cls-4,.cls-5,.cls-50,.cls-56,.cls-57,.cls-6,.cls-83,.cls-84,.cls-85,.cls-86,.cls-87,.cls-88,.cls-95,.cls-96,.cls-97,.cls-98,.cls-99{stroke-linejoin:round;}.cls-111,.cls-3,.cls-4,.cls-5,.cls-96,.cls-97{stroke-width:3px;}.cls-100,.cls-102,.cls-104,.cls-106,.cls-108,.cls-187,.cls-188,.cls-190,.cls-4,.cls-56,.cls-88,.cls-98{stroke:#e6282b;}.cls-5{fill:#d7de27;stroke:#d7de27;}.cls-111,.cls-126,.cls-13,.cls-145,.cls-146,.cls-147,.cls-182,.cls-50,.cls-6,.cls-7,.cls-71{stroke:#414142;}.cls-6{stroke-width:9px;}.cls-142,.cls-19,.cls-43,.cls-47,.cls-7{fill:#bababa;}.cls-111,.cls-113,.cls-114,.cls-115,.cls-116,.cls-117,.cls-119,.cls-125,.cls-126,.cls-127,.cls-128,.cls-129,.cls-13,.cls-130,.cls-131,.cls-136,.cls-137,.cls-141,.cls-142,.cls-143,.cls-144,.cls-145,.cls-147,.cls-148,.cls-149,.cls-16,.cls-168,.cls-173,.cls-191,.cls-192,.cls-193,.cls-196,.cls-201,.cls-206,.cls-207,.cls-208,.cls-210,.cls-218,.cls-22,.cls-24,.cls-25,.cls-27,.cls-37,.cls-39,.cls-40,.cls-41,.cls-42,.cls-43,.cls-44,.cls-45,.cls-46,.cls-47,.cls-49,.cls-7,.cls-70,.cls-71,.cls-72,.cls-78,.cls-89,.cls-90,.cls-92,.cls-93,.cls-94{stroke-miterlimit:10;}.cls-8{fill:#1c1c1c;}.cls-9{fill:#141414;}.cls-10{fill:#0d0d0d;}.cls-11,.cls-40{fill:#231f20;}.cls-12,.cls-137,.cls-139{stroke:#010101;}.cls-12{stroke-width:0.51px;}.cls-13,.cls-50,.cls-71{stroke-width:4px;}.cls-13,.cls-50{opacity:0.9;}.cls-14,.cls-84{stroke:#37b04a;}.cls-106,.cls-107,.cls-125,.cls-136,.cls-14,.cls-148,.cls-15,.cls-197,.cls-83,.cls-84{stroke-width:2px;}.cls-15,.cls-83{stroke:#d5dc28;}.cls-136,.cls-16,.cls-18{fill:#1a1a1a;}.cls-136,.cls-148,.cls-16,.cls-27{stroke:#383739;}.cls-16{stroke-width:1.63px;}.cls-137,.cls-17{fill:#212121;}.cls-20{fill:#0d91ce;}.cls-21,.cls-41{fill:#2c292a;}.cls-129,.cls-22{fill:#e9e8e9;}.cls-129,.cls-130,.cls-22,.cls-24{stroke:#424242;}.cls-22,.cls-24{stroke-width:0.41px;}.cls-23{fill:#a7a9ac;}.cls-25{stroke:#929497;}.cls-25,.cls-27,.cls-49{stroke-width:0.61px;}.cls-26{fill:#999;}.cls-28{fill:#ef413e;}.cls-29,.cls-45{fill:#d93b37;}.cls-30{fill:#323031;}.cls-31{fill:#aeb636;}.cls-32{fill:#d5dc28;}.cls-33{fill:#37b04a;}.cls-34{fill:#2b9446;}.cls-35{fill:#080808;}.cls-128,.cls-36{fill:#e8e8e8;}.cls-127,.cls-128,.cls-37{stroke:#e8e8e8;}.cls-37{stroke-width:0.81px;}.cls-38{fill:#808184;}.cls-132,.cls-39,.cls-67{fill:#6e6f71;}.cls-207,.cls-39,.cls-72{stroke:#fff;}.cls-39,.cls-40,.cls-41,.cls-42,.cls-43,.cls-44,.cls-45,.cls-46,.cls-47{stroke-width:0.08px;}.cls-40,.cls-41,.cls-42,.cls-43{stroke:#6e6f71;}.cls-44{fill:#b42e2c;}.cls-44,.cls-45,.cls-46,.cls-47{stroke:#dd5f70;}.cls-48{fill:#747578;}.cls-141,.cls-49{fill:#60b356;stroke:#cfd0d3;}.cls-51{fill:#383739;}.cls-111,.cls-52{fill:#414142;}.cls-53{fill:#be2c3a;}.cls-54{fill:#846c30;}.cls-55{fill:#a2a63c;}.cls-110,.cls-56,.cls-57{stroke-width:20px;}.cls-58{fill:#323130;}.cls-59{fill:#819355;}.cls-60{fill:#bc2031;}.cls-213,.cls-61{fill:#211e1e;}.cls-62{fill:#5b5a5d;}.cls-63{fill:#f2f2f2;}.cls-64{fill:#079247;}.cls-65{fill:#4e4e50;}.cls-66{fill:#595a5c;}.cls-68{fill:#636467;}.cls-69{fill:#6a5f27;}.cls-173,.cls-70{stroke:#5b5a5d;}.cls-129,.cls-130,.cls-145,.cls-72{stroke-width:0.5px;}.cls-73{fill:#99999a;}.cls-74{fill:#171717;}.cls-75{fill:#c6c7c9;}.cls-76{fill:#f1e902;}.cls-77{fill:#7cc244;}.cls-113,.cls-114,.cls-115,.cls-116,.cls-117,.cls-119,.cls-159,.cls-191,.cls-193,.cls-196,.cls-206,.cls-210,.cls-78,.cls-89,.cls-90,.cls-92,.cls-93,.cls-94{stroke:#211e1e;}.cls-78{stroke-width:2.02px;}.cls-79{fill:#272660;}.cls-80{fill:#a4a7a9;}.cls-81{fill:#7bc044;}.cls-82{fill:#314b6c;}.cls-157,.cls-158,.cls-85{stroke:#babcbe;}.cls-104,.cls-105,.cls-175,.cls-177,.cls-178,.cls-85,.cls-86{stroke-width:5px;}.cls-87,.cls-88,.cls-95{stroke-width:15px;}.cls-89{stroke-width:0.18px;}.cls-90{stroke-width:0.22px;}.cls-91{fill:#a5a5a9;}.cls-92{stroke-width:0.17px;}.cls-93{stroke-width:0.13px;}.cls-94{stroke-width:0.1px;}.cls-101,.cls-103,.cls-105,.cls-107,.cls-109,.cls-110,.cls-95,.cls-96,.cls-99{stroke:#211e1f;}.cls-97{stroke:#b9bbbd;}.cls-183,.cls-186,.cls-187,.cls-98,.cls-99{stroke-width:12px;}.cls-100,.cls-101,.cls-189{stroke-width:8px;}.cls-102,.cls-103,.cls-174{stroke-width:6px;}.cls-108,.cls-109{stroke-width:7px;}.cls-112{fill:#e5e5e5;}.cls-113{stroke-width:0.18px;}.cls-114{stroke-width:0.16px;}.cls-115{stroke-width:0.09px;}.cls-116{stroke-width:0.28px;}.cls-117{stroke-width:0.17px;}.cls-118{fill:#2b2929;}.cls-119{stroke-width:0.21px;}.cls-120,.cls-144{fill:#175c94;}.cls-121{fill:#a4833a;}.cls-122{fill:#ed3837;}.cls-123{fill:#f89b53;}.cls-124{fill:#262223;}.cls-125,.cls-131{stroke:#323031;}.cls-126,.cls-168,.cls-173,.cls-196,.cls-218{stroke-width:0.25px;}.cls-131{fill:#3c3b3c;stroke-width:1.03px;}.cls-132{opacity:0.32;}.cls-133{fill:#d79528;}.cls-134{fill:#835d25;}.cls-135{fill:#ed2a2b;}.cls-138,.cls-148{fill:#121212;}.cls-139{stroke-width:0.8px;}.cls-140{fill:#dbd560;}.cls-141{stroke-width:0.75px;}.cls-142,.cls-143,.cls-144{stroke:#909295;}.cls-147{stroke-width:0.63px;}.cls-149{stroke:#808083;}.cls-150{fill:#191919;}.cls-151{fill:#333;}.cls-152{fill:#f15b2d;}.cls-153{fill:#aea2a0;}.cls-154{fill:#b4ada7;}.cls-155{fill:#948b8a;}.cls-156{fill:#7b8188;}.cls-157{stroke-width:1.83px;}.cls-158{stroke-width:1.81px;}.cls-159{stroke-width:1.33px;}.cls-160{fill:#434342;}.cls-161{stroke:#2d2f6c;stroke-width:21px;}.cls-162{fill:#cfd2d3;}.cls-163{fill:#363435;}.cls-164{fill:#505052;}.cls-165{fill:#955f25;}.cls-166{clip-path:url(#clip-path);}.cls-167{fill:#f59222;}.cls-168{stroke:#ab6b29;}.cls-169{fill:#9a9ba0;}.cls-170{fill:#bc984b;}.cls-171{fill:#857133;}.cls-172{fill:#808083;}.cls-175{stroke:#e8282b;}.cls-176{fill:#909294;}.cls-177{stroke:#754e2a;}.cls-178{stroke:#2c3a8c;}.cls-179,.cls-192{stroke:#434342;}.cls-179{stroke-width:25px;}.cls-180{fill:#e4424f;}.cls-181{fill:#892129;}.cls-182{stroke-width:3.94px;opacity:0.8;}.cls-184{fill:#c64e5f;}.cls-185{fill:#8e464f;}.cls-188,.cls-190{stroke-width:11px;}.cls-191{stroke-width:0.39px;}.cls-192{stroke-width:0.56px;}.cls-193{stroke-width:0.37px;}.cls-194{fill:#271e21;}.cls-195{fill:#616262;}.cls-198{fill:#ddd6d3;}.cls-199{fill:#dfd6c8;}.cls-200{fill:#c1baae;}.cls-201{stroke:#c1baae;stroke-width:0.34px;}.cls-202{fill:#b2a696;}.cls-203{fill:#7b776c;}.cls-204{fill:#e8e2d0;}.cls-205{fill:#404042;}.cls-206{stroke-width:0.27px;}.cls-207,.cls-210{stroke-width:0.38px;}.cls-208{stroke:#7f8081;stroke-width:0.07px;}.cls-209{fill:#018fb9;}.cls-211{fill:#010101;}.cls-211,.cls-212,.cls-213{fill-rule:evenodd;}.cls-214{stroke:#2b2929;stroke-width:10px;}.cls-215{fill:#929497;}.cls-216{fill:#d0d2d3;}.cls-217{fill:#dbdddd;}.cls-218{stroke:#343637;}.cls-219{fill:#b59248;}.cls-220{fill:#927738;}.cls-221{fill:#d2ad2a;}.cls-222{fill:#7e6b2b;}</style>
  </defs>
  <rect
     class="cls-7"
     x="0.7849701"
     y="78.555008"
     width="40.02"
     height="22.440001"
     id="rect19" />
  <polygon
     class="cls-8"
     points="1397.98,682.27 1398.31,504.65 1249.98,504.62 1248.47,506.13 1248.47,565.26 1248.47,680.35 1249.98,682.35 "
     id="polygon21"
     transform="translate(-1200.055,-503.765)" />
  <polyline
     class="cls-9"
     points="1237.96 565.26 1236.66 566.56 1236.66 581.93 1236.66 620.14 1237.96 621.44 1248.54 621.53 1248.54 565.26"
     id="polyline23"
     transform="translate(-1200.055,-503.765)" />
  <polygon
     class="cls-9"
     points="1397.91,682.27 1412.84,661.62 1412.84,525.08 1398.24,504.65 "
     id="polygon25"
     transform="translate(-1200.055,-503.765)" />
  <polygon
     class="cls-10"
     points="1461.57,525.19 1412.84,525.08 1412.84,661.62 1461.23,661.61 1465.9,657.14 1465.96,529.81 "
     id="polygon27"
     transform="translate(-1200.055,-503.765)" />
  <line
     class="cls-8"
     x1="192.07501"
     y1="62.104996"
     x2="48.414974"
     y2="62.354996"
     id="line29" />
  <path
     class="cls-11"
     d="m 212.585,63.475 0.27,49.7 17.41,-0.44 a 11.41,11.41 0 0 0 6.94,-4.33 l 3.1,-5.35 1.19,-4.45 v -21.06 l -1.67,-4.21 -3,-5.42 a 8.39,8.39 0 0 0 -6.52,-4.06 z"
     id="path31" />
  <rect
     class="cls-10"
     x="265.88495"
     y="70.74501"
     width="22.67"
     height="34.720001"
     id="rect33" />
  <rect
     class="cls-8"
     x="261.16498"
     y="71.204971"
     width="27.459999"
     height="3.6900001"
     id="rect35" />
  <rect
     class="cls-8"
     x="261.45502"
     y="86.474991"
     width="27.459999"
     height="3.6900001"
     id="rect37" />
  <rect
     class="cls-8"
     x="261.19501"
     y="101.355"
     width="27.459999"
     height="3.6900001"
     id="rect39" />
  <path
     class="cls-12"
     d="m 36.545,78.525 h -1.9 m 1.9,22.07 h -0.59 -1.31 m 1.9,-20.73 h -1.9 m 0,1.55 v -1.55 m 0,19.2 v -1.7 m 1.9,1.72 h -1.9 m 1.9,-6.51 h -1.9 m 0,0.31 v 0 -0.3 m 0,3.12 v -2.8 0 m 1.9,2.83 h -1.9 m 1.9,-12.57 h -1.9 m 0,2.47 v 0 -2.47 m 1.9,3 h -1.9 m 1.9,1.46 h -1.9 m 1.9,3.43 h -1.9 m 25,-61.1 V 0.545 m 217.3,41.19 v -0.5 m -10.09,-0.18 v 0.5 m 10.09,28 v 0 m -2.7,0 v 0.09 m 2.7,-12.52 v 0.26 0.62 0 m -10.14,0.24 v 0 -0.89 m 7.39,-0.12 v 0.89 0 m -6.2,-0.77 v 0.88 0 m -61.31,104.88 h 1.58 m -7.86,8.77 h 1.57 m 6.55,-9.17 h -1.84 m -4.61,9 h -0.9 -0.77 m 6.39,-155.27 h 1.15 m -0.2,-0.28 h -1 m -6.39,-7.34 h 0.76 1.61 m 5,7.29 -0.32,-0.33 -0.52,-0.51 -0.37,-0.33 -0.12,-0.08 m -3.74,-6.19 h -2.27 m 2.27,0 -0.82,-0.92 -0.69,-0.73 -0.53,-0.52 -0.38,-0.33 -0.24,-0.17 m 10.49,13.52 -3.71,-0.05 m -0.11,140.94 3.82,-0.07 m 0,-7.81 h -0.59 m 0,-126.28 h 0.59 m -0.24,0.23 h 0.15 l 0.09,-0.21 m 0,126.25 v -0.1 l -0.13,-0.13 h -0.09 m -6.2,-141.76 h -2.9 -0.76 m 0,158.94 h 2 1.69 m 2.62,-142.71 h 1.84 m 0,125.48 h -1.73 m -2.73,8.24 h -0.6 m 0,-142 h 0.6 m -0.25,0.23 h 0.17 l 0.08,-0.21 m 0,142 v -0.1 l -0.13,-0.13 h -0.02 m 4.44,-133.81 h -1.58 m 0.11,126 h 1.47 m -1.5,1 0.68,-0.36 0.82,-0.67 m 0,-126.1 -0.14,-0.13 -0.69,-0.56 -0.53,-0.29 -0.18,-0.05 m -6.32,-6.43 h 1.67 m 0,141 h -1.67 m 1.57,-141.12 h -1.57 m 0,141.16 h 1.57 m -1.5,1 0.68,-0.36 0.82,-0.67 m 0,-141.24 -0.13,-0.12 -0.69,-0.56 -0.53,-0.3 h -0.18 m 6.35,131.4 h 3.71 m 8,-86 -0.09,0.12 -0.17,0.1 h -0.1 m -7.61,71.91 h -2 m 8.42,-72.2 v 0 0.2 0 m 0.49,-0.22 v 0.05 l 0.06,0.06 v 0.05 h 0.07 0.07 0.06 m -4.45,-0.08 v 0 0.18 m -4.93,72.28 v 0.08 0.06 0 m 2.12,-0.23 v -0.12 l -0.11,-0.36 -0.29,-0.24 h -0.38 m 8.4,-22.09 0.21,0.07 0.11,0.12 v 0.06 m -1.5,-0.23 v 0 0.22 m 0.83,-0.24 h -0.06 -0.07 -0.07 -0.06 v 0.07 0 m -4.11,0 v -0.21 0 m -2.84,-82.86 h -3.82 m 1.17,21.3 2.65,0.06 m -1,1 h 0.36 l 0.36,-0.17 0.23,-0.33 0.09,-0.47 m -1.65,0.71 v 0 l 0.06,0.05 v 0.08 0.08 0.1 m -8.59,104.89 h 3.66 m 0,-16.25 h -2 m 2,0 v -0.18 l -0.13,-0.34 v -0.07 l -0.35,-0.18 h -0.25 m 0,-0.29 v 0.09 0.07 0.07 l -0.06,0.06 h -0.06 m 3.84,-86 h 1.67 m 0.07,-2.41 v 0 l 0.06,0.06 v 0.07 0.08 0.1 m -4.67,-29.92 h -3.66 m 7.86,31.87 h -1.16 m -4,85.87 v 0.09 0.08 0.07 h -0.06 -0.06 v 0 m 5.36,-86.23 -0.14,-0.07 -0.69,-0.2 h -0.09 m 0.6,62.86 h -0.45 m -6,-70 h 0.88 1.69 m -1.65,0.72 v 0 l 0.06,0.06 v 0.07 0.08 0.1 m 0.48,0 h 0.36 l 0.36,-0.18 0.24,-0.33 0.08,-0.48 m -3.45,3.14 h 1.46 m 0.23,-2.48 v 0 h 0.06 v 0.07 0.09 0.09 m -0.47,2.11 h -1.16 m 1.16,0 -0.13,-0.06 -0.69,-0.21 h -0.09 m 1.71,70.23 h -2.18 m 9.91,-62.55 h -3.82 m 0.13,29.06 3.69,0.06 m 0,6.77 -3.69,0.07 m -0.13,20.52 3.82,0.06 m -9.89,6 2.06,0.05 m -1.43,0.54 0.61,-0.08 0.82,-0.46 m 16,-56.41 v 0 m -5.93,-0.45 v 0 0 0 h 0.08 0.08 0.07 m -0.32,50.22 v 0 0 0 h 0.08 0.08 v 0 m -9,-60.47 h -3.66 m 0.12,33.35 h 1.85 1.69 m 0,7 -3.53,0.06 m -0.13,24 h 3.66 m 1.3,2.92 1.12,-0.65 m -5.92,55.41 -0.15,0.18 v 0 m 6.45,-9 -0.15,0.2 v 0 m -8.52,-165.38 v 44.98 m 0,0 v 133 m -0.47,0.24 V 45.115 m 0,0 V 0.635 m 22.4,87.47 -2.1,0.49 -1.3,0.72 m 7.3,-0.27 -0.89,-0.45 -2.11,-0.49 m 3,-12.4 -0.89,-0.45 -2.56,-0.51 -2.55,0.51 -1.32,0.73 m 17.9,12.88 -0.69,-0.46 -0.85,-0.17 -0.85,0.17 -0.72,0.49 -0.15,0.16 m 1.52,3.64 -0.65,0.17 -0.72,0.48 -0.15,0.16 m 3.26,-0.19 -0.69,-0.45 -0.66,-0.17 m -0.39,-9.3 -0.65,0.17 -0.72,0.48 -0.15,0.16 m 3.26,-0.19 -0.69,-0.45 -0.66,-0.17 m 1.35,-3.83 -0.69,-0.46 -0.85,-0.17 -0.85,0.17 -0.72,0.49 -0.15,0.16 m 36.67,-17.12 v -4.48 m -1.22,0.07 v 4.41 m -1.21,-18.92 0.07,-0.05 0.11,-0.1 0.09,-0.11 v -0.13 -0.13 m -0.27,-0.46 v -17.23 m -3.93,-3.93 v 0 18.48 m -0.62,-0.19 v -18.55 m -1.88,19.67 v 0 l -0.06,-0.07 v -0.09 -0.08 m 0.89,-19.4 v 0 18.53 m 5.36,3.7 v 0 l 0.1,-0.15 0.08,-0.16 0.06,-0.16 v -0.15 -0.14 m -4.26,-1.85 0.06,-0.07 0.1,-0.16 0.08,-0.16 v -0.15 -0.16 -0.13 m -0.62,-0.19 v 0.94 m -2,-0.11 v 0.08 0.08 l 0.06,0.07 v 0 m 0.74,-1.12 v 0 l -0.1,0.23 -0.11,0.34 -0.06,0.28 v 0.06 m 5.8,9.87 v 0 l 0.06,0.08 v 0.11 0.14 m -4.07,-2.95 v 0 0.09 0.11 0.13 m -0.64,-0.51 v 0 0.37 m -1.12,0 v 0 l -0.11,-0.2 -0.1,-0.13 v 0 m 6.53,53 h 0.28 m -0.9,52.7 v -47.48 m -3.93,-0.84 v 52.31 m -0.62,0.26 v -52.51 m -0.49,-57.11 v 109.62 m 5.67,-114 v -0.08 -0.06 0 0 m -5.88,-2.77 v -0.16 0 m 1.94,0.39 v -0.08 -0.06 0 0 m -0.53,0 v -0.16 0 m -1.34,6.9 v 0.24 m -23.76,61.67 v 0.26 m -16.61,3 v -0.13 m -0.57,-49.44 v 0 0 m 0.6,0.1 v -0.17 m 10,0.17 v 0 -0.16 m 6.07,47.31 v 0 m -2.54,1.42 v 0 0 0 0 0 m 1.54,-1 v 0 0 h 0.05 v 0.05 0 m 0.6,-15.62 v 0.93 m 0,-5.39 v 3.22 m 0,-8 v 3.51 m 0,-8 v 3.11 m 0,-5.4 v 0.95 m 5.94,20.39 v 0 l -0.28,0.14 m 0.41,-0.55 -0.2,0.32 -0.07,0.08 m 0.48,-2.47 h -0.11 v 0 0 m -15.23,0.13 -0.23,1 m 0,-9.71 0.24,1.07 m 0,-5.7 -0.23,1 m 0,-9.71 0.25,1.08 m 4.94,19.6 v -0.14 -0.25 m 0,-16.43 v -1.09 m 0,5.54 v -2.91 m 0,7.76 v -3.31 m 0,7.76 v -2.77 m 0,5.59 v -1.14 m 0,-16.38 v -0.38 -0.08 m -10.26,23.3 v 0 m -186.29,-23.6 v -0.76 m 0,23.58 v -0.78 m 0,-22 H 0.785 m 0,22 h 33.86 M 0.785,79.235 h 33.86 m 0,20.51 H 0.785 m 33.86,-19.88 v -0.91 m 0,21 v -0.9 m 0,-19.2 H 0.785 m 0,19.2 h 33.86 M 0.785,81.935 h 33.86 m 0,14.92 H 0.785 m 33.86,-0.35 v -0.85 m 0,-12.56 v -0.86 m -33.86,13.42 h 33.86 m 0,-12.56 H 0.785 m 0,3.07 h 33.86 m 0,6.37 H 0.785 m 33.86,-6.1 v -0.2 m 0,1.46 H 0.785 m 0,3.43 h 33.86 m 0,1.48 v -0.37 m 0,-4.6 v -0.65 m 0,4.71 v -0.63 m 0,-4.89 v -0.25 0 m 0,5.14 v -3.43 m 1.9,-9.86 h -1.9 m 0,1 h 1.9 m -1.9,0.27 v -0.23 m 1.9,0.29 -1.9,-0.06 m 0,2.86 1.9,-0.08 m -1.9,0.51 v -0.43 m 1.9,0.53 -1.9,-0.1 m 0,4.2 1.9,-0.11 m -1.9,0.65 v -0.54 m 1.9,0.66 -1.9,-0.12 m 0,4.71 1.9,-0.12 m -1.9,0.66 v -0.54 m 1.9,0.66 -1.9,-0.12 m 0,4.28 1.9,-0.09 m -1.9,0.53 v -0.44 m 1.9,0.51 -1.9,-0.07 m 0,3 h 1.9 m -1.9,0.31 v -0.26 m 1.9,0.3 h -1.9 m 0,1.13 h 1.9 m -1.9,0 v 0 m 157.43,-71.39 V 0.535 M 60.285,29.975 V 0.535 m 0,61.57 v -32.13 m 59.9,16.06 0.46,2 1.3,1.68 1.94,1.13 2.29,0.39 2.3,-0.39 1.94,-1.13 1.3,-1.68 0.46,-2 -0.46,-2 -1.3,-1.69 -1.94,-1.12 -2.3,-0.4 -2.29,0.4 -1.94,1.12 -1.3,1.69 -0.46,2 m -59.9,-16.06 h 131.79 m -131.79,146.7 V 62.105 m 0,114.57 h 131.79 m 0,0 V 62.105 m -131.79,0 h 131.79 m -155.53,54.27 v -13.4 m 0,0 v -40.18 m 1.29,-1.3 v 56.18 m 10.58,-86.7 V 2.235 m 1.51,-1.51 v 29.36 m -1.51,32.72 v -31.83 m 1.51,-0.9 -1.51,0.9 m 11.27,-1 -9.76,0.1 m 0,0 v 32.1 m 10.36,-31.85 v 0 -0.07 l -0.08,-0.11 -0.13,-0.08 -0.18,-0.06 h -0.19 m 0,32.13 v -32.16 m -11.27,145 V 62.795 m 1.51,-0.62 -1.51,0.62 m 1.51,113.7 -1.51,-1.51 m 11.27,-112.88 -9.76,0.07 m 0,0 v 114.32 m 9.76,0.17 -9.76,-0.17 m 10.36,-114.14 v 0 -0.05 l -0.08,-0.08 -0.13,-0.06 h -0.18 -0.19 m 0,114.56 V 62.105 m 0.6,114 v 0 0.13 l -0.08,0.18 -0.13,0.15 -0.18,0.09 h -0.19 m 211.19,-66.3 v 5.69 m 0,0 v 3.19 m -4.16,-12.9 v 0 10.8 m 0,0 v 6.1 m 4.16,-88.58 v 6.48 m -4.16,-10.48 v 10.43 m -64.55,83 v 5 m 0,0 v 3.87 m 75.69,-90.84 v 0.32 m 0,27.09 v 0.17 l -0.05,0.16 -0.08,0.16 -0.11,0.13 -0.13,0.11 -0.15,0.09 -0.16,0.05 h -0.18 m 0.88,-0.93 v 0 m 0,0 h -0.99 m 0,0.89 h -2.7 m 2.7,-0.94 v 0.89 m -2.7,-0.84 h 2.7 m -7.72,1 h 0.6 m 2.67,0 h 1.75 m 0,-0.89 v 0.89 m 0,-0.89 h -0.87 m 4.45,-27.17 v 12 m -0.88,-12.67 h 0.18 0.16 l 0.15,0.07 0.13,0.09 0.11,0.11 0.08,0.13 0.05,0.14 v 0.14 m -0.88,11.31 v -12 m 0,0 -10.09,-0.15 m 0,0 v 12 m -0.9,-11.31 v -0.03 l 0.06,-0.14 0.08,-0.13 0.11,-0.12 0.14,-0.09 0.16,-0.06 h 0.17 0.17 m 11,12.94 v 0.48 m -0.88,-1.22 h 0.18 0.16 l 0.15,0.07 0.13,0.09 0.11,0.11 0.08,0.13 0.05,0.14 v 0.14 m -0.88,-0.21 v -0.53 m 0,0 -10.09,-0.15 m 0,0 v 0.6 m -0.9,0.14 v -0.19 l 0.06,-0.14 0.08,-0.13 0.11,-0.12 0.14,-0.09 0.16,-0.06 0.17,-0.05 h 0.17 m 11,3.46 h -0.88 m 0.88,-2.09 v 2.09 m 0,-2.09 v -0.13 l -0.05,-0.13 -0.08,-0.12 -0.11,-0.11 -0.13,-0.08 -0.15,-0.07 h -0.16 -0.2 m 0.88,0.69 h -0.88 m -3.57,14.64 v 0.17 0.16 l -0.08,0.16 -0.11,0.13 -0.13,0.11 -0.15,0.08 -0.17,0.06 h -0.17 m 0.88,-0.89 h -0.88 m 0.88,-5 v 5 m -0.88,0.89 h -2.67 m 2.67,-0.93 v 0.89 m -3.58,-0.85 v 0.18 0.17 l 0.09,0.15 0.11,0.14 0.14,0.11 0.16,0.08 0.17,0.05 h 0.17 m 0,-0.89 v 0.88 0 m -0.91,-8.57 v -0.93 m 0.91,8.61 h -0.88 m 8,-15.37 v 0.69 m -10.09,-0.77 h 1.78 l 7.13,0.06 h 1.18 m -11,3 h 0.9 m 0,-3.1 h -0.17 -0.17 l -0.16,0.06 -0.14,0.08 -0.11,0.11 -0.08,0.12 -0.06,0.13 v 0.14 m 0,0 h 0.9 m 0,-0.69 v 0.69 m 5.64,6 h 0.88 m -3.55,0.18 h -0.88 m 5.33,-3.86 h -0.13 l -0.4,0.14 -0.4,0.3 -0.4,0.6 -0.28,0.84 -0.14,1.79 m 1.75,-3.68 1.09,-0.05 1.61,-0.07 m 0,0 v -2.09 m 0,0 -10.09,-0.08 m 0,0 v 2.41 m 0,0 h 1.22 m 1.75,3.74 -0.19,-2.08 -0.36,-0.88 -0.4,-0.47 -0.37,-0.22 -0.43,-0.09 m 1.75,3.74 v 8.61 m 0,0 h 2.67 m 0,0 v -8.75 m 0.88,3.74 v -4.21 m 8.44,-3.85 v 12.11 m -8,-10.2 v 11 m 7.18,0 v 0 -13.7 m -151.31,-7.5 v -0.4 l -0.09,-0.39 -0.15,-0.38 -0.21,-0.36 -0.25,-0.33 -0.31,-0.3 -0.34,-0.27 -0.39,-0.22 m 0,0 -0.41,-0.18 -0.44,-0.12 -0.45,-0.08 h -0.47 -0.46 l -0.45,0.08 -0.44,0.12 -0.41,0.18 m 0,0 -0.39,0.22 -0.34,0.27 -0.31,0.3 -0.26,0.33 -0.2,0.36 -0.15,0.38 -0.09,0.39 v 0.4 m 1.77,-2.65 -1.77,0.88 m 3.53,-1.76 -1.76,0.88 m 1.76,-3.09 -1.54,1 -1.14,0.5 -0.85,0.23 m 7.07,0 -1.55,-0.51 -1.14,-0.64 -0.85,-0.62 m 0,2.21 v -2.21 m 1.77,3.09 -1.77,-0.88 m 3.54,1.76 -1.77,-0.88 m -5.3,-1.32 v 3.53 m 7.07,0 v -3.52 m -7.07,3.53 1.55,1 1.14,0.5 0.84,0.23 m 0,0 1.55,-0.51 1.14,-0.64 0.85,-0.62 m -3.54,-5.3 h -0.53 l -0.52,0.09 -0.51,0.15 -0.48,0.2 -0.44,0.26 -0.4,0.3 -0.35,0.35 -0.3,0.39 m 7.07,0 -0.3,-0.39 -0.35,-0.35 -0.4,-0.3 -0.45,-0.26 -0.47,-0.2 -0.51,-0.15 -0.52,-0.09 h -0.54 m 3.54,5.3 0.23,-0.42 0.18,-0.43 0.1,-0.46 v -0.46 -0.46 l -0.1,-0.45 -0.18,-0.44 -0.23,-0.41 m -3.54,5.3 h 0.54 l 0.52,-0.09 0.51,-0.15 0.47,-0.21 0.45,-0.25 0.4,-0.31 0.35,-0.35 0.3,-0.38 m -7.07,0 0.3,0.38 0.35,0.35 0.4,0.31 0.44,0.25 0.48,0.21 0.51,0.15 0.52,0.09 h 0.53 m -3.53,-5.3 -0.24,0.41 -0.17,0.44 -0.1,0.45 v 0.46 0.46 l 0.1,0.46 0.17,0.43 0.24,0.42 m 3.53,3.19 2.2,-0.37 1.86,-1.08 1.24,-1.61 0.43,-1.9 -0.43,-1.9 -1.24,-1.61 -1.86,-1.07 -2.2,-0.38 -2.19,0.38 -1.86,1.07 -1.24,1.61 -0.44,1.9 0.44,1.9 1.24,1.61 1.86,1.08 2.19,0.37 m 82.18,112.15 0.26,-0.37 m -6.55,9.17 0.1,-0.15 m 6.45,-9 0.09,0.07 0.09,0.06 0.08,0.06 h 0.07 0.06 v 0 0 0 m -0.47,-0.35 0.76,-0.85 0.54,-0.59 0.36,-0.42 0.23,-0.28 0.09,-0.12 m -8.43,11.28 0.1,0.07 0.08,0.06 0.09,0.06 h 0.07 l 0.06,0.05 v 0 0 0 m -0.47,-0.35 0.77,-0.85 0.54,-0.6 0.36,-0.41 0.24,-0.28 0.08,-0.11 m 4.2,-6.4 0.09,0.06 0.09,0.07 0.08,0.06 h 0.07 0.06 v 0 0 0 m -2.52,1.84 v 0 l 0.14,-0.13 v 0 l 0.35,-0.37 0.68,-0.74 0.82,-0.9 m -6.29,8.8 0.09,0.06 0.09,0.07 0.08,0.06 0.07,0.05 h 0.06 v 0 0 0 m -2.51,1.84 v 0 l 0.15,-0.14 v 0 l 0.35,-0.37 0.68,-0.74 0.82,-0.9 m 6,-155.38 -0.2,-0.28 m -5,-7.29 -0.1,-0.15 m 5.74,7.14 v 0 0.06 0.07 0.08 l -0.08,0.09 -0.09,0.08 -0.1,0.08 -0.1,0.07 m 2.56,3.13 v 0 l -0.11,-0.22 -0.29,-0.41 -0.5,-0.62 -0.82,-0.94 -0.83,-0.9 m -4.7,-7.78 h -0.11 -0.06 -0.06 -0.08 l -0.08,0.05 h -0.08 m 1.29,1.72 v -0.05 l -0.13,-0.24 v -0.07 l -0.35,-0.47 -0.74,-0.89 m 5.45,6.73 v 0 0.06 0.07 l -0.06,0.08 -0.07,0.08 -0.09,0.09 -0.09,0.07 -0.11,0.07 m -4.6,-7.64 h -0.06 v 0 h -0.06 -0.06 -0.08 -0.08 l -0.08,0.05 m 7.83,151.67 h 0.13 0.07 0.06 0.06 0.06 v 0 -0.05 m -0.47,-140.58 h 0.07 0.06 0.07 0.06 0.06 0.06 v 0 0.05 m -0.47,6.52 v -6.76 m 0,140.82 v -7.81 m -3.58,14.4 0.08,-0.14 v -0.16 -0.16 -0.15 l -0.05,-0.08 m 0,-151.52 0.08,0.14 v 0.16 0 m 2.18,11.06 v 0.08 m 1.51,0.91 h 0.13 0.07 0.06 0.06 0.06 v 0 0 m -2,126.95 v 0.07 m 1.53,-1 h 0.13 0.07 0.06 0.06 0.06 v 0 0 m -6.91,17.06 h 0.13 0.07 0.06 0.06 0.06 0.05 v -0.05 m -0.47,0.25 v -9 m 0,-149.86 h 0.13 0.07 0.06 0.06 0.06 0.05 v 0.05 m -0.47,7.62 v -7.87 m 4.64,14.43 v 0 0 m 0,128.72 v 0 0 m -0.44,-1.38 0.26,-0.31 m 0,-125.48 -0.26,-0.31 m 0.73,-0.28 v 0.06 0.07 0.08 l -0.06,0.08 -0.07,0.09 -0.08,0.07 -0.09,0.08 -0.09,0.06 m -8.12,148.22 0.07,-0.14 v -0.16 -0.16 l -0.05,-0.15 v -0.08 m 10.1,-144.53 v -0.15 l -0.13,-0.43 v -0.12 l -0.37,-0.63 -0.59,-0.79 -0.82,-0.88 m -8.01,-21.34 0.07,0.15 v 0.15 0.16 l -0.05,0.15 v 0.08 m 8.12,146.37 0.09,0.06 0.09,0.07 0.08,0.08 0.07,0.08 0.06,0.08 v 0.08 0.07 0.07 m -0.47,-0.59 0.76,-0.81 0.54,-0.69 0.36,-0.58 0.23,-0.51 0.09,-0.41 m -8,-131.73 v 0 0.05 m 1.52,0.91 h 0.07 0.06 0.07 0.06 0.06 0.06 0.05 v 0.05 m -2,142.69 v 0 0 m 1.54,-1 h 0.13 0.07 0.06 0.06 0.06 l 0.05,-0.05 v 0 m 3.73,-7.72 0.09,0.06 0.09,0.08 0.08,0.07 0.07,0.09 0.06,0.08 v 0.08 0.07 0.21 m 0,-127.29 v 0.07 0.07 0.08 l -0.06,0.08 -0.07,0.08 -0.08,0.08 -0.09,0.07 -0.09,0.07 m -5.84,-9.06 v 0.07 m 0,144.07 v 0.08 m -0.35,-142.61 -0.1,-0.12 m 0,141.24 0.1,-0.13 m 0.47,-141.58 v 0.06 0.08 0.08 l -0.06,0.08 -0.07,0.08 -0.09,0.08 -0.08,0.07 -0.1,0.06 m 2,3 v -0.16 l -0.13,-0.43 -0.06,-0.12 -0.36,-0.63 -0.6,-0.79 -0.82,-0.88 m 0,141 0.1,0.06 0.08,0.08 0.09,0.08 0.07,0.08 0.06,0.08 v 0.08 0.07 0.06 m -0.47,-0.59 0.77,-0.81 0.54,-0.69 0.36,-0.58 0.24,-0.51 0.08,-0.41 m -2.09,3.13 0.09,0.06 0.09,0.07 0.08,0.08 0.07,0.08 0.06,0.08 v 0.08 0.08 0.06 m 0,-142.42 v 0.06 0.07 0.08 l -0.06,0.08 -0.07,0.09 -0.08,0.07 -0.09,0.08 -0.09,0.06 m 8.53,130.36 h 0.13 0.07 0.06 0.06 0.06 v 0 0 m -0.47,0.21 v -14.1 m -2.12,0.23 v 0 m 2.12,-0.24 h 0.13 0.07 0.06 0.06 0.06 v 0 0 m 7.72,-22.4 v -0.86 m -8.19,-82.18 h 0.13 0.07 0.06 0.06 0.06 v 0 0.05 m -0.47,21.13 v -21.33 m -2.28,105.9 v 0.07 0.07 0 m -1.49,3.36 0.08,-0.09 v -0.1 0 m 13.39,-65.8 v 0.11 0.1 0.1 l -0.06,0.08 -0.08,0.08 -0.09,0.06 h -0.1 -0.11 m 0.53,29 v -0.11 -0.1 -0.1 l -0.06,-0.08 -0.08,-0.08 -0.09,-0.06 h -0.1 -0.11 m -2.73,-15.18 0.15,0.21 0.11,0.23 0.06,0.25 v 0.26 0.26 l -0.06,0.25 -0.11,0.23 -0.15,0.21 m -4.16,-26.17 v 0.11 0.12 0.1 l 0.08,0.09 0.08,0.07 0.1,0.06 h 0.12 0.11 m 4.77,0.09 h 0.11 0.11 0.1 l 0.09,0.07 0.07,0.09 0.06,0.11 v 0.11 0.11 m -0.58,-0.59 v 0 0.37 m -4.76,-0.46 4.77,0.09 m -4.77,-0.09 v 0 m -0.54,-0.39 0.1,0.17 0.15,0.12 0.19,0.08 h 0.09 v 0 m 0,0 v 0 l -0.15,0.07 -0.1,0.11 v 0.1 0.05 m -2.25,-12.33 h 0.2 0.06 0.06 0.06 v 0 0 m -6.91,105.76 h 0.07 0.06 0.07 0.06 0.06 0.06 0.05 v 0 m 13.59,-82.37 0.16,-0.13 0.18,-0.12 0.19,-0.1 0.19,-0.09 0.19,-0.07 0.21,-0.06 0.2,-0.05 h 0.21 m -15.59,83.23 v -16.41 m 8.7,-27.53 v -0.12 -0.1 -0.11 l 0.08,-0.09 0.08,-0.07 0.1,-0.06 h 0.12 0.11 m -9.28,28.12 h 0.13 0.07 0.06 0.06 0.06 0.05 v 0 m 13.58,-28 h 0.11 0.11 l 0.1,-0.05 0.09,-0.08 0.07,-0.08 0.06,-0.11 v -0.11 -0.11 m -5.35,0.63 v 0 0 m 4.77,-0.09 -4.77,0.09 m 4.76,-0.48 v 0.39 0 m -15.1,27.51 v 0 m 3.7,-115.1 0.08,0.12 v 0.13 0.05 m 7.62,73.93 v 3 m -5.88,-48.12 -0.26,-0.18 m 9.86,47.73 0.16,0.12 0.18,0.12 0.19,0.1 0.19,0.09 0.19,0.07 0.21,0.06 h 0.2 0.21 m -4.63,-2.66 v 0.52 0.5 l 0.06,0.45 0.07,0.39 0.1,0.31 0.11,0.24 0.12,0.15 h 0.12 m -2.45,10.65 0.1,-0.17 0.15,-0.12 0.19,-0.08 h 0.1 m -0.28,-0.35 v 0.13 0 l 0.1,0.11 0.15,0.08 m 2.76,-36.87 0.09,-0.4 0.13,-0.38 0.15,-0.32 0.18,-0.28 0.2,-0.23 0.21,-0.17 0.23,-0.1 h 0.23 m -3.07,2.94 v -2.92 m -1.1,25.36 v 3 m 0,-28.31 v 2.92 m 6.25,-7.29 h 0.12 0.11 l 0.1,0.06 0.09,0.07 0.07,0.09 v 0.1 0.11 0.12 m -0.6,-0.17 v -0.42 0 m -0.31,0 h 0.31 m -10.6,-16.11 v 0.11 0.1 0.11 l -0.06,0.09 -0.07,0.09 -0.08,0.08 -0.09,0.06 h -0.09 m 2,2.93 v -0.23 l -0.13,-0.57 v -0.15 l -0.37,-0.67 -0.59,-0.71 -0.82,-0.6 m 10.75,15.84 v -0.41 0 m 0,0 h -0.2 l -0.16,-0.09 -0.13,-0.14 -0.08,-0.18 v -0.14 m 0,-4.82 v 4.82 m -0.59,-0.18 h 0.33 0.09 0.07 0.06 v 0 0 m -0.59,-5 h 0.11 0.12 0.1 0.09 0.07 0.06 v 0 0 m 1.49,6 v 1 m -0.6,-1.2 h 0.23 0.1 0.09 0.08 v 0 0 0 m 0,35.88 v 0.12 0.11 0.1 l -0.07,0.09 -0.09,0.07 -0.1,0.06 h -0.11 -0.12 m 0,0 h -0.31 m 0.31,0 v 0 -0.44 m -11.21,-54.51 h 0.15 0.07 m 4.75,22.2 h -0.11 -0.12 l -0.1,0.06 -0.08,0.07 -0.08,0.09 v 0.1 0.11 0.11 m 0.58,-2.16 v 0 h -0.2 l -0.17,0.05 -0.12,0.07 m 6.75,1.34 h 0.12 0.11 l 0.1,-0.06 0.09,-0.07 0.07,-0.09 v -0.1 -0.11 0.56 m 0,-2.07 v 2 m -0.6,-2.17 h 0.33 0.09 0.08 v 0 0 0 m -0.59,2.67 h -2.07 m 2.07,0 v -2.84 m -6.52,0.12 0.08,0.64 0.2,0.57 m 0,0 v 1.58 m 0,0 h 1.1 m 0,0 h 3.08 m 1.17,33.35 v -0.21 l 0.1,-0.18 0.16,-0.13 0.18,-0.07 h 0.11 m 0,-0.45 v 0.44 0 m -1.16,-32.12 -1.13,1.09 -0.32,0.4 m 1.45,-1.49 v 0 h -0.07 l -0.25,0.14 -1.15,0.73 -0.53,0.37 m 0,0 -1.18,0.74 -0.47,0.28 m 2.47,10.32 v 0 l -0.06,0.05 -0.1,0.09 -0.14,0.12 -0.17,0.14 -0.19,0.17 -0.21,0.18 -0.22,0.18 m 4.37,17.94 v 0 0 0 h -0.08 -0.09 -0.1 -0.23 m 0.6,-1.25 v 1.1 m -7.12,-34.9 6.52,-0.12 m 0,0 v -1 m 0,0 h -0.31 m -1.17,-1.19 v 0.29 l 0.16,0.36 0.26,0.29 0.34,0.18 0.38,0.07 m -1.17,-1.19 v -4.86 m 0,0 -5,-0.09 m 7.12,39.1 v -0.12 -0.11 -0.1 l -0.07,-0.09 -0.09,-0.07 -0.1,-0.06 h -0.11 -0.12 m 0.59,2.6 v 0 0 0 h -0.08 -0.09 -0.1 -0.23 m 0.6,-2.13 v 2 m -5.77,-5.65 0.61,0.38 m 0,0 0.52,0.35 1.12,0.75 0.93,0.6 0.43,0.26 h 0.07 v 0 m -1.39,-1.41 0.26,0.31 1.13,1.1 m -2.49,-13.14 0.22,0.18 0.21,0.18 0.19,0.17 0.17,0.14 0.14,0.12 0.1,0.09 h 0.06 v 0 m -3.6,13.28 h -0.11 -0.12 l -0.1,-0.06 -0.08,-0.07 -0.08,-0.09 v -0.1 -0.11 -0.12 m 6.82,3.43 v -2.73 m -3.93,-0.06 3.93,0.06 m -3.93,-0.06 h -1.26 m 0,0 h -1.06 m 0,0 v 1.51 m -0.76,-32.68 v 0 h 0.44 m 0,-7.3 v 7.3 m -0.48,-7.4 v 0 0 h 0.06 0.33 m 0.28,39.91 v 0 h -0.2 l -0.17,-0.06 -0.12,-0.07 m 0.5,0.18 -0.2,0.57 -0.08,0.64 m -9,-82.84 h 0.13 0.07 0.06 0.06 0.06 0.05 v 0.05 m -0.47,24.26 v -24.3 m 14.71,85.14 v 4.81 m -0.59,0.2 h 0.23 0.1 0.09 0.07 0.06 v 0 0 m -0.59,-4.66 h 0.23 0.1 0.09 0.07 0.06 v 0 0 m -15.79,32.95 v 0 m 5.86,-86.93 v 0.11 0.1 0.11 l -0.06,0.09 -0.07,0.09 -0.08,0.08 -0.09,0.06 -0.09,0.05 m 11,52.23 h 0.31 m 0,0 v -1.12 m 0,0 -6.52,-0.11 m 0,7.37 5,-0.08 m 0,0 v -4.86 m 1.17,-1.2 h -0.21 l -0.37,0.15 -0.31,0.26 -0.21,0.36 -0.07,0.41 m -10.16,9.17 0.65,-0.17 0.7,-0.44 0.53,-0.54 0.37,-0.56 0.23,-0.6 0.08,-0.61 m 2.56,-8.68 h -0.48 m 0.48,7.32 h -0.39 v 0 0 m 0.48,-7.46 v 7.37 m -5.12,4.23 h 0.1 0.1 l 0.09,0.07 0.08,0.09 v 0.11 0.12 0.13 -0.02 m -0.67,-0.68 h 0.2 m 6.51,-39.73 v 0 h -1.06 m 0,22.42 h 1.07 m 0,0 -0.69,-1.86 -0.32,-2 0.06,-2 0.43,-1.94 0.79,-1.82 1.13,-1.63 m 0,0 -1.14,-1.65 -0.79,-1.83 -0.43,-2 v -2 l 0.34,-2 0.71,-1.87 m -10.39,-30.24 h 0.13 0.07 0.06 0.06 0.06 0.05 v 0 m 3,69.86 h 0.26 m 5.6,-39.75 h -0.58 m 0.58,22.42 h -0.58 m 0.58,-22.42 v 22.72 m -12.94,-81.78 0.07,0.12 v 0.13 0 m 1.56,31.93 -0.1,-0.07 m 5.77,67 h 0.11 0.09 l 0.09,0.07 0.07,0.1 0.06,0.1 v 0.12 0.13 0.12 m -0.71,-0.74 h 0.23 m -5.2,-67.56 v 0.1 0.11 0.1 l -0.06,0.1 -0.07,0.09 -0.09,0.08 -0.08,0.06 h -0.1 m 2,2.94 v -0.23 l -0.13,-0.57 -0.06,-0.15 -0.36,-0.68 -0.6,-0.7 -0.82,-0.61 m 6.45,38.59 0.76,-0.15 0.54,-0.34 0.36,-0.44 0.23,-0.54 0.09,-0.62 m -8.42,-39 h 0.07 0.08 0.07 m 6.22,41.07 h 0.09 0.09 0.08 l 0.07,0.07 0.06,0.09 v 0.1 0.12 0.11 m -0.73,-0.6 h 0.26 m 0,2.6 h -0.26 m 0.73,-0.59 v 0.11 0.11 0.1 l -0.06,0.09 -0.07,0.07 -0.08,0.06 h -0.09 -0.09 m 2,2.08 v -0.25 l -0.13,-0.56 v -0.13 l -0.37,-0.54 -0.59,-0.43 -0.82,-0.17 m -5.85,28.82 0.1,-0.1 m -0.33,-70.66 v 0.1 0.11 0.1 l -0.06,0.1 -0.07,0.09 -0.08,0.08 -0.09,0.06 h -0.09 m 0.8,70 h 0.08 l 0.08,0.05 0.08,0.07 0.06,0.07 0.06,0.08 v 0.08 0.08 0.08 m -0.47,-0.56 0.07,-0.06 0.53,-0.55 0.37,-0.57 0.23,-0.6 0.09,-0.62 m 4.67,-26.91 v 0.12 0.11 0.1 l -0.06,0.09 -0.07,0.07 -0.08,0.05 h -0.09 -0.09 m 2.24,-4.69 h 0.47 m -0.47,-29.17 h 0.26 0.06 0.06 v 0 0 m -2.84,31.66 h 0.09 0.09 l 0.08,0.06 0.07,0.07 0.06,0.09 v 0.1 0.11 0.11 m 1.77,-2.67 v -29.06 m 0,56.57 h 0.38 v 0 0 m -0.47,-20.56 h 0.47 m -0.47,20.66 v -20.75 m -7.83,26.74 h 0.08 l 0.08,0.05 0.08,0.07 0.06,0.07 0.06,0.08 v 0.08 0.08 0.08 m -1.7,17.21 2,-0.33 3,-2 2.25,-2.46 1.94,-3.06 1,-2.37 0.52,-2.26 v -2.22 l -0.62,-1.72 -1.28,-1.25 -2.59,-0.39 -1.6,0.49 m -3.94,-31.72 0.77,-0.16 0.54,-0.34 0.36,-0.44 0.24,-0.54 0.08,-0.62 m -2,2.1 h 0.1 0.08 l 0.09,0.06 0.07,0.07 0.06,0.09 v 0.1 0.11 0.12 m -0.57,-0.6 h 0.1 m 0,2.82 h -0.1 m 0.57,-0.59 v 0.11 0.11 0.11 l -0.06,0.08 -0.07,0.08 -0.09,0.05 h -0.08 -0.1 m 2,2.09 v -0.26 l -0.13,-0.55 -0.06,-0.14 -0.36,-0.53 -0.6,-0.44 -0.82,-0.17 m 0.37,-0.59 v 0.12 0.11 0.1 l -0.06,0.09 -0.07,0.07 -0.08,0.05 h -0.09 -0.09 m 0,-2.83 h 0.09 0.09 l 0.08,0.06 0.07,0.07 0.06,0.09 v 0.1 0.11 0.12 m 1.62,-2.69 h 0.47 m -0.47,-33.45 h 0.2 0.06 0.06 0.06 0.05 v 0 m -0.47,33.32 v -33.07 m 0,64.57 h 0.32 0.06 0.05 v 0 m -0.47,-24 h 0.47 m -0.47,24.13 v -24.25 m 8.7,-29.94 v 0 m 0,0 v -0.1 -0.13 m 0,-41.55 v 41.55 m 0,50.41 v 44.58 m 0,-44.58 v -0.11 -0.1 0 m 0,0 v 0 m 0,0 -0.05,-0.07 -0.1,-0.23 v -0.3 m 0,0 v -7.41 m 0,0 0.08,-0.8 0.1,-0.4 0.08,-0.24 m 0,0 v 0 -0.08 -0.16 0 m 0,-30.4 v 30.21 m 0,-30.4 v -0.17 -0.09 -0.05 0 m 0,0 -0.08,-0.25 -0.1,-0.39 -0.08,-0.81 m 0,0 v -7.33 m 0,0 v -0.29 l 0.1,-0.22 0.05,-0.06 m -4.54,-47.42 0.19,0.26 m 0,0 0.83,1.13 0.81,1.19 0.51,0.78 0.29,0.52 0.12,0.29 v 0 m 0,0 v 6.74 m 0,0 -0.08,0.27 h -0.24 l -0.37,-0.17 -0.53,-0.43 -0.76,-0.83 m 0,0 -0.26,-0.32 m 0,0 -0.82,-1.12 -0.68,-1.19 -0.35,-0.78 -0.18,-0.65 v -0.17 m 0,0 v -7.26 m 0,0 h 0.08 l 0.24,0.2 0.37,0.42 0.52,0.66 0.33,0.42 m -5.08,-7.08 0.1,0.14 m 0,0 0.63,1 0.11,0.17 0.35,0.59 0.19,0.4 v 0.07 m 0,0 v 7.84 m 0,0 -0.09,0.27 h -0.23 l -0.36,-0.17 -0.54,-0.44 -0.77,-0.83 m 0,0 -0.1,-0.13 m 0,0 -0.82,-1.12 -0.68,-1.18 -0.35,-0.79 -0.18,-0.64 v -0.17 m 0,0 v -8.41 m 0,0 h 0.08 l 0.24,0.21 0.37,0.42 0.54,0.67 0.69,0.93 0.82,1.17 m 9.45,12.46 v 0 l -0.48,-0.6 -1,-1.18 -1.88,-2.41 -2.19,-2.94 -2.71,-3.79 -2.66,-3.89 -1.62,-2.46 -0.73,-1.59 -0.08,-0.13 m 0,0 -0.21,-0.34 m 10,24.22 0.26,0.32 m 0,0 0.82,1.11 0.59,1 0.36,0.8 0.2,0.69 v 0.2 m 0,0 v 21.26 m 0,0 -0.08,0.61 -0.24,0.41 -0.37,0.23 h -0.53 l -0.76,-0.36 m 0,0 -0.26,-0.19 m 0,0 -0.82,-0.8 -0.68,-1.1 -0.35,-0.9 -0.18,-0.91 v -0.28 m 0,0 v -23 m 0,0 0.08,-0.35 0.24,-0.11 0.37,0.11 0.53,0.38 0.69,0.71 0.14,0.16 m -6.29,-7.56 0.1,0.12 m 0,0 0.83,1.11 0.59,1 0.36,0.8 0.2,0.7 v 0.2 m 0,0 v 24.4 m 0,0 -0.09,0.6 -0.23,0.42 -0.36,0.23 h -0.54 l -0.77,-0.37 m 0,0 -0.1,-0.08 m 0,0 -0.82,-0.8 -0.68,-1.1 -0.35,-0.89 -0.18,-0.91 v -0.28 m 0,0 v -26.1 m 0,0 0.08,-0.35 0.24,-0.11 0.37,0.12 0.53,0.38 0.69,0.71 0.13,0.16 m 0,30.57 0.1,0.07 m 0,0 0.83,0.77 0.59,0.9 0.36,0.85 0.2,0.91 v 0.31 m 0,0 v 33.33 m 0,0 -0.09,0.79 -0.23,0.68 -0.36,0.57 -0.54,0.44 -0.77,0.2 m 0,0 h -0.1 m 0,0 -0.82,-0.27 -0.68,-0.72 -0.35,-0.76 -0.18,-0.93 v -0.32 m 0,0 v -35.62 m 0,0 0.08,-0.68 0.24,-0.49 0.37,-0.3 0.53,-0.07 0.69,0.25 0.13,0.09 m 6.29,4.3 0.26,0.18 m 0,0 0.82,0.77 0.59,0.9 0.36,0.86 0.2,0.91 v 0.3 m 0,0 v 29.07 m 0,0 -0.08,0.78 -0.24,0.68 -0.37,0.57 -0.53,0.44 -0.76,0.19 m 0,0 h -0.26 m 0,0 -0.82,-0.26 -0.68,-0.72 -0.35,-0.76 -0.18,-0.93 v -0.33 m 0,0 v -31.4 m 0,0 0.08,-0.68 0.24,-0.5 0.37,-0.31 0.53,-0.07 0.69,0.25 0.14,0.09 m -6.29,37.16 h 0.1 m 0,0 0.83,0.23 0.59,0.55 0.36,0.68 0.2,0.88 v 0.33 m 0,0 v 24 m 0,0 -0.09,0.78 -0.23,0.77 -0.37,0.73 -0.53,0.7 -0.07,0.06 m 0,0 -0.1,0.1 m 0,0 -0.82,0.6 -0.77,0.12 -0.67,-0.35 -0.32,-0.55 -0.15,-0.78 v -0.21 m 0,0 v -25.7 m 0,0 0.08,-0.83 0.24,-0.74 0.37,-0.64 0.53,-0.51 0.69,-0.26 h 0.13 m 6.29,-0.11 h 0.26 m 0,0 0.82,0.22 0.59,0.55 0.36,0.69 0.2,0.88 v 0.32 m 0,0 v 20.57 m 0,0 -0.08,0.78 -0.24,0.77 -0.36,0.72 -0.53,0.68 -0.7,0.56 -0.65,0.22 m 0,0 h -0.19 m 0,0 -0.77,-0.12 -0.44,-0.44 -0.28,-0.73 -0.05,-0.6 m 0,0 v -22.05 m 0,0 0.08,-0.84 0.24,-0.75 0.37,-0.64 0.53,-0.51 0.69,-0.26 h 0.14 m -2.25,29.18 1.6,-0.53 2.59,0.43 1.29,1.35 0.61,1.84 v 2.37 l -0.52,2.42 -1,2.53 -1.93,3.26 -2.25,2.62 -3,2.15 -2.56,0.44 -1.47,-0.85 -0.93,-2 -0.2,-2.49 0.35,-2.63 0.8,-2.71 1.28,-2.75 1.8,-2.63 2.35,-2.19 v 0 m -2.22,19.71 h 0.1 m 0,0 0.63,-0.13 h 0.11 l 0.35,0.24 0.19,0.51 v 0.23 m 0,0 v 16.2 m 0,0 -0.09,0.52 -0.23,0.64 -0.36,0.74 -0.54,0.87 -0.77,1 m 0,0 -0.1,0.13 m 0,0 -0.82,0.86 -0.68,0.46 h -0.35 l -0.18,-0.27 v -0.16 m 0,0 v -17.28 m 0,0 0.08,-0.72 0.24,-0.78 0.37,-0.82 0.54,-0.86 0.69,-0.79 0.82,-0.58 m -0.7,21.78 0.1,-0.12 m 0,0 0.83,-0.89 0.59,-0.45 0.36,-0.11 0.2,0.18 v 0.13 m 0,0 v 8.94 m 0,0 -0.09,0.15 -0.23,0.34 -0.36,0.53 -0.54,0.75 -0.77,1.08 m 0,0 -0.1,0.14 m 0,0 -0.82,1.14 -0.68,0.95 -0.35,0.47 v 0 m -0.16,0.18 v -9.54 m 0,0 0.08,-0.49 0.24,-0.64 0.37,-0.76 0.53,-0.89 0.69,-1 0.13,-0.17 m 5.78,-25.87 0.19,-0.24 m 0,0 0.83,-0.79 0.81,-0.4 h 0.51 l 0.29,0.3 0.12,0.47 v 0.15 m 0,0 v 13.83 m 0,0 -0.08,0.52 -0.24,0.65 -0.37,0.73 -0.53,0.88 -0.76,1 m 0,0 -0.26,0.31 m 0,0 -0.82,0.86 -0.68,0.46 h -0.35 l -0.18,-0.27 v -0.16 m 0,0 v -14.68 m 0,0 0.08,-0.71 0.24,-0.77 0.37,-0.81 0.52,-0.85 0.33,-0.4 m 0.51,18.2 0.26,-0.32 m 0,0 0.82,-0.89 0.59,-0.45 0.36,-0.11 0.2,0.18 v 0.13 m 0,0 v 7.75 m 0,0 -0.08,0.15 -0.24,0.35 -0.37,0.52 -0.53,0.75 -0.76,1.08 m 0,0 -0.26,0.36 m 0,0 -0.82,1.15 -0.68,0.94 -0.35,0.47 v 0 m -0.17,0.2 v -8.41 m 0,0 0.08,-0.49 0.24,-0.64 0.37,-0.75 0.53,-0.89 0.69,-1 0.14,-0.17 m -16.75,24.68 V 45.065 m 0,0 V 0.535 m 28.56,100.93 2.56,-0.51 2.17,-1.45 1.44,-2.16 0.51,-2.56 -0.51,-2.56 -1.44,-2.16 -2.17,-1.45 -2.56,-0.51 -2.55,0.51 -2.17,1.45 -1.45,2.16 -0.5,2.56 0.5,2.56 1.45,2.16 2.17,1.45 2.55,0.51 m 0,-13.35 2.56,-0.5 2.17,-1.45 1.44,-2.17 0.51,-2.55 -0.51,-2.56 -1.44,-2.17 -2.17,-1.45 -2.56,-0.5 -2.55,0.5 -2.17,1.45 -1.45,2.17 -0.5,2.56 0.5,2.55 1.45,2.17 2.17,1.45 2.55,0.5 m 12.49,4.59 0.85,-0.17 0.72,-0.48 0.48,-0.72 0.17,-0.85 -0.17,-0.86 -0.48,-0.72 -0.72,-0.48 -0.85,-0.17 -0.85,0.17 -0.72,0.48 -0.49,0.72 -0.17,0.86 0.17,0.85 0.49,0.72 0.72,0.48 0.85,0.17 m 0,4.46 0.85,-0.17 0.72,-0.49 0.48,-0.72 0.17,-0.85 -0.17,-0.85 -0.48,-0.73 -0.72,-0.48 -0.85,-0.17 -0.85,0.17 -0.72,0.48 -0.49,0.73 -0.17,0.85 0.17,0.85 0.49,0.72 0.72,0.49 0.85,0.17 m 0,-9.31 0.85,-0.16 0.72,-0.49 0.48,-0.72 0.17,-0.85 -0.17,-0.85 -0.48,-0.72 -0.72,-0.49 -0.85,-0.17 -0.85,0.17 -0.72,0.49 -0.49,0.72 -0.17,0.85 0.17,0.85 0.49,0.72 0.72,0.49 0.85,0.16 m 0,-4.45 0.85,-0.17 0.72,-0.48 0.48,-0.72 0.17,-0.85 -0.17,-0.85 -0.48,-0.73 -0.72,-0.48 -0.85,-0.17 -0.85,0.17 -0.72,0.48 -0.49,0.73 -0.17,0.85 0.17,0.85 0.49,0.72 0.72,0.48 0.85,0.17 m 8.07,-7.42 v 0 m -0.47,-1.51 h 0.08 m -0.11,-0.07 h 0.09 m 48.79,8.64 h -0.74 m 0.74,0 h -0.74 m -19,-12.23 h -0.17 -0.17 l -0.15,-0.08 -0.08,-0.07 m 0.57,0.23 h -0.17 -0.17 l -0.15,-0.08 -0.08,-0.07 m 20.32,23.57 h -0.74 m 0.74,-11.08 h -0.74 m -19,-12.26 h -0.17 -0.17 l -0.15,-0.08 -0.13,-0.11 -0.11,-0.13 -0.08,-0.16 v -0.16 -0.17 m 0,-7.29 v 7.29 m 0,-7.29 h -0.87 m 0.87,-0.63 v 0.63 m 0,-2.09 v 0.46 m -0.87,8.88 v -7.49 m 0,0 h -1.22 m 3,8.18 h -0.17 -0.17 l -0.15,-0.08 -0.13,-0.11 -0.11,-0.13 -0.08,-0.16 v -0.16 -0.17 m 0,0 h -0.87 m 0,0.89 v 0 -0.88 m -1.22,0 h 1.22 m -1.22,0.87 v 0 -0.88 m 0,0 h -1.13 m 0.87,-7.23 v 7.23 m 0,-7.23 h -0.87 m 23.59,20.44 h -0.74 m -22.85,-57.08 v 17.1 m 0,0 v 1 m -0.27,-1.52 h 0.06 l 0.06,0.05 v 0.06 0.05 0.06 0.07 0.23 m -6.83,-2.48 v 0 m 2.63,-0.64 1.26,0.86 2.67,1.82 m -4.55,-2.87 h 0.25 0.09 0.07 0.08 0.07 l 0.06,0.05 m -1.74,-0.21 h 1.12 m -2,0.83 v -0.18 l 0.08,-0.16 0.18,-0.2 0.3,-0.2 0.29,-0.11 v 0 m 29.53,45.77 v 8.47 m 0,0 h -0.74 m 0,5.19 v 2.85 m 0,-28.2 v 2.95 m -22,24.09 v -1.44 m 21.11,0.33 v 1.48 m 0,-25 v -1.48 m -21.11,1.82 v -1.34 m 22.72,7.92 v 0 m 0,0 h -0.74 m -22.83,-13 v 0 0 m 0.85,0.69 h -0.17 -0.17 l -0.15,-0.08 -0.13,-0.11 -0.11,-0.14 -0.08,-0.15 v -0.16 -0.18 m 23.59,15.75 h -0.74 m 0.74,-2.51 v 2.51 m 0,-2.51 h -0.74 m 0,-11.09 v 0 m 0,0 v -0.17 -0.17 l -0.09,-0.15 -0.1,-0.13 -0.14,-0.11 -0.15,-0.09 -0.16,-0.05 h -0.17 m -22,-19.74 v 18.48 m 0,-18.48 v -0.33 0 0 -0.05 0 h -0.06 -0.06 m 23.12,21 v -0.17 -0.17 l -0.09,-0.15 -0.1,-0.13 -0.14,-0.11 -0.15,-0.08 -0.16,-0.06 h -0.17 m -22,-1.26 v 0.18 0.16 l 0.08,0.15 0.11,0.14 0.13,0.11 0.15,0.08 h 0.17 0.17 m -0.87,-0.89 -0.06,0.1 -0.16,0.07 v 0 m 23.12,2 v 1.91 m -0.21,-2.07 v 0 0 0 0 0 0 0 m -0.87,2.8 h 0.17 l 0.16,-0.06 0.15,-0.08 0.14,-0.11 0.1,-0.13 0.09,-0.16 v -0.16 -0.17 m -0.21,-0.14 v 0 0 0 0 0 0 0 m -22.45,32.5 v 46.75 m 22,-51.7 h 0.17 l 0.16,0.06 0.15,0.08 0.14,0.11 0.1,0.14 0.09,0.15 v 0.16 0.17 m -22.81,-26.13 v -0.18 -0.16 l 0.08,-0.15 0.11,-0.14 0.13,-0.11 0.15,-0.08 h 0.17 0.17 m 21.19,29.77 h 0.17 0.16 l 0.15,-0.09 0.14,-0.11 0.1,-0.13 0.09,-0.15 v -0.17 -0.17 m 0,-13.59 v 8.62 m -0.87,0.58 h 0.17 0.16 l 0.15,-0.06 0.14,-0.07 0.1,-0.09 0.09,-0.1 v -0.11 -0.11 m 0,-22.4 v 8.73 m -0.87,-9.31 h 0.17 0.16 l 0.15,0.06 0.14,0.07 0.1,0.09 0.09,0.1 v 0.11 0.11 m -22,22.65 10.64,0.17 10.47,0.16 m 0,0 v -9.18 m 0.87,11.55 v 1.91 m -0.21,0.13 v 0 0 0 0 0 0 0 0 m -0.21,-1.79 v 0 0 h 0.07 v 0 0 0 0 m -0.87,-0.89 h 0.17 l 0.16,0.06 0.15,0.08 0.14,0.11 0.1,0.14 0.09,0.15 v 0.16 0.17 m -22,3.17 h -0.52 m -0.35,0.88 v -0.17 -0.17 l 0.08,-0.15 0.11,-0.14 0.13,-0.11 0.15,-0.08 0.17,-0.05 h 0.17 m -1.14,0.73 0.18,0.06 0.08,0.07 v 0 m 0.87,-5.32 h -0.17 l -0.17,-0.06 -0.15,-0.08 -0.13,-0.11 -0.11,-0.14 -0.08,-0.15 v -0.16 -0.18 m 22,-14.6 v -9.18 m 0,0 -10.47,0.16 -10.64,0.18 m 21.77,-4.78 v -0.14 l -0.05,-0.14 -0.06,-0.13 -0.09,-0.11 -0.09,-0.09 -0.11,-0.06 h -0.11 -0.12 m 0.87,19.42 v -1.17 m -0.87,1.3 h 0.48 0.14 0.1 0.09 v 0 0 m 0,-3.89 v 0 -1 m 0,0 v 0 0 h -0.09 -0.1 -0.14 0.11 m 0,0.76 h 0.17 l 0.16,0.05 0.15,0.08 0.14,0.11 0.1,0.14 0.09,0.15 v 0.17 0.17 m -22.85,-11 v 0.1 0.11 l 0.08,0.09 0.11,0.09 0.13,0.07 0.15,0.05 h 0.17 0.17 m 0,0 v 7.22 m 20.44,-12 v -0.14 -0.14 l -0.07,-0.13 -0.08,-0.11 -0.1,-0.09 -0.11,-0.06 h -0.11 -0.12 m -19.78,12.75 h -0.34 l -0.28,-0.05 -0.19,-0.07 -0.06,-0.07 m 0.87,0.2 0.08,0.45 0.24,0.37 m -0.32,-9.49 h -0.52 m -0.35,0.89 v -0.18 -0.16 l 0.08,-0.15 0.11,-0.14 0.13,-0.11 0.15,-0.08 h 0.17 0.17 m -0.87,24.89 v -0.1 -0.11 l 0.08,-0.09 0.11,-0.09 0.13,-0.07 h 0.15 0.17 0.17 m 0,-8.49 v 8.49 m -0.87,-8.35 v 0 0 h 0.08 0.11 0.13 0.49 m 0,-0.75 21.11,-0.37 m -21.11,1.12 v -0.74 0 m 21.11,0.39 h -1.78 l -7.12,0.12 -12.21,0.21 m 21.11,-1.12 v 0.76 m -22,0.5 v -0.17 -0.17 l 0.08,-0.15 0.11,-0.13 0.13,-0.11 0.15,-0.09 h 0.17 0.17 m 21.77,-16.5 v -1.93 m 0,0 h -1.33 m 0.67,3 h -1.33 m 1.33,0 h 0.14 l 0.14,-0.06 0.13,-0.1 0.1,-0.13 0.09,-0.16 0.05,-0.18 v -0.18 -0.19 m -1.33,0 h 1.33 m -0.34,11.41 v 0 -0.76 m -19.51,-0.33 h 0.18 l 7.12,0.12 12.21,0.21 m 0,19.55 h -1.33 m 2,-0.78 v 0.15 l -0.05,0.15 -0.07,0.13 -0.08,0.11 -0.1,0.09 -0.11,0.07 h -0.11 -0.12 m 0,-18.79 h 0.17 l 0.16,0.05 0.15,0.08 0.14,0.11 0.1,0.14 0.09,0.15 v 0.17 0.17 m -1.54,-15.29 v 2 m -0.6,-2.05 h 0.25 0.08 0.15 0.07 v 0 m -0.66,3 h 0.14 l 0.14,-0.07 0.13,-0.09 0.11,-0.14 0.08,-0.15 v -0.18 -0.19 -0.19 m -0.6,-0.07 h 0.48 0.07 v 0 m 0.67,16.11 h 0.17 0.16 l 0.15,-0.08 0.14,-0.11 0.1,-0.14 0.09,-0.15 v -0.16 -0.18 m -0.21,0 h 0.21 m 0,-1.9 v 1.9 m -0.21,-1.92 h 0.21 m -22,13.84 h -0.17 l -0.17,-0.06 -0.15,-0.08 -0.13,-0.11 -0.11,-0.14 -0.08,-0.15 v -0.16 -0.18 m 2.47,-14.18 v -0.75 m -1.28,-0.47 0.24,0.2 0.3,0.15 0.74,0.12 m -1.4,0.72 v -0.07 -0.24 -0.37 -0.51 m 0,0 h -0.45 -0.39 l -0.3,-0.06 v 0 0 m 20.65,20.53 h 0.12 0.11 l 0.11,-0.07 0.1,-0.09 0.08,-0.11 0.07,-0.13 v -0.15 -0.15 m -21.58,-4.32 h 0.07 0.14 l 0.06,0.05 m 0,-8.9 v 8.9 m -0.27,-15.07 0.14,-0.13 0.09,-0.1 v 0 -0.21 m 0,-8.44 v 8.44 m -0.27,-8.3 0.18,-0.06 0.08,-0.06 v 0 m 21.31,28.21 h 1.13 0.2 m 0,0 v -1.92 m 0,0 h -0.78 -0.55 m 0.67,-1 h 0.14 l 0.14,0.06 0.12,0.09 0.11,0.13 0.08,0.15 0.05,0.18 v 0.18 0.19 m -18.8,-31.53 v 0 m 0,0 v 0 m -1.75,0 h 1.75 m -1.75,0 h -1.22 m 0,0 v 0 m -0.52,0 h 0.52 m 19.78,0.35 h 1.75 m 0,0 v 0 m 0,0 h -1.33 m 0,0 -12.19,-0.21 -4.62,-0.08 m -3.49,-0.06 h -1.85 -0.74 m 2,-0.65 v 0.14 0.13 l 0.07,0.12 0.07,0.11 0.09,0.08 0.1,0.06 h 0.1 0.11 m 20.36,33.6 h 0.48 0.07 v 0 m 0,-2 v 2 m -0.6,-1.91 h 0.55 v 0 m 0,0 v -0.19 -0.18 -0.17 l -0.08,-0.15 -0.11,-0.13 -0.12,-0.1 -0.14,-0.06 h -0.14 m -19.78,-11 h -0.52 m -0.35,0.88 v -0.17 -0.17 l 0.08,-0.15 0.11,-0.13 0.13,-0.11 0.15,-0.09 h 0.17 0.17 m -1.14,0.89 h 0.27 m -1.27,-16 h 1.62 m -0.62,1 v -0.19 -0.19 -0.18 l 0.08,-0.15 0.09,-0.13 0.12,-0.1 0.12,-0.06 h 0.14 m -2.51,30.26 h 0.67 1.84 m -0.62,0.72 v -0.14 -0.14 l 0.06,-0.13 0.08,-0.1 0.09,-0.09 0.09,-0.07 h 0.11 0.11 m -0.62,-20.4 0.22,0.33 0.31,0.27 0.38,0.2 0.43,0.06 m 21.2,-0.03 h 0.13 l 0.12,0.05 0.11,0.08 0.1,0.11 0.09,0.13 0.06,0.15 v 0.16 0.17 m -0.66,2.81 h -0.69 -0.64 m 2,-0.92 v 0.26 0.17 l -0.07,0.15 -0.08,0.14 -0.1,0.11 -0.11,0.08 h -0.13 -0.13 m 0.66,-0.89 v -1.92 m 0,0 h -1.14 -0.19 m 0,2 h 1.15 0.18 m -22.91,-38 -1.25,-0.83 -2.68,-1.76 m 1.34,21.58 h 0.74 1.85 m 0,0 v -19.06 m 21,20.75 v -0.64 0 m -22.89,-0.4 10.7,0.19 12.19,0.21 m -23.51,-1.11 h -0.24 l -0.65,0.19 -0.35,0.33 -0.16,0.3 m 0.49,0.51 v -0.13 -0.08 l 0.17,-0.17 0.37,-0.16 0.68,-0.09 h 0.19 m -0.62,-0.71 v 0.15 0.13 l 0.06,0.12 0.08,0.11 0.09,0.08 0.09,0.07 h 0.11 0.11 m 22.89,30.61 h 1.45 m 0,0 -10.47,-0.18 -10.64,-0.19 m -0.24,0 h 0.24 m -0.52,0 h -1.71 m 1.09,-1 v 0.19 0.18 0.17 l 0.07,0.15 0.1,0.13 0.11,0.09 0.13,0.07 h 0.13 m -4.55,-52.55 v 22.41 m -0.62,-22.57 h 0.17 0.08 0.09 0.07 0.08 0.07 0.06 m 25.51,38.66 v -0.17 -0.16 l -0.06,-0.15 -0.08,-0.13 -0.1,-0.1 -0.12,-0.09 h -0.12 -0.13 m 0.66,0.87 v 2 m -0.6,-2 h 0.6 m -0.66,2.87 h 0.13 l 0.13,-0.05 0.11,-0.09 0.1,-0.11 0.09,-0.14 0.06,-0.15 v -0.17 -0.17 m -0.6,0 h 0.6 m -25.51,-18.22 v 0.44 m -0.59,-0.51 h 0.41 0.08 0.07 0.06 m 24.91,2.91 v -2 m 0,0 h -1.77 l -7.1,-0.12 -15.55,-0.27 m 24.36,3.5 v 0 -0.07 -0.11 -0.9 m -24.42,0.43 h 1.77 l 7.09,-0.12 15.56,-0.28 m -0.06,1.1 -12.23,0.21 -9.69,0.17 m 21.92,29.83 v 0 -0.68 m -0.06,0.69 -12.19,0.22 -10.62,0.18 m -1.89,-34.05 h 0.06 0.46 m 0,0 v 2.83 m 3.44,32 h -1.84 -0.66 m -1.43,-0.89 v 0.06 l 0.21,0.36 0.37,0.29 0.82,0.18 m 0,0 v -0.15 -0.13 l 0.06,-0.13 0.08,-0.11 0.09,-0.09 0.1,-0.06 h 0.1 0.11 m 0,0 -0.85,-0.09 -0.38,-0.14 -0.23,-0.18 -0.06,-0.11 v -0.07 -0.07 m -0.52,-33.52 v 2.85 m -0.59,-2.91 h 0.59 m 0,34 h -0.06 -0.07 -0.49 m 0.59,-0.51 v 0.45 m 0,-31.17 h 0.06 0.46 m 1.82,2.07 v -0.19 -0.18 -0.18 l 0.07,-0.16 0.1,-0.13 0.11,-0.09 0.13,-0.06 h 0.14 m 0,0 -1.06,-0.1 -0.69,-0.22 -0.39,-0.23 -0.21,-0.21 -0.07,-0.13 v -0.07 -0.09 m -0.52,0 v 0.47 m -0.62,-0.52 h 0.59 m 24.94,30.24 v -2 m -24.42,2.41 h 1.77 l 7.1,-0.13 15.55,-0.27 m -0.06,-18.15 h 0.66 0.67 m 0,0 -19.51,-0.34 m 0,0 h -0.65 -0.75 m 0,0 h -1.35 m 0,0 h -1.15 -0.37 m 0.91,-0.82 v 0.33 l 0.13,0.27 0.2,0.18 0.23,0.07 m -1.44,4.49 h 0.31 1.76 m -0.62,0.88 v -0.17 -0.17 l 0.06,-0.15 0.08,-0.13 0.09,-0.11 0.1,-0.08 h 0.12 0.12 m 20.36,12.08 v -0.87 -0.1 -0.07 0 m -22,-0.38 9.78,0.17 12.23,0.21 m 0.06,1.06 h -1.77 l -7.09,-0.13 -15.56,-0.27 m -0.52,2.89 h 0.52 m 0,-2.84 v 2.84 m -0.52,0.05 h -0.59 m 0.59,-2.9 v 2.85 m 0,-2.85 h 0.52 m 0,0 v -0.13 -0.09 l 0.16,-0.2 0.34,-0.23 0.63,-0.24 1,-0.12 h 0.18 m -0.62,-1 v 0.18 0.19 l 0.05,0.16 0.07,0.16 0.1,0.12 0.11,0.1 0.13,0.06 h 0.13 m -3.46,1.09 h 0.59 m 0,-0.47 v 0.47 m 24.94,-12.94 v -2 m 0,0 v -0.87 0 0 m -22.45,-0.39 10.25,0.18 12.2,0.21 m 0.06,0.86 h -1.77 l -7.1,-0.13 -15.55,-0.27 m 24.36,3.31 v 0 -0.05 -0.83 m -24.42,0.43 h 1.77 l 7.1,-0.13 15.55,-0.27 m -0.06,0.9 -12.21,0.21 -10.16,0.18 m -2,-3.7 v 2.84 m -0.52,-2.85 h 0.52 m 0,0 v -0.13 l 0.05,-0.09 0.16,-0.18 0.36,-0.21 0.65,-0.17 h 0.68 m -0.62,-0.84 v 0.16 0.16 l 0.06,0.15 0.08,0.12 0.09,0.11 0.1,0.08 0.12,0.05 h 0.12 m -0.09,-9.58 -1,-0.22 -0.66,-0.45 -0.39,-0.46 -0.21,-0.43 v -0.09 m 0,11.57 0.15,-0.34 0.35,-0.41 0.63,-0.34 0.65,-0.09 m 0,0 h 1.26 0.27 m 0,0 h 0.62 m 0,0 v -8.87 m 0,0 h -1.24 -0.38 m -2.31,-1.65 v 11.57 m -0.62,-11.62 h 0.62 m 0,11.57 v 0.47 m -0.59,-0.48 h 0.62 m 0,15.36 0.15,-0.36 0.34,-0.47 0.61,-0.47 1,-0.27 h 0.17 m 0,0 h 1.25 0.46 m 0,0 v -8.79 m 0,0 h -1.25 -0.81 m -1.9,-1.73 h 0.52 m 1.38,1.73 -1,-0.21 -0.49,-0.36 v -0.29 l -0.12,-0.28 m 1.87,1.26 v -0.17 -0.16 -0.15 l 0.08,-0.13 0.09,-0.11 0.11,-0.08 0.11,-0.06 h 0.12 m 0,0 -1,-0.1 -0.51,-0.18 -0.3,-0.2 -0.1,-0.13 -0.05,-0.07 v -0.12 -0.06 m -1.11,12.08 h 0.62 m 0,-11.57 v 11.57 m 0,-14.89 v 2.85 m -0.59,-2.86 h 0.59 m -0.59,3.32 h 0.62 m 0,-0.47 v 0.47 m -0.62,-0.47 h 0.59 m -0.59,-41.22 h -1.12 m 1.12,57.07 v -0.46 m 0,0 v -2.86 m 0,0 v -0.47 m 0,0 v -11.64 m 0,0 v -0.47 m 0,0 v -2.86 m 0,0 v -0.47 m 0,0 v -11.61 m 0,0 v -0.47 m 0,0 v -2.83 m 0,0 v -0.45 m 0,0 v -22.55 m -1.12,0 v 0 h -0.3 -0.3 l -0.17,0.09 -0.08,0.1 v 0.14 m -44.82,64.28 h -0.59 m 15.75,0 h -15.16 m -0.59,0 v 0 m -0.89,0.89 v -0.2 l 0.07,-0.2 0.1,-0.16 0.17,-0.17 0.28,-0.13 h 0.25 m 15.75,0 2.82,-0.46 2.49,-1.3 2,-2 0.4,-0.65 m -7.71,4.46 v 0 m 7.71,-4.46 1,-1.77 1,-1.78 1,-1.8 m -3.1,5.35 v 0 m 3.1,-5.35 1,-2.83 0.15,-1.62 m -1.19,4.45 v 0 m 18.85,-81.74 v 68.27 m 0,0 v 68.27 m -46.3,-136.54 v 41.09 m 0,51.35 v 44.1 m 0,-95.45 v 0.31 l 0.17,0.28 0.26,0.2 0.28,0.09 h 0.13 m 0,0 h 15.75 m 0,0 2.8,0.45 2.47,1.27 2,2 0.44,0.7 m 0,0 1,1.77 1,1.78 1,1.8 m 0,0 1,2.85 0.15,1.6 m 0,0 v 21.06 m 0,0 -0.51,3 -0.68,1.48 m 0,0 -1,1.8 -1,1.78 -1,1.77 m 0,0 -1.93,2.32 -2.63,1.56 -3.15,0.58 m 0,0 h -15.54 m 0,0 h -0.28 l -0.26,0.13 -0.19,0.2 -0.13,0.27 v 0.25 m 53.06,-63.68 v 1.3 m 0,-7 v 5.75 m 0,-5.75 v -0.21 l -0.15,-0.18 -0.07,-0.05 m -0.32,6.63 h 0.12 0.11 0.1 l 0.09,-0.05 0.07,-0.07 v -0.08 -0.08 -0.08 m -0.27,-0.4 0.18,0.15 0.08,0.18 v 0.07 m -0.27,-0.4 v -5.79 m 0,0 -0.83,-0.58 -3.18,-2.16 m 3.69,9.37 v 0 -0.07 l -0.05,-0.05 m -4.23,-9.42 h -1.18 -0.15 m 0,0 v 5.95 m -0.6,-5.53 v -0.3 -0.08 -0.08 l 0.08,-0.06 0.09,-0.05 h 0.1 0.12 0.11 m 1.33,5.95 v -5.92 m 0.62,0.19 v 5.89 m 0,-5.89 -0.24,-0.13 h -0.29 -0.09 m 4.23,9.42 0.08,-0.06 0.07,-0.08 0.07,-0.08 0.06,-0.1 v -0.1 -0.1 -0.09 -0.09 m -4,-2.64 0.84,0.55 3.17,2.09 m -0.4,0.7 -4,-2.64 m -1.54,-0.86 h 1.33 m 0,0.81 h -1.33 m -0.6,-0.44 v 0.09 0.08 0.07 l 0.08,0.07 0.09,0.06 h 0.1 0.12 0.11 m 0,0 v -0.81 m -0.6,0.37 v -0.08 -0.06 -0.07 l 0.08,-0.06 h 0.09 0.1 0.12 0.11 m 1.54,0.86 0.08,-0.06 0.07,-0.07 0.07,-0.09 0.07,-0.1 v -0.09 -0.1 -0.1 -0.09 m -0.62,-0.16 h 0.3 l 0.26,0.09 h 0.06 m -0.62,0.65 v -0.81 m 0.21,0.86 v 0 h -0.09 -0.1 m -26.42,31.84 v 0 m 0,17 v 0.12 0.11 l -0.06,0.1 -0.07,0.09 -0.09,0.07 -0.1,0.06 h -0.11 -0.11 m 0,0 v 0 m 0,0 h -0.58 m -0.39,0 h -1.51 m 1.9,0 h -0.38 m 0.12,0 h 0.85 m -2.57,0 h 1.55 m -14.29,-33.8 v 0.62 m 11.48,48.75 h -0.92 m 0,0 v 0 l 1.36,-0.11 1,-0.3 m 3.2,-1.62 0.23,-0.18 0.19,-0.17 m -2.57,1.67 1.63,-0.91 m 6.59,-10.08 h -0.26 m -6.72,-3.89 h 0.11 0.11 l 0.1,-0.06 0.09,-0.07 0.07,-0.09 0.06,-0.1 v -0.11 -0.12 m 0.75,13.54 v 0.27 m -0.75,-30.79 v 0 m 0,4.48 v -1.23 m 0,6.08 v -1.73 m 0,6.08 v -1.23 m 0,4.46 v 0 m 0.92,13.65 1.48,-1.9 m -1.81,-11.76 h -0.59 m -0.58,0.6 h 0.11 0.11 l 0.1,-0.06 0.09,-0.07 0.07,-0.09 0.06,-0.1 v -0.11 -0.12 m 0,-17 v -0.12 -0.11 l -0.06,-0.1 -0.07,-0.09 -0.09,-0.07 -0.1,-0.06 h -0.11 -0.11 m 1.17,0.62 h -0.59 m 0.59,17 h 1.06 m -1.06,0.62 v 0 -0.59 m 1.06,0.58 v 0 -0.59 m 0,0 v -17.1 m 0.58,16.93 h -0.58 m 0.58,-16.93 h -0.58 m -1.06,-0.62 h 1.06 m 0,0.6 v -0.59 0 m -1.06,0.58 v -0.59 0 m 1.06,0.62 h -1.06 m -15.87,-16.09 h -0.12 -0.11 l -0.1,0.06 -0.09,0.07 -0.08,0.09 v 0.11 0.11 0.11 m 0.6,-0.59 v 0 m 10,0 h -10 m 22.11,37.63 v 0 0 m 0.14,-0.15 -0.14,0.15 m -21.49,-37.58 h -0.12 -0.11 l -0.1,0.06 -0.09,0.07 -0.08,0.09 v 0.11 0.11 0.11 m 0.6,-0.59 h 10 m -10,0.37 v -0.35 0 m 10,49.27 h -10 m -0.6,-0.59 v 0.08 0.11 0.11 l 0.08,0.09 0.09,0.07 0.1,0.06 h 0.11 0.12 m 0,0 v 0 -0.39 m 17.68,-44.42 -1.86,-2.25 m -16.42,2.84 v -4.45 m 0.6,-0.22 h -0.23 -0.1 -0.09 -0.08 v 0 0 0 m 0.6,4.26 h -0.23 -0.1 -0.09 -0.08 v 0 0 0 m 0,0 v 0.11 0.11 0.1 l 0.07,0.09 0.09,0.08 h 0.1 0.11 0.12 m 0,-0.78 v 0.78 m 10.7,0.18 -10.7,-0.18 m -0.59,38.6 v 0 m 0.59,-0.59 h -0.12 -0.11 l -0.1,0.05 -0.09,0.08 -0.07,0.09 v 0.1 0.11 0.11 m 11.29,-0.78 -3,0.05 -7.73,0.14 m 0,0 v 0 m 10,-43.64 3.13,0.56 2.65,1.57 1.94,2.32 m -7.72,-4.08 v -0.35 0 m 0.74,5 v 1.36 0 m 0.59,0.6 v -0.15 l -0.08,-0.18 -0.13,-0.14 -0.17,-0.09 h -0.19 m 0,37.64 v 0 m 9.78,-33.68 -1,-1.8 -1,-1.78 -1,-1.77 m -18.28,44.23 v 0 0 0 h 0.08 0.09 0.1 0.23 m -0.6,-0.19 v -4.45 m 0.59,-0.59 h -0.12 -0.11 l -0.1,0.05 -0.09,0.08 -0.07,0.09 v 0.1 0.11 0.11 m 0,0 v 0 0 0 h 0.08 0.09 0.33 m 0,-0.75 v 0.75 m 0,-0.75 10.7,-0.19 m -0.73,5.82 v 0 -0.39 m 7.72,-4.05 -0.37,0.58 -2,2.09 -2.51,1.32 -2.84,0.46 m 0.73,-5.82 v 0.75 m 0.58,-1.34 v 0.2 l -0.1,0.18 -0.16,0.13 -0.19,0.07 h -0.1 m 7,-39 v 0 h -0.15 -0.07 -0.09 -0.09 -0.09 m 0.52,-0.11 1,1.77 1,1.79 1,1.79 m 0,29.66 -1,1.8 -1,1.79 -1,1.77 m 4.28,-30.56 -0.14,-1.6 -0.2,-0.84 m 0,0 -0.25,-0.75 m 0,0 -0.6,-1.27 m -9.49,24.52 v -0.11 -0.11 -0.11 l 0.08,-0.09 0.08,-0.07 0.1,-0.06 h 0.11 0.12 m 1.83,0 h -1.83 m 2.84,-0.05 h -0.84 m -2,0 v 0 m 5.07,-0.09 h -1.06 m -1.17,0 h 1.17 m -1.17,0 v 0 m -2.83,-27.44 h -0.23 -0.1 -0.09 -0.07 -0.06 v 0 0 m 0,8.42 v -8.42 m 0.59,8.32 h -0.42 -0.07 -0.06 v 0 0 m 0.58,0.59 h -0.12 -0.11 l -0.1,-0.06 -0.08,-0.07 -0.08,-0.09 v -0.11 -0.1 -0.12 m 0.59,-0.1 v 0.68 0 m 5.07,0.09 -5.07,-0.09 m 5.08,-0.6 v 0.68 0 m 0,0 h 0.19 l 0.17,0.1 0.13,0.14 0.08,0.19 v 0.13 m 3.26,-6.31 h -0.11 -0.06 -0.08 -0.08 -0.09 l -0.1,0.05 m 0.52,-0.16 0.67,1.46 0.52,3 m -10.68,28.6 v 0 0 h 0.06 0.07 0.09 0.1 0.23 m -0.59,-0.15 v -8.54 m 0,0 v 0 0 h 0.55 m -0.59,-0.07 v -0.11 -0.11 -0.11 l 0.08,-0.09 0.08,-0.07 0.1,-0.06 h 0.11 0.12 m 0,0 5.07,-0.09 m -5.06,0.75 v 0.55 0 m 5.65,-0.69 v 0.2 l -0.09,0.18 -0.15,0.13 -0.19,0.07 h -0.11 m 0,0.66 v -0.65 0 m 3.84,5.82 v 0 0 h -0.05 -0.06 -0.07 -0.09 l -0.09,-0.05 h -0.1 m 1.71,-4.27 -0.15,1.63 -1,2.82 m -2.67,-23.44 h -0.42 -0.07 -0.19 v 0 0 m 0,16.93 v -17 m 0.59,17 h -0.59 v 0 m 4.45,-18.78 v 0 0 h -0.06 -0.07 -0.42 m 0.59,20.86 v 0 h -0.09 -0.07 -0.42 m 0.59,-20.83 v 20.75 m -5,-0.71 h 0.23 l 0.37,-0.16 0.3,-0.26 0.19,-0.36 0.07,-0.4 m -1.16,1.2 -5.07,0.09 m 0,0 v 8.62 m -1.17,1.19 h 0.2 l 0.38,-0.14 0.31,-0.27 0.21,-0.36 0.07,-0.4 m -1.17,1.19 -10.7,0.19 m 0,0 v 4.48 m 0,0 h 10 m 0,0 2.65,-0.43 2.35,-1.25 1.86,-2 0.34,-0.55 m 0,0 1,-1.78 1,-1.81 1,-1.81 m 0,0 1,-2.66 0.14,-1.53 m 0,0 v -21.04 m 0,0 -0.49,-2.82 -0.63,-1.37 m 0,0 -1,-1.81 -1,-1.8 -1,-1.79 m 0,0 -1.8,-2.19 -2.48,-1.47 -2.92,-0.53 m 0,0 h -10 m 0,0 v 4.48 m 0,0 10.7,0.19 m 1.17,1.2 v -0.3 l -0.16,-0.36 -0.26,-0.29 -0.33,-0.18 -0.38,-0.07 m 1.17,1.2 v 8.53 m 0,0 5.07,0.09 m 1.16,1.2 v -0.26 l -0.16,-0.37 -0.26,-0.3 -0.34,-0.2 -0.38,-0.07 m 1.16,1.2 v 17.08 m -13.42,3.93 -0.29,0.8 m 0,-13.36 v 0.14 m 0.29,-0.9 -0.28,0.76 m 0,0 v 0.26 m 0.17,-0.37 v 0.11 0.26 0.11 m 7.46,8 v 0.49 m 0,-4.94 v 1.61 m 0,-6.46 v 2 m 0,-6.46 v 1.65 m 0,-4.89 v 0.44 m 0,-0.44 h -0.37 m 0.37,17.52 h -0.37 m 0.37,0 v 0.12 l 0.07,0.18 v 0.05 m -7.75,-9 h 0.06 l 0.11,0.06 m 0.14,0.74 -0.31,-0.83 m 0,13.08 0.29,-0.78 m 0,-24.81 -0.31,-0.85 m 0,13.08 0.28,-0.76 m -0.11,0.67 -0.12,0.07 h -0.05 m 0.6,-0.35 -0.27,0.17 -0.16,0.09 m -3.67,-17.9 v 0 m 0.6,-0.59 h -0.12 -0.11 l -0.1,0.05 -0.1,0.08 -0.07,0.09 -0.06,0.1 v 0.12 0.11 m 10.39,0.16 v -0.11 -0.11 l -0.05,-0.1 -0.08,-0.09 -0.08,-0.08 h -0.1 -0.11 -0.12 m 0,0 h 0.47 m -0.47,0 v 0 m 0,0 -9.2,-0.16 m 0,0 v 0 m 9.2,0.16 v 0 m 0.44,0 h -0.44 m -9.2,-0.16 h -0.12 -0.11 l -0.1,0.05 -0.1,0.08 -0.07,0.09 -0.06,0.1 v 0.12 0.11 m 10.39,0.16 v -0.11 -0.11 l -0.05,-0.1 -0.08,-0.09 -0.08,-0.08 h -0.1 -0.11 -0.12 m -9.2,-0.16 v 0 0.41 m 9.21,-0.26 v 0 0.41 m -9.19,-0.58 9.2,0.16 m -9.8,0.43 v 0 0 h 0.06 0.07 0.09 0.1 0.23 m -0.59,2.51 v -2.34 m 0,3.46 v 0.11 0.11 l 0.05,0.1 0.07,0.08 0.08,0.08 0.09,0.05 h 0.11 0.11 m -0.55,-1.71 v 0 0 h 0.06 0.07 0.09 0.33 m -0.59,1.27 v 0 -1.11 m 0,33.92 v 0.12 0.11 l 0.06,0.1 0.07,0.09 0.1,0.08 h 0.1 0.11 0.12 m 0,0 v 0 -0.44 m 9.21,0.29 -9.2,0.16 m 9.2,-0.16 h 0.12 0.11 l 0.1,-0.05 0.08,-0.08 0.08,-0.08 0.05,-0.11 v -0.11 -0.11 m -0.59,0.59 v 0 -0.69 m -9.79,0 v -2.38 m 0,2.38 v 0 0 h 0.06 0.07 0.09 0.33 m 3.51,-18.76 -0.11,0.09 -0.09,0.12 v 0.14 0.14 0.15 0.13 l 0.09,0.12 0.11,0.09 m -3.55,13.59 h -0.11 -0.11 -0.09 l -0.08,0.08 -0.07,0.08 -0.05,0.1 v 0.11 0.11 m 0,1.08 v -1.08 m 0.59,1.21 h -0.33 -0.09 -0.07 -0.06 v 0 0 m 5.61,-4.22 0.77,-1.07 0.57,-1.19 0.35,-1.28 0.12,-1.31 m -1.81,4.85 -1.09,1 -0.44,0.31 -0.38,0.24 -0.15,0.08 h -0.05 m 2.11,-15 0.77,-1.08 0.57,-1.19 0.35,-1.27 0.12,-1.32 m -1.81,4.86 -1.09,1 -0.42,0.31 m 0,0 v 0 m 6.29,-17.48 v 0 0 h -0.06 -0.07 -0.09 -0.1 -0.11 -0.12 m 0.6,36.11 v 0 0 h -0.06 -0.07 -0.09 -0.33 m 0.6,-36.08 v 35.94 m -9.8,-2.09 v 2.39 m 0,0 9.2,-0.16 m 0,0 v -36.15 m 0,0 -9.2,-0.16 m 0,0 v 2.36 m 0,30 1.95,-0.42 2.13,-1.18 1.64,-1.85 1,-2.42 0.1,-2.47 -0.73,-2.37 -1.45,-2 -1.08,-0.88 m -3.55,13.59 v 1.15 0.5 0.15 m 5.3,-15.91 0.32,0.31 1.75,2.45 0.87,2.91 -0.12,3 -1.18,3 -2,2.26 -2.55,1.46 -2.42,0.52 m 3.51,-15.39 v 0 m 1.79,-0.52 h -0.06 -0.07 -0.15 l -0.35,0.09 -0.66,0.2 -0.32,0.1 h -0.14 v 0 m 0,-1 -0.11,0.09 -0.09,0.12 v 0.14 0.14 0.15 0.13 l 0.09,0.12 0.11,0.09 m -3.51,-16.43 2.33,0.48 2.54,1.41 2,2.21 1.25,3.06 0.13,3 -0.86,2.93 -1.75,2.46 -0.33,0.32 m -5.3,-15.91 v 0.5 0.48 0.87 0 m 3.55,13.59 1.08,-0.88 1.46,-2 0.72,-2.38 -0.11,-2.48 -1,-2.49 -1.66,-1.81 -2.11,-1.15 -1.89,-0.39 m 3.55,13.59 v 0 h 0.14 l 0.32,0.08 0.66,0.18 0.35,0.09 h 0.15 0.13 M 34.645,78.535 H 0.785 m 0,22.1 h 33.86 m -34.39,-7.76 h 34.39 m 0,-6.95 H 0.285 m 34.36,15.46 h 1.9 m 0,-23.6 h -1.9 M 192.075,0.535 H 60.285 m -23.74,115.84 1.29,1.3 m 0,-56.18 -1.29,1.3 m 1.29,54.88 10.58,0.18 m 0,-56.54 -10.58,0.18 m 12.11,-60.78 -1.51,1.51 m 11.27,-1.68 -9.76,0.17 m 10.36,0.43 v -0.12 -0.11 -0.11 l -0.08,-0.09 -0.09,-0.07 -0.1,-0.06 h -0.12 -0.11 m 175.73,109.82 h -0.15 m 30.56,12.83 h 0.73 m 0,-16.89 h -0.73 m 0.73,16.89 0.65,-0.34 0.61,-0.4 0.59,-0.44 0.55,-0.49 0.5,-0.52 0.47,-0.57 0.42,-0.6 0.37,-0.63 m 0,-8.9 -0.37,-0.64 -0.42,-0.6 -0.47,-0.56 -0.5,-0.53 -0.55,-0.48 -0.59,-0.45 -0.61,-0.39 -0.65,-0.35 m 0,0 h -0.73 m 0.73,-75.69 h -0.73 m 4.89,4 -0.37,-0.63 -0.42,-0.6 -0.47,-0.57 -0.5,-0.53 -0.55,-0.48 -0.59,-0.44 -0.61,-0.4 -0.65,-0.35 m -66.94,105.2 0.08,-0.06 0.54,-0.49 0.51,-0.53 0.47,-0.57 0.42,-0.6 0.37,-0.63 m 75.69,-90.84 v -0.17 l -0.05,-0.17 -0.08,-0.15 -0.11,-0.13 -0.13,-0.11 -0.15,-0.09 -0.16,-0.05 h -0.18 m 0,0 -6.1,-0.11 m 7,1 v -0.17 l -0.05,-0.17 -0.08,-0.15 -0.11,-0.13 -0.13,-0.11 -0.15,-0.09 -0.16,-0.05 h -0.18 m 0,0 -10.09,-0.18 m 0,0 h -0.17 -0.17 l -0.16,0.08 -0.14,0.11 -0.11,0.13 -0.08,0.16 -0.06,0.17 v 0.17 m 11,16 h 0.17 l 0.16,-0.05 0.14,-0.09 0.13,-0.11 0.11,-0.13 0.08,-0.15 v -0.16 -0.17 m -3.55,1 2.7,-0.12 m -10.14,0.22 h 1.22 m -2.1,-0.9 v 0.17 0.17 l 0.09,0.15 0.1,0.13 0.14,0.11 0.15,0.09 0.17,0.05 h 0.17 m 6.55,2.66 v -0.86 l 0.23,-1.2 0.31,-0.53 0.19,-0.15 h 0.12 0.13 0.09 m -6.41,0.08 h 0.06 l 0.13,0.06 0.16,0.15 0.2,0.32 0.19,0.63 0.13,1.22 v 0.46 m 12.89,-4.5 -0.84,-0.84 m 0,0 h -3.15 m -4.45,13.37 0.42,0.42 m 8,-12.95 -0.84,-0.84 m 0,13.79 0.84,-0.84 m -0.84,-13 h -3.15 m -4,13.79 h 7.18 m -74.12,-47.9 v -7.23 m 1.91,139.62 0.19,-0.22 0.08,-0.1 m 0,-128.23 -0.19,-0.22 -0.08,-0.1 m 1.58,1.56 v 0 h -0.09 l -0.22,-0.15 -0.42,-0.37 -0.65,-0.73 0.06,-0.07 m 0.16,128.46 0.25,-0.32 0.65,-0.64 0.31,-0.24 h 0.12 v 0 m -7.84,9.23 0.07,-0.09 v 0 m 0,-144 -0.07,-0.08 v 0 m 1.42,1.36 v 0 h -0.09 l -0.22,-0.16 -0.43,-0.38 -0.66,-0.74 -0.1,-0.14 m 0.17,144.21 0.26,-0.32 0.64,-0.64 0.32,-0.24 h 0.11 v 0 m 2.93,-6.51 v 0.08 -0.08 m 0,-128.49 v -0.27 0 m -6.29,136.2 v -0.07 m 0,-143.63 v -0.07 0 m 7.67,118.22 0.14,-0.17 0.06,-0.07 m 0,0 0.16,-0.21 0.72,-0.61 0.41,-0.19 v 0 m -2.92,4.37 v 0 l 0.06,-0.49 0.18,-0.61 v -0.12 m 0,0 0.26,-0.61 0.48,-0.8 0.36,-0.44 m -1.39,17.9 v -14.77 m 2.67,-86.92 h -0.21 l -0.41,-0.27 m 0,0 -0.18,-0.13 -0.08,-0.06 m -5.6,88.44 0.21,-0.09 h 0.05 m -0.35,0.11 h 0.07 v 0 m -2.48,3.87 v -0.21 l 0.14,-0.57 0.26,-0.71 0.44,-0.8 0.59,-0.79 0.68,-0.61 0.23,-0.1 m 3.92,-85.58 v -0.07 l 0.07,-0.47 0.12,-0.27 0.14,-0.12 h 0.22 m -4.93,-6.42 h -0.07 v 0 m 0.71,0.32 h -0.2 l -0.41,-0.28 m 5.11,69.34 v 0 l -0.38,-0.2 -0.21,-0.41 -0.09,-0.5 v -0.33 m -6.29,-64.83 v -0.17 l 0.07,-0.46 0.12,-0.27 0.14,-0.12 h 0.22 m 5.75,43.67 0.06,-0.53 0.2,-0.61 0.31,-0.52 0.4,-0.37 0.48,-0.15 h 0.06 m -0.07,-2.64 h -0.13 l -0.54,-0.28 -0.4,-0.51 -0.25,-0.63 -0.06,-0.58 v -0.32 m -5.61,34.32 h -0.12 l -0.39,-0.3 -0.16,-0.42 -0.06,-0.53 v -0.63 -0.09 m 4.62,2.2 0.18,-0.11 m -4.79,-27.12 0.07,-0.56 0.2,-0.61 0.31,-0.52 0.4,-0.37 0.48,-0.14 h 0.06 m -0.08,-2.86 h -0.11 l -0.53,-0.28 -0.4,-0.51 -0.26,-0.63 -0.12,-0.66 v -0.32 m 12.23,-64.44 -0.16,-0.22 m -13.84,-19.38 -0.6,-0.83 m 0,177.4 14.6,-20.43 m -14.6,-157 v 0 -0.05 0 h -0.06 -0.07 -0.06 -0.14 m 0,177.89 h 0.14 0.06 0.07 0.06 v 0 0 -0.05 m -0.47,-177.65 -5.71,-0.1 m 0,178.09 5.71,-0.1 m 29.53,-71.35 v -0.49 m -7.13,-18.58 -2.1,0.49 -1.3,0.72 m 7.3,-0.27 -0.89,-0.45 -2.11,-0.49 m -7.12,6.66 v 0 m 13.35,0 v 0 m 0,-25.3 v -0.53 m -13.38,12.11 v 0 m 13.35,0 v 0 m 7.35,7.44 -0.69,-0.46 -0.85,-0.17 -0.85,0.17 -0.72,0.49 -0.15,0.16 m -0.51,1.41 v 0 m 4.45,0 v 0 m -2.42,2.23 -0.65,0.17 -0.72,0.48 -0.15,0.16 m 3.26,-0.19 -0.69,-0.45 -0.66,-0.17 m -2.42,2.22 v 0 m 4.45,0 v 0 m -4.45,-9.3 v 0 m 4.45,0 v 0 m -4.45,-4.45 v 0 m 4.45,0 v 0 m 30.64,-55 v -0.17 -0.09 -0.08 -0.08 -0.07 l -0.06,-0.07 -0.06,-0.07 m 0,0 -3.93,-3.93 m 0,0 -0.06,-0.06 h -0.07 -0.08 -0.07 -0.09 -0.08 -0.09 -0.08 m 0,0 h -1.12 m 0,0 h -0.17 -0.17 l -0.15,0.08 -0.14,0.11 -0.11,0.13 -0.08,0.16 v 0.17 0.17 m 6.83,29.18 v -0.31 -0.11 -0.11 -0.1 l -0.06,-0.09 -0.07,-0.09 -0.08,-0.07 -0.09,-0.07 m 0,0 -3.93,-2.58 m 0,0 v 0 h -0.06 -0.06 -0.06 -0.07 -0.2 m 0,0 h -1.4 m 0.06,0 h -0.1 l -0.22,0.07 -0.18,0.15 -0.11,0.21 v 0.19 0 m 6.56,105.08 0.06,-0.07 0.06,-0.07 v -0.07 -0.08 -0.09 -0.08 -0.17 m -4.2,4.56 3.93,-3.93 m -4.55,4.19 h 0.17 0.08 0.09 0.07 0.08 l 0.07,-0.06 h 0.06 m -1.74,0.26 h 1.12 m -2,-0.89 v 0.17 0.17 l 0.08,0.15 0.11,0.14 0.14,0.11 0.15,0.08 0.17,0.05 h 0.17 m -0.89,-136.54 h -46.3 m 0,136.54 h 46.3 m 6.6,-113.76 v -0.09 l -0.1,-0.25 -0.16,-0.18 h -0.08 m 0,0 -2.81,-1.92 -1.21,-0.83 m -0.52,-0.16 h -1.33 m 0,0 h -0.12 -0.11 -0.11 l -0.09,0.08 -0.08,0.09 v 0.1 0.11 0.12 m 2.46,-0.39 -0.13,-0.08 -0.28,-0.08 h -0.11 m -22.47,65.15 h -0.22 m -14.3,-17.88 v 0"
     id="path41" />
  <path
     class="cls-10"
     d="m 266.025,30.585 c 2.51,1 4.12,2.36 4.85,4.09 v 6.48 l 6.1,0.11 a 0.89,0.89 0 0 1 0.88,0.89 v 13.58 h 3.15 l 0.84,0.84 v 12.11 l -0.84,0.84 h -3.15 l -0.87,0.91 -7.38,0.28 h -3.72 z"
     id="path43" />
  <path
     id="polyline57"
     class="cls-14"
     style="fill:none;stroke:#37b04a;stroke-width:2px;stroke-linecap:round;stroke-linejoin:round"
     d="M 459.6963,59.275 H 304.3316 v 9.62 H 224.985"
     sodipodi:nodetypes="cccc" />
  <path
     id="polyline59"
     class="cls-15"
     style="fill:none;stroke:#d5dc28;stroke-width:2px;stroke-linecap:round;stroke-linejoin:round"
     d="M 459.6963,55.585 H 300.1916 v 9.68 H 224.725"
     sodipodi:nodetypes="cccc" />
  <path
     id="polyline2575"
     class="cls-87"
     style="fill:none;stroke:#231f20;stroke-width:15px;stroke-linecap:round;stroke-linejoin:round"
     d="M 459.6963,79.085 H 221.085"
     sodipodi:nodetypes="cc" />
  <path
     id="polyline2577"
     class="cls-88"
     style="fill:none;stroke:#e6282b;stroke-width:15px;stroke-linecap:round;stroke-linejoin:round"
     d="M 220.425,96.345 H 459.6963"
     sodipodi:nodetypes="cc" />
  <path
     id="polyline6489"
     class="cls-84"
     style="fill:none;stroke:#37b04a;stroke-width:2px;stroke-linecap:round;stroke-linejoin:round"
     d="M 459.6963,119.845 H 300.1916 v -10.11 H 221.915"
     sodipodi:nodetypes="cccc" />
  <path
     id="polyline6491"
     class="cls-83"
     style="fill:none;stroke:#d5dc28;stroke-width:2px;stroke-linecap:round;stroke-linejoin:round"
     d="M 459.6963,115.485 H 304.3316 v -8.29 l -81.7466,-0.28"
     sodipodi:nodetypes="cccc" />
</svg>
