<?xml version="1.0" encoding="UTF-8" standalone="no"?>
<svg
   id="Layer_1"
   data-name="Layer 1"
   viewBox="0 0 71.949997 74.650001"
   version="1.1"
   sodipodi:docname="can.svg"
   width="71.949997"
   height="74.650002"
   inkscape:version="1.1.2 (0a00cf5339, 2022-02-04)"
   xmlns:inkscape="http://www.inkscape.org/namespaces/inkscape"
   xmlns:sodipodi="http://sodipodi.sourceforge.net/DTD/sodipodi-0.dtd"
   xmlns="http://www.w3.org/2000/svg"
   xmlns:svg="http://www.w3.org/2000/svg">
  <sodipodi:namedview
     id="namedview7192"
     pagecolor="#ffffff"
     bordercolor="#999999"
     borderopacity="1"
     inkscape:pageshadow="0"
     inkscape:pageopacity="0"
     inkscape:pagecheckerboard="0"
     showgrid="false"
     fit-margin-top="10"
     fit-margin-left="20"
     fit-margin-right="10"
     fit-margin-bottom="10"
     inkscape:zoom="7.3456791"
     inkscape:cx="30.834453"
     inkscape:cy="32.127731"
     inkscape:window-width="1920"
     inkscape:window-height="1020"
     inkscape:window-x="0"
     inkscape:window-y="0"
     inkscape:window-maximized="1"
     inkscape:current-layer="layer2"
     showguides="false"
     inkscape:guide-bbox="true"
     inkscape:snap-bbox="true"
     inkscape:snap-bbox-midpoints="true">
    <sodipodi:guide
       position="33.339748,38.930411"
       orientation="0,-1"
       id="guide1069" />
    <sodipodi:guide
       position="33.339748,22.980411"
       orientation="0,-1"
       id="guide1071" />
    <sodipodi:guide
       position="0,74.650001"
       orientation="0,81.949997"
       id="guide1859" />
    <sodipodi:guide
       position="81.949997,74.650001"
       orientation="74.650002,0"
       id="guide1861" />
    <sodipodi:guide
       position="81.949997,0"
       orientation="0,-81.949997"
       id="guide1863" />
    <sodipodi:guide
       position="0,0"
       orientation="-74.650002,0"
       id="guide1865" />
    <sodipodi:guide
       position="20,64.650001"
       orientation="1,0"
       id="guide1953" />
    <sodipodi:guide
       position="16.855004,38.940411"
       orientation="1,0"
       id="guide3056" />
    <sodipodi:guide
       position="0,33.190001"
       orientation="0,-1"
       id="guide1392" />
    <sodipodi:guide
       position="0,28.720002"
       orientation="0,-1"
       id="guide1394" />
    <sodipodi:guide
       position="13.710008,38.940411"
       orientation="1,0"
       id="guide1995" />
    <sodipodi:guide
       position="10.565012,38.940411"
       orientation="1,0"
       id="guide2077" />
    <sodipodi:guide
       position="33.339748,38.93041"
       orientation="1,0"
       id="guide2699" />
  </sodipodi:namedview>
  <defs
     id="defs7">
    <marker
       style="overflow:visible"
       id="SquareS"
       refX="0"
       refY="0"
       orient="auto"
       inkscape:stockid="SquareS"
       inkscape:isstock="true">
      <path
         transform="scale(0.2)"
         style="fill:context-stroke;fill-rule:evenodd;stroke:context-stroke;stroke-width:1pt"
         d="M -5,-5 V 5 H 5 V -5 Z"
         id="path2296" />
    </marker>
    <marker
       style="overflow:visible"
       id="DiamondM"
       refX="0"
       refY="0"
       orient="auto"
       inkscape:stockid="DiamondM"
       inkscape:isstock="true">
      <path
         transform="scale(0.4)"
         style="fill:context-stroke;fill-rule:evenodd;stroke:context-stroke;stroke-width:1pt"
         d="M 0,-7.0710768 -7.0710894,0 0,7.0710589 7.0710462,0 Z"
         id="path2303" />
    </marker>
    <marker
       style="overflow:visible"
       id="DotS"
       refX="0"
       refY="0"
       orient="auto"
       inkscape:stockid="DotS"
       inkscape:isstock="true">
      <path
         transform="matrix(0.2,0,0,0.2,1.48,0.2)"
         style="fill:context-stroke;fill-rule:evenodd;stroke:context-stroke;stroke-width:1pt"
         d="m -2.5,-1 c 0,2.76 -2.24,5 -5,5 -2.76,0 -5,-2.24 -5,-5 0,-2.76 2.24,-5 5,-5 2.76,0 5,2.24 5,5 z"
         id="path2287" />
    </marker>
    <marker
       orient="auto"
       refY="0"
       refX="0"
       id="InfiniteLineStart"
       inkscape:stockid="InfiniteLineStart"
       style="overflow:visible"
       inkscape:isstock="true">
      <g
         transform="translate(-13)"
         style="fill:context-stroke"
         id="g2473">
        <circle
           cx="3"
           cy="0"
           r="0.80000001"
           id="circle2467" />
        <circle
           cx="6.5"
           cy="0"
           r="0.80000001"
           id="circle2469" />
        <circle
           cx="10"
           cy="0"
           r="0.80000001"
           id="circle2471" />
      </g>
    </marker>
    <marker
       orient="auto"
       refY="0"
       refX="0"
       id="InfiniteLineEnd"
       inkscape:stockid="InfiniteLineEnd"
       style="overflow:visible"
       inkscape:isstock="true">
      <g
         style="fill:context-stroke"
         id="g2464">
        <circle
           cx="3"
           cy="0"
           r="0.80000001"
           id="circle2458" />
        <circle
           cx="6.5"
           cy="0"
           r="0.80000001"
           id="circle2460" />
        <circle
           cx="10"
           cy="0"
           r="0.80000001"
           id="circle2462" />
      </g>
    </marker>
    <marker
       style="overflow:visible"
       id="Scissors"
       refX="0"
       refY="0"
       orient="auto"
       inkscape:stockid="Scissors"
       inkscape:isstock="true">
      <path
         style="fill:context-stroke"
         d="M 9.0898857,-3.6061018 C 8.1198849,-4.7769976 6.3697607,-4.7358294 5.0623558,-4.2327734 l -8.2124046,3.0779029 c -2.3882933,-1.3067135 -4.7482873,-0.9325372 -4.7482873,-1.5687873 0,-0.4973164 0.4566662,-0.3883222 0.3883068,-1.6831941 -0.065635,-1.2432767 -1.3635771,-2.1630796 -2.5903987,-2.0816435 -1.227271,-0.00735 -2.499439,0.9331613 -2.510341,2.2300611 -0.09143,1.3063864 1.007209,2.5196896 2.306764,2.6052316 1.5223406,0.2266616 4.218258,-0.6955566 5.482945,1.57086006 -0.9422847,1.73825774 -2.6140244,1.74307674 -4.1255107,1.65607034 -1.2548743,-0.072235 -2.7620933,0.2873979 -3.3606483,1.5208605 -0.578367,1.1820862 -0.0112,2.8646022 1.316749,3.226412 1.3401912,0.4918277 3.1806689,-0.129711 3.4993722,-1.6707242 0.2456585,-1.187823 -0.5953659,-1.7459574 -0.2725074,-2.1771537 0.2436135,-0.32536 1.7907806,-0.1368452 4.5471053,-1.3748244 L 5.6763468,4.2330688 C 6.8000164,4.5467672 8.1730685,4.5362646 9.1684433,3.4313614 l -9.22008423,-3.48508362 z m -18.3078016,-1.900504 c 1.294559,0.7227998 1.1888392,2.6835702 -0.1564272,3.0632889 -1.2165179,0.423661 -2.7710269,-0.7589694 -2.3831779,-2.0774648 0.227148,-1.0818519 1.653387,-1.480632 2.5396051,-0.9858241 z m 0.056264,8.0173649 c 1.3508301,0.4988648 1.1214429,2.7844356 -0.2522207,3.091609 -0.9110597,0.3163391 -2.2135497,-0.1387976 -2.3056967,-1.2121394 -0.177609,-1.305055 1.356085,-2.4841482 2.5579174,-1.8794696 z"
         id="schere" />
    </marker>
    <marker
       style="overflow:visible"
       id="Tail"
       refX="0"
       refY="0"
       orient="auto"
       inkscape:stockid="Tail"
       inkscape:isstock="true">
      <g
         transform="scale(-1.2)"
         id="g2268">
        <path
           style="fill:none;fill-rule:evenodd;stroke:context-stroke;stroke-width:0.8;stroke-linecap:round"
           d="M -3.8048674,-3.9585227 0.54352094,0"
           id="path2256" />
        <path
           style="fill:none;fill-rule:evenodd;stroke:context-stroke;stroke-width:0.8;stroke-linecap:round"
           d="M -1.2866832,-3.9585227 3.0617053,0"
           id="path2258" />
        <path
           style="fill:none;fill-rule:evenodd;stroke:context-stroke;stroke-width:0.8;stroke-linecap:round"
           d="M 1.3053582,-3.9585227 5.6537466,0"
           id="path2260" />
        <path
           style="fill:none;fill-rule:evenodd;stroke:context-stroke;stroke-width:0.8;stroke-linecap:round"
           d="M -3.8048674,4.1775838 0.54352094,0.21974226"
           id="path2262" />
        <path
           style="fill:none;fill-rule:evenodd;stroke:context-stroke;stroke-width:0.8;stroke-linecap:round"
           d="M -1.2866832,4.1775838 3.0617053,0.21974226"
           id="path2264" />
        <path
           style="fill:none;fill-rule:evenodd;stroke:context-stroke;stroke-width:0.8;stroke-linecap:round"
           d="M 1.3053582,4.1775838 5.6537466,0.21974226"
           id="path2266" />
      </g>
    </marker>
    <marker
       style="overflow:visible"
       id="EmptyTriangleInS"
       refX="0"
       refY="0"
       orient="auto"
       inkscape:stockid="EmptyTriangleInS"
       inkscape:isstock="true">
      <path
         transform="matrix(-0.2,0,0,-0.2,0.6,0)"
         style="fill:context-fill;fill-rule:evenodd;stroke:context-stroke;stroke-width:1pt"
         d="M 5.77,0 -2.88,5 V -5 Z"
         id="path2380" />
    </marker>
    <marker
       style="overflow:visible"
       id="Arrow2Lstart"
       refX="0"
       refY="0"
       orient="auto"
       inkscape:stockid="Arrow2Lstart"
       inkscape:isstock="true">
      <path
         transform="matrix(1.1,0,0,1.1,1.1,0)"
         d="M 8.7185878,4.0337352 -2.2072895,0.01601326 8.7185884,-4.0017078 c -1.7454984,2.3720609 -1.7354408,5.6174519 -6e-7,8.035443 z"
         style="fill:context-stroke;fill-rule:evenodd;stroke:context-stroke;stroke-width:0.625;stroke-linejoin:round"
         id="path2238" />
    </marker>
    <style
       id="style2">.cls-1,.cls-100,.cls-101,.cls-102,.cls-103,.cls-104,.cls-105,.cls-106,.cls-107,.cls-108,.cls-109,.cls-110,.cls-113,.cls-114,.cls-115,.cls-116,.cls-117,.cls-119,.cls-12,.cls-125,.cls-126,.cls-127,.cls-13,.cls-130,.cls-139,.cls-14,.cls-143,.cls-145,.cls-146,.cls-147,.cls-149,.cls-15,.cls-157,.cls-158,.cls-159,.cls-161,.cls-168,.cls-173,.cls-174,.cls-175,.cls-177,.cls-178,.cls-179,.cls-182,.cls-183,.cls-186,.cls-187,.cls-188,.cls-189,.cls-190,.cls-191,.cls-192,.cls-193,.cls-196,.cls-197,.cls-201,.cls-206,.cls-207,.cls-208,.cls-210,.cls-214,.cls-218,.cls-24,.cls-25,.cls-27,.cls-3,.cls-37,.cls-4,.cls-42,.cls-46,.cls-50,.cls-56,.cls-57,.cls-6,.cls-70,.cls-71,.cls-72,.cls-78,.cls-83,.cls-84,.cls-85,.cls-86,.cls-87,.cls-88,.cls-89,.cls-90,.cls-92,.cls-93,.cls-94,.cls-95,.cls-96,.cls-97,.cls-98,.cls-99{fill:none;}.cls-2,.cls-212{fill:#fff;}.cls-174,.cls-183,.cls-186,.cls-189,.cls-197,.cls-3,.cls-57,.cls-86,.cls-87{stroke:#231f20;}.cls-100,.cls-101,.cls-102,.cls-103,.cls-104,.cls-105,.cls-106,.cls-107,.cls-108,.cls-109,.cls-110,.cls-111,.cls-12,.cls-139,.cls-14,.cls-146,.cls-15,.cls-159,.cls-161,.cls-174,.cls-175,.cls-177,.cls-178,.cls-179,.cls-182,.cls-183,.cls-188,.cls-189,.cls-197,.cls-214,.cls-3,.cls-4,.cls-5,.cls-50,.cls-56,.cls-57,.cls-6,.cls-85,.cls-86,.cls-87,.cls-88,.cls-95,.cls-96,.cls-97,.cls-98,.cls-99{stroke-linecap:round;}.cls-100,.cls-101,.cls-102,.cls-103,.cls-104,.cls-105,.cls-106,.cls-107,.cls-108,.cls-109,.cls-110,.cls-12,.cls-139,.cls-14,.cls-146,.cls-15,.cls-157,.cls-158,.cls-159,.cls-161,.cls-174,.cls-175,.cls-177,.cls-178,.cls-179,.cls-182,.cls-183,.cls-186,.cls-187,.cls-188,.cls-189,.cls-190,.cls-197,.cls-214,.cls-3,.cls-4,.cls-5,.cls-50,.cls-56,.cls-57,.cls-6,.cls-83,.cls-84,.cls-85,.cls-86,.cls-87,.cls-88,.cls-95,.cls-96,.cls-97,.cls-98,.cls-99{stroke-linejoin:round;}.cls-111,.cls-3,.cls-4,.cls-5,.cls-96,.cls-97{stroke-width:3px;}.cls-100,.cls-102,.cls-104,.cls-106,.cls-108,.cls-187,.cls-188,.cls-190,.cls-4,.cls-56,.cls-88,.cls-98{stroke:#e6282b;}.cls-5{fill:#d7de27;stroke:#d7de27;}.cls-111,.cls-126,.cls-13,.cls-145,.cls-146,.cls-147,.cls-182,.cls-50,.cls-6,.cls-7,.cls-71{stroke:#414142;}.cls-6{stroke-width:9px;}.cls-142,.cls-19,.cls-43,.cls-47,.cls-7{fill:#bababa;}.cls-111,.cls-113,.cls-114,.cls-115,.cls-116,.cls-117,.cls-119,.cls-125,.cls-126,.cls-127,.cls-128,.cls-129,.cls-13,.cls-130,.cls-131,.cls-136,.cls-137,.cls-141,.cls-142,.cls-143,.cls-144,.cls-145,.cls-147,.cls-148,.cls-149,.cls-16,.cls-168,.cls-173,.cls-191,.cls-192,.cls-193,.cls-196,.cls-201,.cls-206,.cls-207,.cls-208,.cls-210,.cls-218,.cls-22,.cls-24,.cls-25,.cls-27,.cls-37,.cls-39,.cls-40,.cls-41,.cls-42,.cls-43,.cls-44,.cls-45,.cls-46,.cls-47,.cls-49,.cls-7,.cls-70,.cls-71,.cls-72,.cls-78,.cls-89,.cls-90,.cls-92,.cls-93,.cls-94{stroke-miterlimit:10;}.cls-8{fill:#1c1c1c;}.cls-9{fill:#141414;}.cls-10{fill:#0d0d0d;}.cls-11,.cls-40{fill:#231f20;}.cls-12,.cls-137,.cls-139{stroke:#010101;}.cls-12{stroke-width:0.51px;}.cls-13,.cls-50,.cls-71{stroke-width:4px;}.cls-13,.cls-50{opacity:0.9;}.cls-14,.cls-84{stroke:#37b04a;}.cls-106,.cls-107,.cls-125,.cls-136,.cls-14,.cls-148,.cls-15,.cls-197,.cls-83,.cls-84{stroke-width:2px;}.cls-15,.cls-83{stroke:#d5dc28;}.cls-136,.cls-16,.cls-18{fill:#1a1a1a;}.cls-136,.cls-148,.cls-16,.cls-27{stroke:#383739;}.cls-16{stroke-width:1.63px;}.cls-137,.cls-17{fill:#212121;}.cls-20{fill:#0d91ce;}.cls-21,.cls-41{fill:#2c292a;}.cls-129,.cls-22{fill:#e9e8e9;}.cls-129,.cls-130,.cls-22,.cls-24{stroke:#424242;}.cls-22,.cls-24{stroke-width:0.41px;}.cls-23{fill:#a7a9ac;}.cls-25{stroke:#929497;}.cls-25,.cls-27,.cls-49{stroke-width:0.61px;}.cls-26{fill:#999;}.cls-28{fill:#ef413e;}.cls-29,.cls-45{fill:#d93b37;}.cls-30{fill:#323031;}.cls-31{fill:#aeb636;}.cls-32{fill:#d5dc28;}.cls-33{fill:#37b04a;}.cls-34{fill:#2b9446;}.cls-35{fill:#080808;}.cls-128,.cls-36{fill:#e8e8e8;}.cls-127,.cls-128,.cls-37{stroke:#e8e8e8;}.cls-37{stroke-width:0.81px;}.cls-38{fill:#808184;}.cls-132,.cls-39,.cls-67{fill:#6e6f71;}.cls-207,.cls-39,.cls-72{stroke:#fff;}.cls-39,.cls-40,.cls-41,.cls-42,.cls-43,.cls-44,.cls-45,.cls-46,.cls-47{stroke-width:0.08px;}.cls-40,.cls-41,.cls-42,.cls-43{stroke:#6e6f71;}.cls-44{fill:#b42e2c;}.cls-44,.cls-45,.cls-46,.cls-47{stroke:#dd5f70;}.cls-48{fill:#747578;}.cls-141,.cls-49{fill:#60b356;stroke:#cfd0d3;}.cls-51{fill:#383739;}.cls-111,.cls-52{fill:#414142;}.cls-53{fill:#be2c3a;}.cls-54{fill:#846c30;}.cls-55{fill:#a2a63c;}.cls-110,.cls-56,.cls-57{stroke-width:20px;}.cls-58{fill:#323130;}.cls-59{fill:#819355;}.cls-60{fill:#bc2031;}.cls-213,.cls-61{fill:#211e1e;}.cls-62{fill:#5b5a5d;}.cls-63{fill:#f2f2f2;}.cls-64{fill:#079247;}.cls-65{fill:#4e4e50;}.cls-66{fill:#595a5c;}.cls-68{fill:#636467;}.cls-69{fill:#6a5f27;}.cls-173,.cls-70{stroke:#5b5a5d;}.cls-129,.cls-130,.cls-145,.cls-72{stroke-width:0.5px;}.cls-73{fill:#99999a;}.cls-74{fill:#171717;}.cls-75{fill:#c6c7c9;}.cls-76{fill:#f1e902;}.cls-77{fill:#7cc244;}.cls-113,.cls-114,.cls-115,.cls-116,.cls-117,.cls-119,.cls-159,.cls-191,.cls-193,.cls-196,.cls-206,.cls-210,.cls-78,.cls-89,.cls-90,.cls-92,.cls-93,.cls-94{stroke:#211e1e;}.cls-78{stroke-width:2.02px;}.cls-79{fill:#272660;}.cls-80{fill:#a4a7a9;}.cls-81{fill:#7bc044;}.cls-82{fill:#314b6c;}.cls-157,.cls-158,.cls-85{stroke:#babcbe;}.cls-104,.cls-105,.cls-175,.cls-177,.cls-178,.cls-85,.cls-86{stroke-width:5px;}.cls-87,.cls-88,.cls-95{stroke-width:15px;}.cls-89{stroke-width:0.18px;}.cls-90{stroke-width:0.22px;}.cls-91{fill:#a5a5a9;}.cls-92{stroke-width:0.17px;}.cls-93{stroke-width:0.13px;}.cls-94{stroke-width:0.1px;}.cls-101,.cls-103,.cls-105,.cls-107,.cls-109,.cls-110,.cls-95,.cls-96,.cls-99{stroke:#211e1f;}.cls-97{stroke:#b9bbbd;}.cls-183,.cls-186,.cls-187,.cls-98,.cls-99{stroke-width:12px;}.cls-100,.cls-101,.cls-189{stroke-width:8px;}.cls-102,.cls-103,.cls-174{stroke-width:6px;}.cls-108,.cls-109{stroke-width:7px;}.cls-112{fill:#e5e5e5;}.cls-113{stroke-width:0.18px;}.cls-114{stroke-width:0.16px;}.cls-115{stroke-width:0.09px;}.cls-116{stroke-width:0.28px;}.cls-117{stroke-width:0.17px;}.cls-118{fill:#2b2929;}.cls-119{stroke-width:0.21px;}.cls-120,.cls-144{fill:#175c94;}.cls-121{fill:#a4833a;}.cls-122{fill:#ed3837;}.cls-123{fill:#f89b53;}.cls-124{fill:#262223;}.cls-125,.cls-131{stroke:#323031;}.cls-126,.cls-168,.cls-173,.cls-196,.cls-218{stroke-width:0.25px;}.cls-131{fill:#3c3b3c;stroke-width:1.03px;}.cls-132{opacity:0.32;}.cls-133{fill:#d79528;}.cls-134{fill:#835d25;}.cls-135{fill:#ed2a2b;}.cls-138,.cls-148{fill:#121212;}.cls-139{stroke-width:0.8px;}.cls-140{fill:#dbd560;}.cls-141{stroke-width:0.75px;}.cls-142,.cls-143,.cls-144{stroke:#909295;}.cls-147{stroke-width:0.63px;}.cls-149{stroke:#808083;}.cls-150{fill:#191919;}.cls-151{fill:#333;}.cls-152{fill:#f15b2d;}.cls-153{fill:#aea2a0;}.cls-154{fill:#b4ada7;}.cls-155{fill:#948b8a;}.cls-156{fill:#7b8188;}.cls-157{stroke-width:1.83px;}.cls-158{stroke-width:1.81px;}.cls-159{stroke-width:1.33px;}.cls-160{fill:#434342;}.cls-161{stroke:#2d2f6c;stroke-width:21px;}.cls-162{fill:#cfd2d3;}.cls-163{fill:#363435;}.cls-164{fill:#505052;}.cls-165{fill:#955f25;}.cls-166{clip-path:url(#clip-path);}.cls-167{fill:#f59222;}.cls-168{stroke:#ab6b29;}.cls-169{fill:#9a9ba0;}.cls-170{fill:#bc984b;}.cls-171{fill:#857133;}.cls-172{fill:#808083;}.cls-175{stroke:#e8282b;}.cls-176{fill:#909294;}.cls-177{stroke:#754e2a;}.cls-178{stroke:#2c3a8c;}.cls-179,.cls-192{stroke:#434342;}.cls-179{stroke-width:25px;}.cls-180{fill:#e4424f;}.cls-181{fill:#892129;}.cls-182{stroke-width:3.94px;opacity:0.8;}.cls-184{fill:#c64e5f;}.cls-185{fill:#8e464f;}.cls-188,.cls-190{stroke-width:11px;}.cls-191{stroke-width:0.39px;}.cls-192{stroke-width:0.56px;}.cls-193{stroke-width:0.37px;}.cls-194{fill:#271e21;}.cls-195{fill:#616262;}.cls-198{fill:#ddd6d3;}.cls-199{fill:#dfd6c8;}.cls-200{fill:#c1baae;}.cls-201{stroke:#c1baae;stroke-width:0.34px;}.cls-202{fill:#b2a696;}.cls-203{fill:#7b776c;}.cls-204{fill:#e8e2d0;}.cls-205{fill:#404042;}.cls-206{stroke-width:0.27px;}.cls-207,.cls-210{stroke-width:0.38px;}.cls-208{stroke:#7f8081;stroke-width:0.07px;}.cls-209{fill:#018fb9;}.cls-211{fill:#010101;}.cls-211,.cls-212,.cls-213{fill-rule:evenodd;}.cls-214{stroke:#2b2929;stroke-width:10px;}.cls-215{fill:#929497;}.cls-216{fill:#d0d2d3;}.cls-217{fill:#dbdddd;}.cls-218{stroke:#343637;}.cls-219{fill:#b59248;}.cls-220{fill:#927738;}.cls-221{fill:#d2ad2a;}.cls-222{fill:#7e6b2b;}</style>
  </defs>
  <g
     inkscape:groupmode="layer"
     id="layer2"
     inkscape:label="Layer 1"
     transform="translate(5.91052,2.0194398)">
    <path
       class="cls-65"
       d="m 66.03948,62.63056 h -51.95 V 7.9805602 h 51.95"
       id="path1877"
       style="fill:#4e4e50"
       sodipodi:nodetypes="cccc" />
    <rect
       class="cls-62"
       x="19.089212"
       y="25.73015"
       width="27.959999"
       height="15.95"
       id="rect2151"
       style="fill:#5b5a5d" />
    <rect
       class="cls-63"
       x="25.379221"
       y="28.72014"
       width="17.940001"
       height="9.4700003"
       id="rect2153"
       style="fill:#f2f2f2" />
    <rect
       class="cls-62"
       x="19.089212"
       y="41.680161"
       width="27.959999"
       height="15.95"
       id="rect2157"
       style="fill:#5b5a5d" />
    <rect
       class="cls-63"
       x="25.379221"
       y="44.670151"
       width="17.940001"
       height="9.4700003"
       id="rect2159"
       style="fill:#f2f2f2" />
    <g
       id="g1739">
      <path
         class="cls-61"
         d="m 33.71922,33.71015 a 6.29,6.29 0 1 1 -6.29,-6.3 6.29,6.29 0 0 1 6.29,6.3"
         id="path2155"
         style="fill:#211e1e" />
      <path
         class="cls-61"
         d="m 33.71922,49.66015 a 6.29,6.29 0 1 1 -6.29,-6.3 6.29,6.29 0 0 1 6.29,6.3"
         id="path2161"
         style="fill:#211e1e" />
    </g>
    <path
       class="cls-2"
       d="m 29.03922,18.05015 a 3.23,3.23 0 0 1 -0.41,1.26 2.3,2.3 0 0 1 -0.92,0.88 3.19,3.19 0 0 1 -1.49,0.32 2.71,2.71 0 0 1 -1.53,-0.43 2.79,2.79 0 0 1 -1,-1.2 4.23,4.23 0 0 1 -0.37,-1.81 v -0.75 a 4.27,4.27 0 0 1 0.37,-1.81 2.83,2.83 0 0 1 1,-1.2 2.87,2.87 0 0 1 1.59,-0.43 3,3 0 0 1 1.42,0.32 2.24,2.24 0 0 1 0.91,0.87 3.49,3.49 0 0 1 0.4,1.29 h -1 a 2.39,2.39 0 0 0 -0.5,-1.23 1.55,1.55 0 0 0 -1.24,-0.45 1.78,1.78 0 0 0 -1.1,0.33 2,2 0 0 0 -0.67,0.92 3.91,3.91 0 0 0 -0.23,1.38 v 0.76 a 4.27,4.27 0 0 0 0.2,1.33 2.18,2.18 0 0 0 0.63,1 1.65,1.65 0 0 0 1.08,0.35 2,2 0 0 0 1,-0.2 1.24,1.24 0 0 0 0.56,-0.57 2.91,2.91 0 0 0 0.28,-0.89 z"
       id="path2275"
       style="fill:#ffffff" />
    <path
       class="cls-2"
       d="m 30.66922,20.41015 h -1 l 2.83,-7.43 h 0.65 v 0.66 z m 4.38,-1.95 h -4.17 v -0.8 h 4.17 z m -2.34,-4.82 v -0.66 h 0.65 l 2.84,7.43 h -1 z"
       id="path2277"
       style="fill:#ffffff" />
    <path
       class="cls-2"
       d="m 42.89922,20.41015 h -1 l -3.72,-5.74 v 5.74 h -1 v -7.43 h 1 l 3.74,5.76 v -5.76 h 1 z"
       id="path2279"
       style="fill:#ffffff" />
    <path
       class="cls-2"
       d="m 57.88922,50.98056 h -0.65 v -5 h 0.65 z m 2.58,-2.29 h -2.68 v -0.53 h 2.68 z m 0.57,2.29 h -0.66 v -5 h 0.66 z"
       id="path2281"
       style="fill:#ffffff" />
    <path
       class="cls-2"
       d="m 57.88922,33.93056 h -0.65 v -4.95 h 0.65 z m 2.35,0 h -2.47 v -0.53 h 2.47 z"
       id="path2283"
       style="fill:#ffffff" />
    <path
       class="cls-61"
       d="m 39.96922,33.46015 a 0.94,0.94 0 1 1 -0.93,-0.94 0.93,0.93 0 0 1 0.93,0.94"
       id="path2447"
       style="fill:#211e1e" />
    <path
       class="cls-61"
       d="m 39.96922,49.66015 a 0.94,0.94 0 1 1 -0.93,-0.94 0.93,0.93 0 0 1 0.93,0.94"
       id="path2449"
       style="fill:#211e1e" />
    <g
       id="g1657"
       transform="translate(23.842953,1.026901)">
      <path
         id="polyline6489"
         style="display:inline;fill:none;stroke:#d5dc28;stroke-width:2px;stroke-linejoin:round;stroke-opacity:1"
         class="cls-84"
         d="m -29.753473,38.41407 13.710008,-4.1e-4 v 10.20959 h 14.6694214"
         sodipodi:nodetypes="cccc" />
      <path
         id="polyline6491"
         style="display:inline;fill:none;stroke:#37b04a;stroke-width:2px;stroke-linejoin:round;stroke-opacity:1"
         class="cls-83"
         d="m -29.753473,42.883659 h 16.855004 V 32.67325 h 11.5244254"
         sodipodi:nodetypes="cccc" />
      <path
         id="path2800"
         style="display:inline;fill:none;stroke:#d5dc28;stroke-width:2px;stroke-linecap:round;stroke-linejoin:round;stroke-opacity:1"
         class="cls-84"
         d="M -1.3740436,48.62325 H 3.5862751"
         sodipodi:nodetypes="cc" />
      <path
         id="path2802"
         style="display:inline;fill:none;stroke:#37b04a;stroke-width:2px;stroke-linecap:round;stroke-linejoin:round;stroke-opacity:1"
         class="cls-83"
         d="M -1.3740436,32.67325 H 3.5862751"
         sodipodi:nodetypes="cc" />
    </g>
    <text
       xml:space="preserve"
       id="text85380"
       x="-13.189565"
       y="-2.2277727"
       style="font-size:21.3333px;line-height:1.25;font-family:Roboto;-inkscape-font-specification:Roboto;letter-spacing:0;word-spacing:0;writing-mode:lr-tb;display:inline;fill:#000000"><tspan
         id="tspan85378"
         x="-13.189565"
         y="-2.2277727"
         style="font-style:normal;font-variant:normal;font-weight:300;font-stretch:normal;font-size:21.3333px;font-family:Roboto;-inkscape-font-specification:'Roboto Light';fill:#000000">RIO CAN</tspan></text>
  </g>
</svg>
