<?xml version="1.0" encoding="UTF-8" standalone="no"?>
<svg
   id="Layer_1"
   width="247.772"
   height="87.129"
   data-name="Layer 1"
   version="1.1"
   sodipodi:docname="hc_10.svg"
   inkscape:version="1.1.2 (0a00cf5339, 2022-02-04)"
   xmlns:inkscape="http://www.inkscape.org/namespaces/inkscape"
   xmlns:sodipodi="http://sodipodi.sourceforge.net/DTD/sodipodi-0.dtd"
   xmlns="http://www.w3.org/2000/svg"
   xmlns:svg="http://www.w3.org/2000/svg">
  <sodipodi:namedview
     id="namedview39"
     pagecolor="#ffffff"
     bordercolor="#999999"
     borderopacity="1"
     inkscape:pageshadow="0"
     inkscape:pageopacity="0"
     inkscape:pagecheckerboard="0"
     showgrid="false"
     inkscape:zoom="3.3960943"
     inkscape:cx="52.560378"
     inkscape:cy="43.579473"
     inkscape:window-width="1920"
     inkscape:window-height="1020"
     inkscape:window-x="0"
     inkscape:window-y="0"
     inkscape:window-maximized="1"
     inkscape:current-layer="Layer_1" />
  <defs
     id="defs7">
    <marker
       id="marker68842"
       orient="auto"
       refX="0"
       refY="0"
       style="overflow:visible">
      <path
         id="path68840"
         d="m0 0 5-5-17.5 5L5 5Z"
         style="fill:context-stroke;fill-rule:evenodd;stroke:context-stroke;stroke-width:1pt"
         transform="translate(10)scale(.8)" />
    </marker>
    <marker
       id="Arrow1Lstart"
       orient="auto"
       refX="0"
       refY="0"
       style="overflow:visible">
      <path
         id="path31255"
         d="m0 0 5-5-17.5 5L5 5Z"
         style="fill:context-stroke;fill-rule:evenodd;stroke:context-stroke;stroke-width:1pt"
         transform="translate(10)scale(.8)" />
    </marker>
    <style
       id="style2">.cls-30 { fill:#323031 }
.cls-121 { fill:#a4833a }
.cls-123 { fill:#f89b53 }
.cls-134 { fill:#835d25 }
.cls-output-wire { stroke-width:15px }
</style>
  </defs>
  <path
     id="polyline2575"
     d="M22.681 29.73H0"
     style="fill:none;stroke:#231f20;stroke-linecap:butt;stroke-linejoin:round"
     class="cls-output-wire" />
  <rect
     id="rect35911"
     width="111.925"
     height="66.047"
     x="22.681"
     y="10.542"
     rx="0"
     style="fill:#1a1a1a;fill-opacity:1;stroke:none;stroke-width:1;stroke-linecap:round;stroke-linejoin:bevel;stroke-miterlimit:4;stroke-dasharray:none;stroke-dashoffset:0;stroke-opacity:1;paint-order:stroke fill markers" />
  <path
     id="polyline2577"
     d="M0 59.85h22.68"
     style="stroke-linejoin:round;stroke-linecap:butt;stroke:#e6282b;fill:none"
     class="cls-output-wire" />
  <rect
     id="rect30883"
     width="116.41"
     height="66.047"
     x="120.821"
     y="10.542"
     rx="0"
     style="mix-blend-mode:normal;fill:#212121;fill-opacity:1;stroke:none;stroke-width:1;stroke-linecap:round;stroke-linejoin:bevel;stroke-miterlimit:4;stroke-dasharray:none;stroke-dashoffset:0;stroke-opacity:1;paint-order:stroke fill markers" />
  <path
     id="path3895"
     d="M124.881 21.475h98.83c3.75.87 6 3 6.58 6.53l.07 11.47a7.43 7.43 0 0 1-6.88 7.13h-37.55c-2.32.24-3.3 1.05-3.31 2.29v2.28c-.62 3.62-2.63 5.81-6.08 6.52l-51.66.06z"
     style="fill:#bababa" />
  <g
     aria-label="##"
     transform="rotate(90)"
     id="text2941"
     style="font-size:12.2667px;line-height:1.25;font-family:Roboto;-inkscape-font-specification:Roboto;letter-spacing:0;word-spacing:0;fill:#747578">
    <path
       d="m 42.474633,-132.12274 h -0.964326 l -0.401303,2.45573 h -1.19193 l 0.401303,-2.45573 h -1.329691 v -1.0961 h 1.509379 l 0.263543,-1.58125 h -1.323702 v -1.0961 h 1.50339 l 0.413282,-2.49167 h 1.185941 l -0.407293,2.49167 h 0.964325 l 0.413283,-2.49167 h 1.19193 l -0.413282,2.49167 h 1.383597 v 1.0961 h -1.563285 l -0.263543,1.58125 h 1.371619 v 1.0961 h -1.551307 l -0.401303,2.45573 h -1.19193 z m -0.784638,-1.0961 h 0.964326 l 0.263542,-1.58125 h -0.964325 z"
       style="font-weight:900;-inkscape-font-specification:'Roboto Heavy'"
       id="path867" />
    <path
       d="m 49.602257,-132.12274 h -0.964326 l -0.401303,2.45573 h -1.19193 l 0.401303,-2.45573 H 46.11631 v -1.0961 h 1.509379 l 0.263542,-1.58125 H 46.56553 v -1.0961 h 1.503389 l 0.413282,-2.49167 h 1.185941 l -0.407293,2.49167 h 0.964326 l 0.413282,-2.49167 h 1.191931 l -0.413283,2.49167 h 1.383598 v 1.0961 h -1.563286 l -0.263542,1.58125 h 1.371618 v 1.0961 h -1.551306 l -0.401303,2.45573 h -1.191931 z m -0.784638,-1.0961 h 0.964326 l 0.263542,-1.58125 h -0.964326 z"
       style="font-weight:900;-inkscape-font-specification:'Roboto Heavy'"
       id="path869" />
  </g>
  <circle
     id="circle3905"
     cx="132.751"
     cy="31.525"
     r="3.05"
     style="fill:#ed3837" />
  <path
     id="rect4283"
     d="M-113.871-73.435h87.18v30.3h-87.18z"
     style="fill:#d93b37"
     transform="scale(-1)" />
  <path
     id="polygon4285"
     d="M1700.52 278.15v-2.58h-64.6v3.15h55.73v27.15h8.87v-23.72h-6.58v-3.72z"
     style="fill:#ef413e"
     transform="translate(-1586.639 -232.445)" />
  <path
     id="path4287"
     d="M15.551 65.995c.34 4.4 3.34 7.2 9.14 8.29h24v-1.14h25.15l5.14-7.15h23.44v-14.29h-23.44l-8.57-4.86h-21.72v-1.43h-24c-5.59 1.24-8.71 3.73-9.15 7.58zm30-10.86v-1.43h4.29v1.43q5.73 4.71 0 9.43v1.43h-4.29v-1.44c-4.27-3.07-4.1-6.21.01-9.42z"
     class="cls-123" />
  <path
     id="rect4289"
     d="M-113.871-43.145h87.18v30.3h-87.18z"
     style="fill:#231f20"
     transform="scale(-1)" />
  <path
     id="polygon4291"
     d="M1700.52 247.87v-2.57h-64.6v3.14h55.73v27.16h8.87v-23.73h-6.58v-3.71z"
     class="cls-30"
     transform="translate(-1586.639 -232.445)" />
  <path
     id="path4293"
     d="M15.551 35.715c.34 4.41 3.34 7.2 9.14 8.29h24v-1.14h25.15l5.14-7.15h23.44v-14.29h-23.44l-8.57-4.86h-21.72v-1.43h-24c-5.59 1.24-8.71 3.73-9.15 7.58zm30-10.86v-1.43h4.29v1.43q5.73 4.72 0 9.43v1.43h-4.29v-1.43c-4.27-3.08-4.1-6.22.01-9.43z"
     class="cls-123" />
  <g
     id="g966"
     transform="translate(-39.40794,-23.95277)">
    <rect
       class="cls-184"
       x="188.68896"
       y="37.917809"
       width="83.739998"
       height="40.18"
       rx="6.8299999"
       id="rect6475"
       style="fill:#c64e5f" />
    <path
       class="cls-185"
       d="m 212.14894,63.15777 h -1.58 v -7.38 l -2.25,0.76 v -1.32 l 3.63,-1.33 h 0.2 z"
       id="path6477"
       style="fill:#8e464f" />
    <path
       class="cls-185"
       d="m 221.54894,63.15777 h -6.23 v -1.08 l 3,-3.27 a 11.15,11.15 0 0 0 0.78,-0.95 2.94,2.94 0 0 0 0.4,-0.72 2,2 0 0 0 0.11,-0.62 1.57,1.57 0 0 0 -0.35,-1.05 1.24,1.24 0 0 0 -1,-0.41 1.51,1.51 0 0 0 -0.85,0.22 1.33,1.33 0 0 0 -0.52,0.6 2.14,2.14 0 0 0 -0.17,0.87 h -1.57 a 3.09,3.09 0 0 1 0.36,-1.48 2.8,2.8 0 0 1 1.08,-1.08 3.43,3.43 0 0 1 1.69,-0.4 3.07,3.07 0 0 1 2.16,0.7 2.38,2.38 0 0 1 0.76,1.86 2.77,2.77 0 0 1 -0.25,1.15 5.22,5.22 0 0 1 -0.68,1.13 12.23,12.23 0 0 1 -1,1.15 l -2,2.12 h 4.24 z"
       id="path6479"
       style="fill:#8e464f" />
    <path
       class="cls-185"
       d="m 226.31894,61.40777 0.33,1.74 h -1.22 l -3.3,-9.24 h 1.81 z m 2.23,-7.5 h 1.81 l -3.31,9.24 h -1.26 l 0.31,-1.74 z"
       id="path6481"
       style="fill:#8e464f" />
    <path
       class="cls-185"
       d="m 235.35894,63.15777 h -1.57 v -7.38 l -2.26,0.76 v -1.32 l 3.64,-1.33 h 0.2 z"
       id="path6483"
       style="fill:#8e464f" />
    <path
       class="cls-185"
       d="m 244.57894,59.28777 a 5.93,5.93 0 0 1 -0.37,2.31 2.61,2.61 0 0 1 -1.06,1.29 3.38,3.38 0 0 1 -3.19,0 2.62,2.62 0 0 1 -1.07,-1.29 5.74,5.74 0 0 1 -0.38,-2.31 v -1.53 a 5.93,5.93 0 0 1 0.37,-2.31 2.59,2.59 0 0 1 1.07,-1.26 3.13,3.13 0 0 1 1.59,-0.4 3.16,3.16 0 0 1 1.6,0.4 2.53,2.53 0 0 1 1.06,1.26 5.74,5.74 0 0 1 0.38,2.31 z m -1.57,-1.76 a 5.09,5.09 0 0 0 -0.17,-1.45 1.45,1.45 0 0 0 -0.5,-0.78 1.44,1.44 0 0 0 -1.59,0 1.51,1.51 0 0 0 -0.5,0.78 5.09,5.09 0 0 0 -0.17,1.45 v 2 a 5.16,5.16 0 0 0 0.17,1.46 1.62,1.62 0 0 0 0.51,0.81 1.39,1.39 0 0 0 1.59,0 1.54,1.54 0 0 0 0.49,-0.81 5.16,5.16 0 0 0 0.17,-1.46 z"
       id="path6485"
       style="fill:#8e464f" />
    <path
       class="cls-185"
       d="m 247.05894,63.15777 h -1.72 l 3.48,-9.24 h 1.09 l -0.1,1.31 z m 4.91,-2.11 h -5 v -1.32 h 5 z m -2.64,-5.82 -0.12,-1.31 h 1.1 l 3.49,9.24 h -1.72 z"
       id="path6487"
       style="fill:#8e464f" />
  </g>
  <text
     xml:space="preserve"
     id="text85380"
     x="83.22"
     y="-6.49"
     style="font-size:21.3333px;line-height:1.25;font-family:Roboto;-inkscape-font-specification:Roboto;letter-spacing:0;word-spacing:0;writing-mode:lr-tb;fill:#000"><tspan
       id="tspan85378"
       x="83.22"
       y="-6.49"
       style="font-style:normal;font-variant:normal;font-weight:300;font-stretch:normal;font-size:21.3333px;font-family:Roboto;-inkscape-font-specification:&quot;Roboto Light&quot;;fill:#000">PDH High Current</tspan></text>
</svg>
