<?xml version="1.0" encoding="UTF-8" standalone="no"?>
<svg
   id="Layer_1"
   data-name="Layer 1"
   viewBox="0 0 194.3114 164.89999"
   version="1.1"
   sodipodi:docname="lc_full.svg"
   width="194.3114"
   height="164.89999"
   inkscape:version="1.1.2 (0a00cf5339, 2022-02-04)"
   xmlns:inkscape="http://www.inkscape.org/namespaces/inkscape"
   xmlns:sodipodi="http://sodipodi.sourceforge.net/DTD/sodipodi-0.dtd"
   xmlns="http://www.w3.org/2000/svg"
   xmlns:svg="http://www.w3.org/2000/svg">
  <sodipodi:namedview
     id="namedview7192"
     pagecolor="#ffffff"
     bordercolor="#999999"
     borderopacity="1"
     inkscape:pageshadow="0"
     inkscape:pageopacity="0"
     inkscape:pagecheckerboard="0"
     showgrid="false"
     fit-margin-top="10"
     fit-margin-left="20"
     fit-margin-right="10"
     fit-margin-bottom="10"
     inkscape:zoom="3.6728396"
     inkscape:cx="122.65714"
     inkscape:cy="76.77983"
     inkscape:window-width="1920"
     inkscape:window-height="1020"
     inkscape:window-x="0"
     inkscape:window-y="0"
     inkscape:window-maximized="1"
     inkscape:current-layer="Layer_1"
     showguides="true"
     inkscape:guide-bbox="true">
    <sodipodi:guide
       position="20,154.89999"
       orientation="0,174.3114"
       id="guide5797" />
    <sodipodi:guide
       position="194.3114,154.89999"
       orientation="144.89999,0"
       id="guide5799" />
    <sodipodi:guide
       position="194.3114,9.9999998"
       orientation="0,-174.3114"
       id="guide5801" />
    <sodipodi:guide
       position="20,9.9999998"
       orientation="-144.89999,0"
       id="guide5803" />
  </sodipodi:namedview>
  <defs
     id="defs7">
    <style
       id="style2">.cls-1,.cls-100,.cls-101,.cls-102,.cls-103,.cls-104,.cls-105,.cls-106,.cls-107,.cls-108,.cls-109,.cls-110,.cls-113,.cls-114,.cls-115,.cls-116,.cls-117,.cls-119,.cls-12,.cls-125,.cls-126,.cls-127,.cls-13,.cls-130,.cls-139,.cls-14,.cls-143,.cls-145,.cls-146,.cls-147,.cls-149,.cls-15,.cls-157,.cls-158,.cls-159,.cls-161,.cls-168,.cls-173,.cls-174,.cls-175,.cls-177,.cls-178,.cls-179,.cls-182,.cls-183,.cls-186,.cls-187,.cls-188,.cls-189,.cls-190,.cls-191,.cls-192,.cls-193,.cls-196,.cls-197,.cls-201,.cls-206,.cls-207,.cls-208,.cls-210,.cls-214,.cls-218,.cls-24,.cls-25,.cls-27,.cls-3,.cls-37,.cls-4,.cls-42,.cls-46,.cls-50,.cls-56,.cls-57,.cls-6,.cls-70,.cls-71,.cls-72,.cls-78,.cls-83,.cls-84,.cls-85,.cls-86,.cls-87,.cls-88,.cls-89,.cls-90,.cls-92,.cls-93,.cls-94,.cls-95,.cls-96,.cls-97,.cls-98,.cls-99{fill:none;}.cls-2,.cls-212{fill:#fff;}.cls-174,.cls-183,.cls-186,.cls-189,.cls-197,.cls-3,.cls-57,.cls-86,.cls-87{stroke:#231f20;}.cls-100,.cls-101,.cls-102,.cls-103,.cls-104,.cls-105,.cls-106,.cls-107,.cls-108,.cls-109,.cls-110,.cls-111,.cls-12,.cls-139,.cls-14,.cls-146,.cls-15,.cls-159,.cls-161,.cls-174,.cls-175,.cls-177,.cls-178,.cls-179,.cls-182,.cls-183,.cls-188,.cls-189,.cls-197,.cls-214,.cls-3,.cls-4,.cls-5,.cls-50,.cls-56,.cls-57,.cls-6,.cls-85,.cls-86,.cls-87,.cls-88,.cls-95,.cls-96,.cls-97,.cls-98,.cls-99{stroke-linecap:round;}.cls-100,.cls-101,.cls-102,.cls-103,.cls-104,.cls-105,.cls-106,.cls-107,.cls-108,.cls-109,.cls-110,.cls-12,.cls-139,.cls-14,.cls-146,.cls-15,.cls-157,.cls-158,.cls-159,.cls-161,.cls-174,.cls-175,.cls-177,.cls-178,.cls-179,.cls-182,.cls-183,.cls-186,.cls-187,.cls-188,.cls-189,.cls-190,.cls-197,.cls-214,.cls-3,.cls-4,.cls-5,.cls-50,.cls-56,.cls-57,.cls-6,.cls-83,.cls-84,.cls-85,.cls-86,.cls-87,.cls-88,.cls-95,.cls-96,.cls-97,.cls-98,.cls-99{stroke-linejoin:round;}.cls-111,.cls-3,.cls-4,.cls-5,.cls-96,.cls-97{stroke-width:3px;}.cls-100,.cls-102,.cls-104,.cls-106,.cls-108,.cls-187,.cls-188,.cls-190,.cls-4,.cls-56,.cls-88,.cls-98{stroke:#e6282b;}.cls-5{fill:#d7de27;stroke:#d7de27;}.cls-111,.cls-126,.cls-13,.cls-145,.cls-146,.cls-147,.cls-182,.cls-50,.cls-6,.cls-7,.cls-71{stroke:#414142;}.cls-6{stroke-width:9px;}.cls-142,.cls-19,.cls-43,.cls-47,.cls-7{fill:#bababa;}.cls-111,.cls-113,.cls-114,.cls-115,.cls-116,.cls-117,.cls-119,.cls-125,.cls-126,.cls-127,.cls-128,.cls-129,.cls-13,.cls-130,.cls-131,.cls-136,.cls-137,.cls-141,.cls-142,.cls-143,.cls-144,.cls-145,.cls-147,.cls-148,.cls-149,.cls-16,.cls-168,.cls-173,.cls-191,.cls-192,.cls-193,.cls-196,.cls-201,.cls-206,.cls-207,.cls-208,.cls-210,.cls-218,.cls-22,.cls-24,.cls-25,.cls-27,.cls-37,.cls-39,.cls-40,.cls-41,.cls-42,.cls-43,.cls-44,.cls-45,.cls-46,.cls-47,.cls-49,.cls-7,.cls-70,.cls-71,.cls-72,.cls-78,.cls-89,.cls-90,.cls-92,.cls-93,.cls-94{stroke-miterlimit:10;}.cls-8{fill:#1c1c1c;}.cls-9{fill:#141414;}.cls-10{fill:#0d0d0d;}.cls-11,.cls-40{fill:#231f20;}.cls-12,.cls-137,.cls-139{stroke:#010101;}.cls-12{stroke-width:0.51px;}.cls-13,.cls-50,.cls-71{stroke-width:4px;}.cls-13,.cls-50{opacity:0.9;}.cls-14,.cls-84{stroke:#37b04a;}.cls-106,.cls-107,.cls-125,.cls-136,.cls-14,.cls-148,.cls-15,.cls-197,.cls-83,.cls-84{stroke-width:2px;}.cls-15,.cls-83{stroke:#d5dc28;}.cls-136,.cls-16,.cls-18{fill:#1a1a1a;}.cls-136,.cls-148,.cls-16,.cls-27{stroke:#383739;}.cls-16{stroke-width:1.63px;}.cls-137,.cls-17{fill:#212121;}.cls-20{fill:#0d91ce;}.cls-21,.cls-41{fill:#2c292a;}.cls-129,.cls-22{fill:#e9e8e9;}.cls-129,.cls-130,.cls-22,.cls-24{stroke:#424242;}.cls-22,.cls-24{stroke-width:0.41px;}.cls-23{fill:#a7a9ac;}.cls-25{stroke:#929497;}.cls-25,.cls-27,.cls-49{stroke-width:0.61px;}.cls-26{fill:#999;}.cls-28{fill:#ef413e;}.cls-29,.cls-45{fill:#d93b37;}.cls-30{fill:#323031;}.cls-31{fill:#aeb636;}.cls-32{fill:#d5dc28;}.cls-33{fill:#37b04a;}.cls-34{fill:#2b9446;}.cls-35{fill:#080808;}.cls-128,.cls-36{fill:#e8e8e8;}.cls-127,.cls-128,.cls-37{stroke:#e8e8e8;}.cls-37{stroke-width:0.81px;}.cls-38{fill:#808184;}.cls-132,.cls-39,.cls-67{fill:#6e6f71;}.cls-207,.cls-39,.cls-72{stroke:#fff;}.cls-39,.cls-40,.cls-41,.cls-42,.cls-43,.cls-44,.cls-45,.cls-46,.cls-47{stroke-width:0.08px;}.cls-40,.cls-41,.cls-42,.cls-43{stroke:#6e6f71;}.cls-44{fill:#b42e2c;}.cls-44,.cls-45,.cls-46,.cls-47{stroke:#dd5f70;}.cls-48{fill:#747578;}.cls-141,.cls-49{fill:#60b356;stroke:#cfd0d3;}.cls-51{fill:#383739;}.cls-111,.cls-52{fill:#414142;}.cls-53{fill:#be2c3a;}.cls-54{fill:#846c30;}.cls-55{fill:#a2a63c;}.cls-110,.cls-56,.cls-57{stroke-width:20px;}.cls-58{fill:#323130;}.cls-59{fill:#819355;}.cls-60{fill:#bc2031;}.cls-213,.cls-61{fill:#211e1e;}.cls-62{fill:#5b5a5d;}.cls-63{fill:#f2f2f2;}.cls-64{fill:#079247;}.cls-65{fill:#4e4e50;}.cls-66{fill:#595a5c;}.cls-68{fill:#636467;}.cls-69{fill:#6a5f27;}.cls-173,.cls-70{stroke:#5b5a5d;}.cls-129,.cls-130,.cls-145,.cls-72{stroke-width:0.5px;}.cls-73{fill:#99999a;}.cls-74{fill:#171717;}.cls-75{fill:#c6c7c9;}.cls-76{fill:#f1e902;}.cls-77{fill:#7cc244;}.cls-113,.cls-114,.cls-115,.cls-116,.cls-117,.cls-119,.cls-159,.cls-191,.cls-193,.cls-196,.cls-206,.cls-210,.cls-78,.cls-89,.cls-90,.cls-92,.cls-93,.cls-94{stroke:#211e1e;}.cls-78{stroke-width:2.02px;}.cls-79{fill:#272660;}.cls-80{fill:#a4a7a9;}.cls-81{fill:#7bc044;}.cls-82{fill:#314b6c;}.cls-157,.cls-158,.cls-85{stroke:#babcbe;}.cls-104,.cls-105,.cls-175,.cls-177,.cls-178,.cls-85,.cls-86{stroke-width:5px;}.cls-87,.cls-88,.cls-95{stroke-width:15px;}.cls-89{stroke-width:0.18px;}.cls-90{stroke-width:0.22px;}.cls-91{fill:#a5a5a9;}.cls-92{stroke-width:0.17px;}.cls-93{stroke-width:0.13px;}.cls-94{stroke-width:0.1px;}.cls-101,.cls-103,.cls-105,.cls-107,.cls-109,.cls-110,.cls-95,.cls-96,.cls-99{stroke:#211e1f;}.cls-97{stroke:#b9bbbd;}.cls-183,.cls-186,.cls-187,.cls-98,.cls-99{stroke-width:12px;}.cls-100,.cls-101,.cls-189{stroke-width:8px;}.cls-102,.cls-103,.cls-174{stroke-width:6px;}.cls-108,.cls-109{stroke-width:7px;}.cls-112{fill:#e5e5e5;}.cls-113{stroke-width:0.18px;}.cls-114{stroke-width:0.16px;}.cls-115{stroke-width:0.09px;}.cls-116{stroke-width:0.28px;}.cls-117{stroke-width:0.17px;}.cls-118{fill:#2b2929;}.cls-119{stroke-width:0.21px;}.cls-120,.cls-144{fill:#175c94;}.cls-121{fill:#a4833a;}.cls-122{fill:#ed3837;}.cls-123{fill:#f89b53;}.cls-124{fill:#262223;}.cls-125,.cls-131{stroke:#323031;}.cls-126,.cls-168,.cls-173,.cls-196,.cls-218{stroke-width:0.25px;}.cls-131{fill:#3c3b3c;stroke-width:1.03px;}.cls-132{opacity:0.32;}.cls-133{fill:#d79528;}.cls-134{fill:#835d25;}.cls-135{fill:#ed2a2b;}.cls-138,.cls-148{fill:#121212;}.cls-139{stroke-width:0.8px;}.cls-140{fill:#dbd560;}.cls-141{stroke-width:0.75px;}.cls-142,.cls-143,.cls-144{stroke:#909295;}.cls-147{stroke-width:0.63px;}.cls-149{stroke:#808083;}.cls-150{fill:#191919;}.cls-151{fill:#333;}.cls-152{fill:#f15b2d;}.cls-153{fill:#aea2a0;}.cls-154{fill:#b4ada7;}.cls-155{fill:#948b8a;}.cls-156{fill:#7b8188;}.cls-157{stroke-width:1.83px;}.cls-158{stroke-width:1.81px;}.cls-159{stroke-width:1.33px;}.cls-160{fill:#434342;}.cls-161{stroke:#2d2f6c;stroke-width:21px;}.cls-162{fill:#cfd2d3;}.cls-163{fill:#363435;}.cls-164{fill:#505052;}.cls-165{fill:#955f25;}.cls-166{clip-path:url(#clip-path);}.cls-167{fill:#f59222;}.cls-168{stroke:#ab6b29;}.cls-169{fill:#9a9ba0;}.cls-170{fill:#bc984b;}.cls-171{fill:#857133;}.cls-172{fill:#808083;}.cls-175{stroke:#e8282b;}.cls-176{fill:#909294;}.cls-177{stroke:#754e2a;}.cls-178{stroke:#2c3a8c;}.cls-179,.cls-192{stroke:#434342;}.cls-179{stroke-width:25px;}.cls-180{fill:#e4424f;}.cls-181{fill:#892129;}.cls-182{stroke-width:3.94px;opacity:0.8;}.cls-184{fill:#c64e5f;}.cls-185{fill:#8e464f;}.cls-188,.cls-190{stroke-width:11px;}.cls-191{stroke-width:0.39px;}.cls-192{stroke-width:0.56px;}.cls-193{stroke-width:0.37px;}.cls-194{fill:#271e21;}.cls-195{fill:#616262;}.cls-198{fill:#ddd6d3;}.cls-199{fill:#dfd6c8;}.cls-200{fill:#c1baae;}.cls-201{stroke:#c1baae;stroke-width:0.34px;}.cls-202{fill:#b2a696;}.cls-203{fill:#7b776c;}.cls-204{fill:#e8e2d0;}.cls-205{fill:#404042;}.cls-206{stroke-width:0.27px;}.cls-207,.cls-210{stroke-width:0.38px;}.cls-208{stroke:#7f8081;stroke-width:0.07px;}.cls-209{fill:#018fb9;}.cls-211{fill:#010101;}.cls-211,.cls-212,.cls-213{fill-rule:evenodd;}.cls-214{stroke:#2b2929;stroke-width:10px;}.cls-215{fill:#929497;}.cls-216{fill:#d0d2d3;}.cls-217{fill:#dbdddd;}.cls-218{stroke:#343637;}.cls-219{fill:#b59248;}.cls-220{fill:#927738;}.cls-221{fill:#d2ad2a;}.cls-222{fill:#7e6b2b;}</style>
  </defs>
  <path
     class="cls-17"
     d="m 189.31,110.69 3.95,5.09 0.05,14.68 -23.15,23.44 H 20 V 12.86 L 22.86,10 h 4 l 0.57,0.29 h 161.88 z"
     id="path3757"
     sodipodi:nodetypes="ccccccccccc" />
  <polygon
     class="cls-120"
     points="1782.45,930.53 1773.88,939.2 1671.35,939.2 1671.35,910.76 1778.45,910.76 1782.4,915.85 "
     id="polygon3759"
     transform="translate(-1589.14,-800.07)" />
  <rect
     class="cls-19"
     x="86.920059"
     y="30.720007"
     width="42.02"
     height="18.58"
     id="rect3761" />
  <rect
     class="cls-18"
     x="128.92995"
     y="29.310034"
     width="54.040001"
     height="21.73"
     rx="3.0699999"
     id="rect3763" />
  <rect
     class="cls-18"
     x="28.059952"
     y="17.230017"
     width="54.150002"
     height="125.64"
     rx="1.9"
     id="rect3765" />
  <rect
     class="cls-11"
     x="31.240005"
     y="20.070044"
     width="48.310001"
     height="6"
     id="rect4359" />
  <rect
     class="cls-30"
     x="31.240005"
     y="25.920019"
     width="48.310001"
     height="14.29"
     id="rect4361" />
  <path
     class="cls-23"
     d="m 44.67,27.21 c -6.63,1.36 -7.21,9.8 0.12,11.57 1.88,0.88 2.5,-0.82 3.89,-2.57 l 4.74,-0.13 a 3.36,3.36 0 0 0 0.09,-6.16 h -4.55 c -1.8,-2.06 -2,-3.24 -4.29,-2.71 z"
     id="path4363" />
  <polygon
     class="cls-124"
     points="1649.54,825.99 1649.54,836.57 1660.11,836.57 "
     id="polygon4365"
     transform="translate(-1589.14,-800.07)" />
  <polygon
     class="cls-124"
     points="1660.68,836 1650.68,825.99 1660.68,825.99 "
     id="polygon4367"
     transform="translate(-1589.14,-800.07)" />
  <rect
     class="cls-28"
     x="31.240005"
     y="40.070045"
     width="48.310001"
     height="14.29"
     id="rect4369" />
  <path
     class="cls-23"
     d="m 44.67,41.36 c -6.63,1.36 -7.21,9.8 0.12,11.58 1.88,0.87 2.5,-0.83 3.89,-2.58 l 4.74,-0.13 a 3.36,3.36 0 0 0 0.09,-6.16 h -4.55 c -1.8,-2.06 -2,-3.24 -4.29,-2.71 z"
     id="path4371" />
  <polygon
     class="cls-29"
     points="1649.54,840.14 1649.54,850.72 1660.11,850.72 "
     id="polygon4373"
     transform="translate(-1589.14,-800.07)" />
  <polygon
     class="cls-29"
     points="1660.68,850.15 1650.68,840.14 1660.68,840.14 "
     id="polygon4375"
     transform="translate(-1589.14,-800.07)" />
  <rect
     class="cls-30"
     x="31.240005"
     y="54.140053"
     width="48.310001"
     height="14.29"
     id="rect4377" />
  <path
     class="cls-23"
     d="m 44.67,55.43 c -6.63,1.36 -7.21,9.79 0.12,11.57 1.88,0.87 2.5,-0.82 3.89,-2.57 l 4.74,-0.13 a 3.36,3.36 0 0 0 0.09,-6.16 h -4.55 c -1.8,-2.06 -2,-3.21 -4.29,-2.71 z"
     id="path4379" />
  <polygon
     class="cls-124"
     points="1649.54,854.21 1649.54,864.79 1660.11,864.79 "
     id="polygon4381"
     transform="translate(-1589.14,-800.07)" />
  <polygon
     class="cls-124"
     points="1660.68,864.22 1650.68,854.21 1660.68,854.21 "
     id="polygon4383"
     transform="translate(-1589.14,-800.07)" />
  <rect
     class="cls-28"
     x="31.240005"
     y="68.290016"
     width="48.310001"
     height="14.29"
     id="rect4385" />
  <path
     class="cls-23"
     d="m 44.67,69.58 c -6.63,1.36 -7.21,9.8 0.12,11.57 1.88,0.87 2.5,-0.82 3.89,-2.57 l 4.74,-0.13 a 3.36,3.36 0 0 0 0.09,-6.16 h -4.55 c -1.8,-2.06 -2,-3.24 -4.29,-2.71 z"
     id="path4387" />
  <polygon
     class="cls-29"
     points="1649.54,868.36 1649.54,878.94 1660.11,878.94 "
     id="polygon4389"
     transform="translate(-1589.14,-800.07)" />
  <polygon
     class="cls-29"
     points="1660.68,878.37 1650.68,868.36 1660.68,868.36 "
     id="polygon4391"
     transform="translate(-1589.14,-800.07)" />
  <rect
     class="cls-30"
     x="31.290054"
     y="82.470009"
     width="48.310001"
     height="14.29"
     id="rect4393" />
  <path
     class="cls-23"
     d="m 44.72,83.76 c -6.63,1.36 -7.21,9.79 0.12,11.57 1.88,0.87 2.5,-0.82 3.88,-2.57 l 4.75,-0.13 a 3.36,3.36 0 0 0 0.09,-6.16 h -4.55 c -1.8,-2.06 -2,-3.24 -4.29,-2.71 z"
     id="path4395" />
  <polygon
     class="cls-124"
     points="1649.58,882.54 1649.58,893.12 1660.16,893.12 "
     id="polygon4397"
     transform="translate(-1589.14,-800.07)" />
  <polygon
     class="cls-124"
     points="1660.73,892.54 1650.73,882.54 1660.73,882.54 "
     id="polygon4399"
     transform="translate(-1589.14,-800.07)" />
  <rect
     class="cls-28"
     x="31.290054"
     y="96.620033"
     width="48.310001"
     height="14.29"
     id="rect4401" />
  <path
     class="cls-23"
     d="m 44.72,97.93 c -6.63,1.36 -7.21,9.8 0.12,11.57 1.88,0.88 2.5,-0.82 3.88,-2.57 l 4.75,-0.13 a 3.36,3.36 0 0 0 0.09,-6.16 h -4.55 c -1.8,-2.08 -2,-3.26 -4.29,-2.71 z"
     id="path4403" />
  <polygon
     class="cls-29"
     points="1649.58,896.69 1649.58,907.27 1660.16,907.27 "
     id="polygon4405"
     transform="translate(-1589.14,-800.07)" />
  <polygon
     class="cls-29"
     points="1660.73,906.7 1650.73,896.69 1660.73,896.69 "
     id="polygon4407"
     transform="translate(-1589.14,-800.07)" />
  <rect
     class="cls-30"
     x="31.290054"
     y="110.69004"
     width="48.310001"
     height="14.29"
     id="rect4409" />
  <path
     class="cls-23"
     d="m 44.72,111.98 c -6.63,1.36 -7.21,9.79 0.12,11.57 1.88,0.87 2.5,-0.82 3.88,-2.57 l 4.75,-0.13 a 3.36,3.36 0 0 0 0.09,-6.16 h -4.55 c -1.8,-2.07 -2,-3.24 -4.29,-2.71 z"
     id="path4411" />
  <polygon
     class="cls-124"
     points="1649.58,910.76 1649.58,921.34 1660.16,921.34 "
     id="polygon4413"
     transform="translate(-1589.14,-800.07)" />
  <polygon
     class="cls-124"
     points="1660.73,920.76 1650.73,910.76 1660.73,910.76 "
     id="polygon4415"
     transform="translate(-1589.14,-800.07)" />
  <rect
     class="cls-28"
     x="31.290054"
     y="124.84"
     width="48.310001"
     height="14.29"
     id="rect4417" />
  <path
     class="cls-23"
     d="m 44.72,126.13 c -6.63,1.36 -7.21,9.79 0.12,11.57 1.88,0.87 2.5,-0.82 3.88,-2.57 L 53.47,135 a 3.36,3.36 0 0 0 0.09,-6.16 h -4.55 c -1.8,-2.06 -2,-3.24 -4.29,-2.71 z"
     id="path4419" />
  <polygon
     class="cls-29"
     points="1649.58,924.91 1649.58,935.49 1660.16,935.49 "
     id="polygon4421"
     transform="translate(-1589.14,-800.07)" />
  <polygon
     class="cls-29"
     points="1660.73,934.91 1650.73,924.91 1660.73,924.91 "
     id="polygon4423"
     transform="translate(-1589.14,-800.07)" />
  <path
     id="polyline4461"
     class="cls-125"
     style="fill:none;stroke:#323031;stroke-width:2px;stroke-miterlimit:10"
     d="m 20,153.9 h 150.16 l 23.15,-23.44 -0.05,-14.68 -3.95,-4.19 V 10.29"
     sodipodi:nodetypes="cccccc" />
  <circle
     class="cls-122"
     cx="92.059952"
     cy="40.020058"
     r="3.05"
     id="circle4465" />
  <path
     class="cls-48"
     d="m 97.92,39.72 v -3.79 h 0.91 l 1.81,1.75 a 5.13,5.13 0 0 0 0.44,0.35 1.89,1.89 0 0 0 0.35,0.2 0.83,0.83 0 0 0 0.29,0.06 0.71,0.71 0 0 0 0.48,-0.13 0.51,0.51 0 0 0 0.16,-0.41 0.48,0.48 0 0 0 -0.1,-0.31 0.84,0.84 0 0 0 -0.28,-0.2 1,1 0 0 0 -0.4,-0.07 v -1.35 a 1.91,1.91 0 0 1 0.94,0.24 1.81,1.81 0 0 1 0.67,0.7 2.36,2.36 0 0 1 -0.16,2.42 1.54,1.54 0 0 1 -1.19,0.47 1.7,1.7 0 0 1 -0.74,-0.16 2.89,2.89 0 0 1 -0.69,-0.45 q -0.36,-0.3 -0.78,-0.72 L 99,37.7 v 2.07 z"
     id="path4467" />
  <path
     class="cls-48"
     d="m 100.13,44.18 a 2.83,2.83 0 0 1 -1.27,-0.25 1.73,1.73 0 0 1 -0.76,-0.67 2.13,2.13 0 0 1 0,-2 1.69,1.69 0 0 1 0.76,-0.68 2.83,2.83 0 0 1 1.28,-0.25 h 1 a 2.81,2.81 0 0 1 1.28,0.25 1.62,1.62 0 0 1 0.76,0.67 2,2 0 0 1 0.25,1 1.93,1.93 0 0 1 -0.25,1 1.64,1.64 0 0 1 -0.76,0.68 2.81,2.81 0 0 1 -1.28,0.25 z m 1.2,-1.35 a 2.37,2.37 0 0 0 0.61,-0.07 0.65,0.65 0 0 0 0.32,-0.2 0.54,0.54 0 0 0 0.09,-0.31 0.51,0.51 0 0 0 -0.09,-0.3 0.59,0.59 0 0 0 -0.32,-0.2 2,2 0 0 0 -0.61,-0.07 h -1.37 a 2.1,2.1 0 0 0 -0.63,0.07 0.62,0.62 0 0 0 -0.31,0.2 0.54,0.54 0 0 0 -0.09,0.31 0.49,0.49 0 0 0 0.09,0.3 0.56,0.56 0 0 0 0.31,0.2 2.49,2.49 0 0 0 0.63,0.07 z"
     id="path4469" />
  <rect
     class="cls-30"
     x="130.22"
     y="30.600012"
     width="51.450001"
     height="19.16"
     rx="1.53"
     id="rect4471" />
  <path
     class="cls-126"
     d="m 114.93,67.93 h 1.14 V 66.5 c -0.34,-3 -5.44,-3.71 -6.31,0 v 4 a 2.54,2.54 0 0 0 1.72,1.14 h 12.57 a 2.28,2.28 0 0 0 1.72,-1.14 v -4 a 3.24,3.24 0 0 0 -6.34,0 v 1.43 h 1.14 v -1 c 0.45,-2.63 3.43,-2.43 4,0 v 3.29 h -13.72 v -3.19 c 0.57,-2.56 3.29,-2.63 4,0 v 0.57"
     id="path4473" />
  <path
     class="cls-126"
     d="m 125.35,67.93 h 1.15 V 66.5 c -0.35,-3 -5.44,-3.71 -6.31,0 v 4 a 2.54,2.54 0 0 0 1.71,1.14 h 12.58 a 2.3,2.3 0 0 0 1.72,-1.14 v -4 a 3.23,3.23 0 0 0 -6.33,0 v 1.43 h 1.14 v -1 c 0.45,-2.63 3.43,-2.43 4,0 v 3.29 h -13.72 v -3.19 c 0.57,-2.56 3.3,-2.63 4,0 v 0.57"
     id="path4475" />
  <path
     class="cls-121"
     d="M 136.86,39.3 H 138 v -1.43 c -0.34,-3 -5.44,-3.72 -6.31,0 v 4 a 2.55,2.55 0 0 0 1.72,1.15 h 12.57 a 2.31,2.31 0 0 0 1.72,-1.15 v -4 a 3.23,3.23 0 0 0 -6.33,0 v 1.41 h 1.14 v -1 c 0.45,-2.64 3.43,-2.43 4,0 v 3.29 h -13.65 v -3.15 c 0.58,-2.55 3.3,-2.62 4,0 v 0.57"
     id="path4477" />
  <path
     class="cls-121"
     d="m 169.28,39.3 h 1.14 v -1.43 c -0.34,-3 -5.44,-3.72 -6.3,0 v 4 a 2.56,2.56 0 0 0 1.71,1.15 h 12.58 a 2.28,2.28 0 0 0 1.71,-1.15 v -4 a 3.24,3.24 0 0 0 -6.34,0 v 1.41 h 1.15 v -1 c 0.44,-2.64 3.43,-2.43 4,0 v 3.29 h -13.72 v -3.15 c 0.57,-2.55 3.29,-2.62 4,0 v 0.57"
     id="path4479" />
  <rect
     class="cls-19"
     x="86.90004"
     y="59.140053"
     width="42.02"
     height="18.58"
     id="rect4481" />
  <rect
     class="cls-18"
     x="106.92006"
     y="57.720009"
     width="54.040001"
     height="21.73"
     rx="3.0699999"
     id="rect4483" />
  <circle
     class="cls-122"
     cx="92.049942"
     cy="68.430031"
     r="3.05"
     id="circle4485" />
  <path
     class="cls-48"
     d="m 97.86,68.14 v -3.85 h 0.92 l 1.81,1.75 a 3.91,3.91 0 0 0 0.44,0.36 2.71,2.71 0 0 0 0.35,0.2 0.83,0.83 0 0 0 0.28,0.06 0.73,0.73 0 0 0 0.49,-0.14 0.49,0.49 0 0 0 0.16,-0.4 0.47,0.47 0 0 0 -0.11,-0.31 0.67,0.67 0 0 0 -0.28,-0.21 1,1 0 0 0 -0.39,-0.07 v -1.35 a 1.75,1.75 0 0 1 0.93,0.25 1.8,1.8 0 0 1 0.68,0.69 2,2 0 0 1 0.26,1 2,2 0 0 1 -0.43,1.39 1.47,1.47 0 0 1 -1.18,0.47 1.85,1.85 0 0 1 -0.74,-0.15 3.07,3.07 0 0 1 -0.69,-0.46 9.33,9.33 0 0 1 -0.78,-0.71 l -0.63,-0.63 v 2.08 z"
     id="path4487" />
  <path
     class="cls-48"
     d="m 97.86,71.62 v -1.35 h 3.87 l -0.33,-1.22 h 1.06 l 0.85,2.45 v 0.12 z"
     id="path4489" />
  <rect
     class="cls-30"
     x="108.20998"
     y="59.010048"
     width="51.450001"
     height="19.16"
     rx="1.53"
     id="rect4491" />
  <path
     class="cls-121"
     d="M 114.86,67.71 H 116 v -1.43 c -0.34,-3 -5.44,-3.71 -6.31,0 v 4 a 2.54,2.54 0 0 0 1.72,1.14 h 12.57 a 2.3,2.3 0 0 0 1.72,-1.14 l 0.05,-4 a 3.24,3.24 0 0 0 -6.34,0 v 1.41 h 1.14 v -1 c 0.45,-2.63 3.43,-2.43 4,0 v 3.29 h -13.69 v -3.14 c 0.58,-2.56 3.3,-2.63 4,0 v 0.57"
     id="path4493" />
  <path
     class="cls-121"
     d="m 147.27,67.71 h 1.14 v -1.43 c -0.34,-3 -5.44,-3.71 -6.3,0 v 4 a 2.54,2.54 0 0 0 1.71,1.14 h 12.58 a 2.27,2.27 0 0 0 1.71,-1.14 v -4 a 3.24,3.24 0 0 0 -6.34,0 v 1.41 h 1.15 v -1 c 0.44,-2.63 3.43,-2.43 4,0 v 3.29 H 143.2 v -3.14 c 0.57,-2.56 3.29,-2.63 4,0 v 0.57"
     id="path4495" />
  <rect
     class="cls-19"
     x="86.920059"
     y="87.670021"
     width="42.02"
     height="18.58"
     id="rect4497" />
  <rect
     class="cls-18"
     x="128.92995"
     y="86.260048"
     width="54.040001"
     height="21.73"
     rx="3.0699999"
     id="rect4499" />
  <circle
     class="cls-122"
     cx="92.059952"
     cy="96.96006"
     r="3.05"
     id="circle4501" />
  <path
     class="cls-48"
     d="m 97.92,96.67 v -3.85 h 0.91 l 1.81,1.75 a 3.91,3.91 0 0 0 0.44,0.36 1.66,1.66 0 0 0 0.36,0.2 0.79,0.79 0 0 0 0.28,0.06 0.75,0.75 0 0 0 0.49,-0.14 0.51,0.51 0 0 0 0.15,-0.4 0.48,0.48 0 0 0 -0.1,-0.31 0.63,0.63 0 0 0 -0.28,-0.2 1,1 0 0 0 -0.4,-0.08 v -1.35 a 1.79,1.79 0 0 1 0.94,0.25 2,2 0 0 1 0.68,0.69 2.15,2.15 0 0 1 0.25,1 2.05,2.05 0 0 1 -0.42,1.4 1.53,1.53 0 0 1 -1.19,0.47 1.77,1.77 0 0 1 -0.73,-0.16 3.36,3.36 0 0 1 -0.7,-0.46 9.33,9.33 0 0 1 -0.78,-0.71 L 99,94.56 v 2.08 z"
     id="path4503" />
  <path
     class="cls-48"
     d="m 97.92,101.13 v -3.84 h 0.91 l 1.81,1.74 a 3.91,3.91 0 0 0 0.44,0.36 1.66,1.66 0 0 0 0.36,0.2 0.79,0.79 0 0 0 0.28,0.06 0.7,0.7 0 0 0 0.49,-0.14 0.51,0.51 0 0 0 0.15,-0.4 0.48,0.48 0 0 0 -0.1,-0.31 0.84,0.84 0 0 0 -0.28,-0.2 1,1 0 0 0 -0.4,-0.07 v -1.36 a 1.83,1.83 0 0 1 1.62,1 2.12,2.12 0 0 1 0.25,1 2,2 0 0 1 -0.42,1.39 1.53,1.53 0 0 1 -1.19,0.47 1.63,1.63 0 0 1 -0.73,-0.16 2.94,2.94 0 0 1 -0.7,-0.45 q -0.36,-0.3 -0.78,-0.72 L 99,99.08 v 2.07 z"
     id="path4505" />
  <rect
     class="cls-30"
     x="130.22"
     y="87.540016"
     width="51.450001"
     height="19.16"
     rx="1.53"
     id="rect4507" />
  <path
     class="cls-126"
     d="m 114.93,124.83 h 1.14 v -1.43 c -0.34,-3 -5.44,-3.72 -6.3,0 v 4 a 2.54,2.54 0 0 0 1.71,1.14 h 12.58 a 2.27,2.27 0 0 0 1.71,-1.14 v -4 a 3.24,3.24 0 0 0 -6.34,0 v 1.41 h 1.15 v -1 c 0.44,-2.64 3.43,-2.43 4,0 v 3.29 h -13.72 v -3.17 c 0.57,-2.55 3.29,-2.63 4,0 v 0.57"
     id="path4509" />
  <path
     class="cls-126"
     d="m 125.36,124.83 h 1.14 v -1.43 c -0.34,-3 -5.44,-3.72 -6.31,0 v 4 a 2.56,2.56 0 0 0 1.72,1.14 h 12.57 a 2.28,2.28 0 0 0 1.72,-1.14 l 0.05,-4 a 3.24,3.24 0 0 0 -6.34,0 v 1.41 h 1.14 v -1 c 0.45,-2.64 3.43,-2.43 4,0 v 3.29 h -13.69 v -3.17 c 0.57,-2.55 3.29,-2.63 4,0 v 0.57"
     id="path4511" />
  <path
     class="cls-121"
     d="M 136.86,96.25 H 138 v -1.43 c -0.34,-3 -5.44,-3.72 -6.31,0 v 4 a 2.58,2.58 0 0 0 1.72,1.14 h 12.58 a 2.27,2.27 0 0 0 1.71,-1.14 l 0.05,-4 a 3.24,3.24 0 0 0 -6.34,0 v 1.41 h 1.15 v -1 c 0.44,-2.64 3.43,-2.43 4,0 v 3.28 h -13.7 v -3.14 c 0.57,-2.56 3.29,-2.63 4,0 v 0.57"
     id="path4513" />
  <path
     class="cls-121"
     d="m 169.28,96.25 h 1.15 v -1.43 c -0.35,-3 -5.44,-3.72 -6.31,0 v 4 a 2.54,2.54 0 0 0 1.74,1.11 h 12.58 a 2.3,2.3 0 0 0 1.72,-1.14 v -4 a 3.23,3.23 0 0 0 -6.33,0 v 1.41 h 1.14 v -1 c 0.45,-2.64 3.43,-2.43 4,0 v 3.28 h -13.72 v -3.14 c 0.57,-2.56 3.3,-2.63 4,0 v 0.57"
     id="path4515" />
  <rect
     class="cls-19"
     x="86.910049"
     y="116.08006"
     width="42.02"
     height="18.58"
     id="rect4517" />
  <rect
     class="cls-18"
     x="106.92006"
     y="114.67002"
     width="54.040001"
     height="21.73"
     rx="3.0699999"
     id="rect4519" />
  <circle
     class="cls-122"
     cx="92.049942"
     cy="125.38004"
     r="3.05"
     id="circle4521" />
  <path
     class="cls-48"
     d="m 97.91,125.08 v -3.84 h 0.91 l 1.81,1.75 a 5.13,5.13 0 0 0 0.44,0.35 1.32,1.32 0 0 0 0.36,0.2 0.79,0.79 0 0 0 0.28,0.06 0.71,0.71 0 0 0 0.48,-0.13 0.51,0.51 0 0 0 0.16,-0.4 0.46,0.46 0 0 0 -0.1,-0.31 0.74,0.74 0 0 0 -0.28,-0.21 1,1 0 0 0 -0.4,-0.07 v -1.35 a 1.84,1.84 0 0 1 1.62,0.94 2.12,2.12 0 0 1 0.25,1 2,2 0 0 1 -0.42,1.39 1.53,1.53 0 0 1 -1.19,0.47 1.63,1.63 0 0 1 -0.73,-0.16 2.94,2.94 0 0 1 -0.7,-0.45 c -0.24,-0.2 -0.5,-0.44 -0.78,-0.71 l -0.63,-0.63 v 2.07 z"
     id="path4523" />
  <path
     class="cls-48"
     d="m 100.86,126.87 v 0.85 a 2.83,2.83 0 0 1 -0.09,0.74 1.47,1.47 0 0 1 -0.26,0.58 1.15,1.15 0 0 1 -0.44,0.38 1.38,1.38 0 0 1 -0.62,0.13 1.44,1.44 0 0 1 -0.88,-0.27 1.74,1.74 0 0 1 -0.55,-0.74 2.9,2.9 0 0 1 -0.19,-1.06 2.71,2.71 0 0 1 0.09,-0.68 2.26,2.26 0 0 1 0.29,-0.63 1.33,1.33 0 0 1 0.49,-0.45 1.45,1.45 0 0 1 0.74,-0.18 v 1.39 a 0.41,0.41 0 0 0 -0.26,0.09 0.62,0.62 0 0 0 -0.19,0.23 0.64,0.64 0 0 0 -0.07,0.31 0.72,0.72 0 0 0 0.17,0.5 0.54,0.54 0 0 0 0.39,0.18 0.8,0.8 0 0 0 0.41,-0.09 0.45,0.45 0 0 0 0.21,-0.24 0.94,0.94 0 0 0 0.07,-0.39 v -0.62 z m 0.35,0.62 a 0.77,0.77 0 0 0 0.08,0.36 0.45,0.45 0 0 0 0.21,0.2 0.71,0.71 0 0 0 0.34,0.07 0.5,0.5 0 0 0 0.24,-0.06 0.52,0.52 0 0 0 0.2,-0.19 0.69,0.69 0 0 0 0.07,-0.34 0.78,0.78 0 0 0 0,-0.26 0.64,0.64 0 0 0 -0.14,-0.21 0.29,0.29 0 0 0 -0.21,-0.09 v -1.34 a 1.22,1.22 0 0 1 0.8,0.26 1.57,1.57 0 0 1 0.5,0.68 2.32,2.32 0 0 1 0.18,0.92 2.74,2.74 0 0 1 -0.18,1 1.51,1.51 0 0 1 -0.53,0.7 1.41,1.41 0 0 1 -0.86,0.25 1.13,1.13 0 0 1 -0.54,-0.13 1.37,1.37 0 0 1 -0.43,-0.37 1.75,1.75 0 0 1 -0.29,-0.56 2.17,2.17 0 0 1 -0.1,-0.69 v -0.85 h 0.7 z"
     id="path4525" />
  <rect
     class="cls-30"
     x="108.20998"
     y="115.96006"
     width="51.450001"
     height="19.16"
     rx="1.53"
     id="rect4527" />
  <path
     class="cls-121"
     d="M 114.86,124.66 H 116 v -1.43 c -0.34,-3 -5.44,-3.72 -6.3,0 v 4 a 2.6,2.6 0 0 0 1.72,1.15 H 124 a 2.28,2.28 0 0 0 1.71,-1.15 l 0.05,-4 a 3.24,3.24 0 0 0 -6.34,0 v 1.41 h 1.15 v -1 c 0.44,-2.64 3.43,-2.43 4,0 v 3.29 h -13.71 v -3.15 c 0.57,-2.55 3.29,-2.62 4,0 v 0.57"
     id="path4529" />
  <path
     class="cls-121"
     d="m 147.27,124.66 h 1.15 v -1.43 c -0.35,-3 -5.44,-3.72 -6.31,0 v 4 a 2.56,2.56 0 0 0 1.71,1.15 h 12.58 a 2.31,2.31 0 0 0 1.72,-1.15 v -4 a 3.23,3.23 0 0 0 -6.33,0 v 1.41 h 1.14 v -1 c 0.45,-2.64 3.43,-2.43 4,0 v 3.29 h -13.72 v -3.15 c 0.57,-2.55 3.3,-2.62 4,0 v 0.57"
     id="path4531" />
  <path
     class="cls-19"
     d="m 123.93,113.25 a 0.27,0.27 0 0 0 0,-0.16 0.28,0.28 0 0 0 -0.15,-0.13 2.28,2.28 0 0 0 -0.32,-0.13 l -0.32,-0.11 a 1.53,1.53 0 0 1 -0.25,-0.16 0.79,0.79 0 0 1 -0.17,-0.2 0.6,0.6 0 0 1 -0.06,-0.27 0.61,0.61 0 0 1 0.11,-0.35 0.64,0.64 0 0 1 0.3,-0.23 1.06,1.06 0 0 1 0.45,-0.09 1.09,1.09 0 0 1 0.47,0.1 0.82,0.82 0 0 1 0.31,0.27 0.66,0.66 0 0 1 0.1,0.37 h -0.43 a 0.35,0.35 0 0 0 0,-0.2 0.29,0.29 0 0 0 -0.15,-0.14 0.46,0.46 0 0 0 -0.25,-0.06 0.54,0.54 0 0 0 -0.24,0 0.28,0.28 0 0 0 -0.14,0.12 0.22,0.22 0 0 0 0,0.16 0.25,0.25 0 0 0 0.06,0.16 0.5,0.5 0 0 0 0.17,0.12 2,2 0 0 0 0.28,0.11 1.91,1.91 0 0 1 0.45,0.18 0.73,0.73 0 0 1 0.27,0.25 0.74,0.74 0 0 1 0.08,0.34 0.58,0.58 0 0 1 -0.1,0.35 0.64,0.64 0 0 1 -0.3,0.23 1.11,1.11 0 0 1 -0.46,0.08 1.06,1.06 0 0 1 -0.35,-0.05 1,1 0 0 1 -0.3,-0.14 0.71,0.71 0 0 1 -0.31,-0.58 h 0.43 a 0.59,0.59 0 0 0 0,0.2 0.37,0.37 0 0 0 0.12,0.13 0.4,0.4 0 0 0 0.16,0.08 h 0.21 a 0.57,0.57 0 0 0 0.24,0 0.42,0.42 0 0 0 0.15,-0.11 0.33,0.33 0 0 0 -0.06,-0.14 z"
     id="path4533" />
  <path
     class="cls-19"
     d="m 125.52,113.35 v 0.53 h -0.28 l -0.56,-2.42 h 0.43 z m 0.43,-1.89 h 0.26 v 0.45 l -0.51,2 h -0.27 l 0.07,-0.52 z m 0.84,1.91 0.07,0.51 h -0.27 l -0.51,-2 v -0.45 h 0.26 z m 0.34,-1.91 h 0.43 l -0.55,2.42 h -0.29 v -0.53 z"
     id="path4535" />
  <path
     class="cls-19"
     d="m 128.46,113.93 h -0.43 v -2.42 h 0.43 z"
     id="path4537" />
  <path
     class="cls-19"
     d="m 130.86,111.8 h -1.93 v -0.34 h 1.93 z m -0.76,2.08 h -0.42 v -2.42 h 0.42 z"
     id="path4539" />
  <path
     class="cls-19"
     d="m 133.18,113.09 a 1,1 0 0 1 -0.14,0.42 0.78,0.78 0 0 1 -0.32,0.3 1.06,1.06 0 0 1 -0.5,0.1 1,1 0 0 1 -0.52,-0.14 1,1 0 0 1 -0.34,-0.4 1.41,1.41 0 0 1 -0.12,-0.61 v -0.19 a 1.44,1.44 0 0 1 0.13,-0.61 1,1 0 0 1 0.34,-0.4 1,1 0 0 1 0.53,-0.14 1,1 0 0 1 0.49,0.11 0.69,0.69 0 0 1 0.31,0.3 1,1 0 0 1 0.14,0.43 h -0.43 a 0.62,0.62 0 0 0 -0.14,-0.36 0.45,0.45 0 0 0 -0.37,-0.13 0.5,0.5 0 0 0 -0.31,0.09 0.6,0.6 0 0 0 -0.19,0.27 1.42,1.42 0 0 0 -0.06,0.44 v 0.19 a 1.75,1.75 0 0 0 0,0.43 0.62,0.62 0 0 0 0.18,0.28 0.52,0.52 0 0 0 0.31,0.09 0.76,0.76 0 0 0 0.29,0 0.35,0.35 0 0 0 0.16,-0.16 0.66,0.66 0 0 0 0.08,-0.26 z"
     id="path4541" />
  <path
     class="cls-19"
     d="m 134.11,113.93 h -0.43 v -2.42 h 0.43 z m 1.17,-1.07 h -1.27 v -0.35 h 1.27 z m 0.33,1.07 h -0.42 v -2.42 h 0.42 z"
     id="path4543" />
  <path
     class="cls-19"
     d="m 136.47,113.93 h -0.45 l 0.91,-2.42 h 0.29 v 0.34 z m 1.29,-0.56 h -1.32 v -0.34 h 1.32 z m -0.69,-1.52 v -0.34 h 0.28 l 0.92,2.42 h -0.45 z"
     id="path4545" />
  <path
     class="cls-19"
     d="m 138.94,112.79 v -0.31 h 0.54 a 0.5,0.5 0 0 0 0.31,-0.09 0.31,0.31 0 0 0 0.11,-0.25 0.3,0.3 0 0 0 -0.11,-0.26 0.56,0.56 0 0 0 -0.32,-0.08 h -0.4 v 2.13 h -0.43 v -2.42 h 0.83 a 1.13,1.13 0 0 1 0.63,0.15 0.58,0.58 0 0 1 0.22,0.5 0.55,0.55 0 0 1 -0.07,0.28 0.58,0.58 0 0 1 -0.21,0.2 0.9,0.9 0 0 1 -0.35,0.09 l -0.13,0.11 z m -0.08,1.14 0.19,-0.35 h 0.54 a 0.41,0.41 0 0 0 0.31,-0.1 0.34,0.34 0 0 0 0.1,-0.26 0.4,0.4 0 0 0 0,-0.2 0.27,0.27 0 0 0 -0.13,-0.13 0.45,0.45 0 0 0 -0.22,0 h -0.48 v -0.31 h 0.61 l 0.1,0.12 a 0.67,0.67 0 0 1 0.33,0.08 0.63,0.63 0 0 1 0.19,0.21 0.67,0.67 0 0 1 0.06,0.28 0.64,0.64 0 0 1 -0.22,0.53 1,1 0 0 1 -0.62,0.18 z"
     id="path4547" />
  <path
     class="cls-19"
     d="m 141.36,113.93 h -0.43 v -2.42 h 0.43 z m 1.1,0 h -1.22 v -0.35 h 1.22 z"
     id="path4549" />
  <path
     class="cls-19"
     d="m 143.34,113.93 h -0.43 v -2.42 h 0.43 z m 1.15,-2.08 h -1.27 v -0.34 h 1.27 z m -0.16,1 h -1.11 v -0.34 h 1.11 z m 0.17,1.08 h -1.28 v -0.35 h 1.28 z"
     id="path4551" />
  <g
     id="g52187"
     transform="translate(13.04,-708.6)">
    <rect
       class="cls-180"
       x="94.419975"
       y="771.70001"
       width="52.959999"
       height="12.71"
       rx="2.9300001"
       id="rect6269"
       style="fill:#0f75bc;fill-opacity:1" />
    <text
       xml:space="preserve"
       style="font-size:8.2px;line-height:1.25;font-family:'Courier New';-inkscape-font-specification:'Courier New';letter-spacing:0px;word-spacing:0px;writing-mode:lr-tb;fill:#063058;fill-opacity:1"
       x="116.24617"
       y="781.4198"
       id="text34150"><tspan
         sodipodi:role="line"
         id="tspan34148"
         x="116.24617"
         y="781.4198"
         style="font-style:normal;font-variant:normal;font-weight:500;font-stretch:normal;font-size:8.2px;font-family:Roboto;-inkscape-font-specification:'Roboto Medium';fill:#063058;fill-opacity:1">20</tspan></text>
    <rect
       class="cls-121"
       x="99.980034"
       y="776.86005"
       width="8.3800001"
       height="2.3800001"
       id="rect6275" />
    <rect
       class="cls-121"
       x="134.33002"
       y="776.78003"
       width="8.3800001"
       height="2.3800001"
       id="rect6277" />
  </g>
  <g
     id="g52194"
     transform="translate(13.04,-708.6)">
    <rect
       class="cls-180"
       x="115.26995"
       y="741.40002"
       width="52.959999"
       height="12.71"
       rx="2.9300001"
       id="rect7167" />
    <path
       class="cls-181"
       d="m 140.18,751.13 h -1 v -4.66 l -1.43,0.47 v -0.83 l 2.3,-0.84 h 0.13 z"
       id="path7169" />
    <path
       class="cls-181"
       d="m 146.01,748.69 a 3.74,3.74 0 0 1 -0.24,1.46 1.69,1.69 0 0 1 -0.66,0.81 2,2 0 0 1 -1,0.26 2,2 0 0 1 -1,-0.26 1.62,1.62 0 0 1 -0.68,-0.81 3.74,3.74 0 0 1 -0.24,-1.46 v -1 a 3.67,3.67 0 0 1 0.24,-1.46 1.59,1.59 0 0 1 0.67,-0.8 2.17,2.17 0 0 1 2,0 1.59,1.59 0 0 1 0.67,0.8 3.67,3.67 0 0 1 0.24,1.46 z m -1,-1.12 a 3.3,3.3 0 0 0 -0.1,-0.92 0.94,0.94 0 0 0 -0.32,-0.49 0.8,0.8 0 0 0 -0.5,-0.15 0.82,0.82 0 0 0 -0.5,0.15 0.94,0.94 0 0 0 -0.32,0.49 3.25,3.25 0 0 0 -0.11,0.92 v 1.26 a 3.25,3.25 0 0 0 0.11,0.92 1.07,1.07 0 0 0 0.32,0.51 0.86,0.86 0 0 0 0.51,0.16 0.83,0.83 0 0 0 0.5,-0.16 1,1 0 0 0 0.31,-0.51 3.3,3.3 0 0 0 0.1,-0.92 z"
       id="path7171" />
    <rect
       class="cls-121"
       x="120.83001"
       y="746.57001"
       width="8.3800001"
       height="2.3800001"
       id="rect7173" />
    <rect
       class="cls-121"
       x="155.17999"
       y="746.48004"
       width="8.3800001"
       height="2.3800001"
       id="rect7175" />
  </g>
  <text
     xml:space="preserve"
     id="text85380"
     x="33.905407"
     y="-0.20802428"
     style="font-size:21.3333px;line-height:1.25;font-family:Roboto;-inkscape-font-specification:Roboto;letter-spacing:0;word-spacing:0;writing-mode:lr-tb;fill:#000000"><tspan
       id="tspan85378"
       x="33.905407"
       y="-0.20802428"
       style="font-style:normal;font-variant:normal;font-weight:300;font-stretch:normal;font-size:21.3333px;font-family:Roboto;-inkscape-font-specification:'Roboto Light';fill:#000000">PDH Low Current</tspan></text>
</svg>
