<?xml version="1.0" encoding="UTF-8" standalone="no"?>
<!-- Created with Inkscape (http://www.inkscape.org/) -->

<svg
   version="1.1"
   id="svg2"
   xml:space="preserve"
   width="570.85596"
   height="135.25061"
   viewBox="0 0 570.85596 135.25061"
   sodipodi:docname="scs-logo.svg"
   inkscape:version="1.1.2 (0a00cf5339, 2022-02-04)"
   inkscape:export-filename="/home/sam/1661Work/team1661-site/src/assets/images/sponsor-logos/scs-logo.png"
   inkscape:export-xdpi="100"
   inkscape:export-ydpi="100"
   xmlns:inkscape="http://www.inkscape.org/namespaces/inkscape"
   xmlns:sodipodi="http://sodipodi.sourceforge.net/DTD/sodipodi-0.dtd"
   xmlns="http://www.w3.org/2000/svg"
   xmlns:svg="http://www.w3.org/2000/svg"><defs
     id="defs6"><clipPath
       clipPathUnits="userSpaceOnUse"
       id="clipPath16"><path
         d="M 0,216 H 360 V 0 H 0 Z"
         id="path14" /></clipPath><clipPath
       clipPathUnits="userSpaceOnUse"
       id="clipPath851"><path
         d="M 0,360 H 360 V 0 H 0 Z"
         id="path849" /></clipPath></defs><sodipodi:namedview
     id="namedview4"
     pagecolor="#ffffff"
     bordercolor="#999999"
     borderopacity="1"
     inkscape:pageshadow="0"
     inkscape:pageopacity="0"
     inkscape:pagecheckerboard="0"
     showgrid="false"
     fit-margin-top="0"
     fit-margin-left="0"
     fit-margin-right="0"
     fit-margin-bottom="0"
     inkscape:zoom="1.8149074"
     inkscape:cx="239.40616"
     inkscape:cy="69.425031"
     inkscape:window-width="1920"
     inkscape:window-height="1020"
     inkscape:window-x="0"
     inkscape:window-y="0"
     inkscape:window-maximized="1"
     inkscape:current-layer="g8" /><g
     id="g8"
     inkscape:groupmode="layer"
     inkscape:label="scs-logo-text"
     transform="matrix(1.3333333,0,0,-1.3333333,117.20264,213.3622)"><g
       id="g10"><g
         id="g12"
         clip-path="url(#clipPath16)"><g
           id="g18"
           transform="translate(335.473,94.2202)"><path
             d="m 0,0 c -1.295,0.768 -1.614,-0.26 -2.234,-1.026 -1.6,-1.976 -3.178,-4 -5.016,-5.741 -1.151,-1.09 -2.086,-0.504 -2.108,1.092 -0.01,0.694 0.061,1.399 0.184,2.083 1.673,9.273 4.947,18.012 8.932,26.502 1.575,3.358 3.305,6.644 5.009,10.047 -1.294,0.511 -2.528,1.054 -3.798,1.489 -3.234,1.106 -4.871,0.57 -6.484,-2.438 -1.27,-2.371 -2.314,-4.872 -3.356,-7.358 -1.288,-3.073 -2.472,-6.192 -3.712,-9.318 -3.729,3.248 -7.396,3.716 -11.582,1.206 -6.607,-3.962 -10.039,-10.08 -11.145,-17.546 -0.429,-2.899 -2.312,-4.423 -4.507,-5.805 -0.799,-0.503 -1.231,-0.023 -1.372,0.74 -0.066,0.351 0.016,0.741 0.083,1.104 0.747,4.05 2.771,7.578 4.527,11.225 0.965,2.004 1.837,4.076 2.502,6.195 0.825,2.629 -0.277,4.501 -2.971,5.176 -2.962,0.742 -5.862,0.555 -7.891,-2.056 -2.711,-3.487 -5.23,-7.123 -7.813,-10.709 -0.428,-0.592 -0.761,-1.253 -1.138,-1.883 -0.162,0.085 -0.324,0.17 -0.487,0.255 1.964,4.339 6.142,12.736 5.965,13.179 -0.176,0.442 -2.264,0.957 -3.484,1.355 -3.594,1.173 -5.447,0.515 -6.812,-2.957 -1.646,-4.185 -2.92,-8.515 -4.379,-12.774 -0.218,-0.639 -0.412,-1.401 -0.876,-1.819 -1.728,-1.557 -3.472,-3.132 -5.391,-4.431 -1.396,-0.946 -3.027,-1.632 -4.645,-2.139 -2.001,-0.627 -3.538,0.308 -3.788,2.334 -0.198,1.609 0.057,3.274 0.114,5.031 0.067,-0.026 0.092,7.289 6.05,12.192 0.876,0.72 1.808,1.457 2.125,1.397 0.317,-0.059 0.793,-1.4 0.874,-2.507 0.081,-1.107 -0.934,-5.265 -2.92,-7.213 -0.448,-0.44 -1.1,-0.988 -1.628,-0.958 -0.478,0.027 -0.974,0.159 -1.443,0.35 -0.316,-1.358 -0.508,-2.735 -0.579,-4.045 3.84,-0.913 6.535,0.118 9.083,3.425 2.632,3.417 2.917,7.377 1.683,11.416 -0.523,1.714 -1.883,2.79 -3.629,3.184 -4.25,0.961 -8.242,0.291 -11.536,-2.634 -5.856,-5.201 -8.549,-11.836 -8.153,-19.66 0.037,-0.747 0.152,-1.46 0.331,-2.139 -0.308,-0.067 -0.615,-0.133 -0.919,-0.209 -0.214,0.57 -0.633,1.108 -1.271,1.612 -1.007,0.796 -2.175,1.477 -3.377,1.918 -3.096,1.136 -6.265,2.07 -9.377,3.163 -2.361,0.828 -4.793,1.56 -6.984,2.728 -2.39,1.274 -3.265,3.639 -2.411,6.23 0.615,1.866 1.503,3.746 2.685,5.304 3.733,4.922 8.565,8.546 14.199,11.049 1.206,0.535 2.574,0.839 3.893,0.951 1.726,0.147 2.7,-0.835 2.497,-2.554 -0.196,-1.648 -0.557,-3.325 -1.161,-4.866 -2.126,-5.432 -4.565,-10.656 -11.111,-12.712 1.166,-1.491 2.176,-3.139 3.53,-4.422 1.745,-1.654 3.833,-1.596 5.703,-0.062 0.962,0.788 1.865,1.715 2.576,2.732 2.923,4.18 4.627,8.895 5.797,13.823 0.61,2.562 1,5.144 0.195,7.733 -1.696,5.46 -7.759,7.743 -12.552,7.256 -3.301,-0.335 -6.418,-1.439 -9.141,-3.241 -3.115,-2.06 -6.628,-1.575 -10.212,-2.444 1.137,2.131 2.117,3.968 3.224,6.043 -1.773,0.638 -3.426,1.389 -5.157,1.814 -1.95,0.48 -3.642,-0.221 -4.666,-1.999 -1.066,-1.85 -2.027,-3.765 -2.942,-5.695 -0.33,-0.695 -0.682,-0.995 -1.459,-0.946 -2.511,0.16 -5.051,0.086 -7.532,0.438 -2.959,0.42 -6.111,0.694 -7.936,3.863 -0.439,-1.553 -0.872,-3.079 -0.978,-4.628 -0.132,-1.938 0.52,-2.91 2.372,-3.464 1.815,-0.542 3.702,-0.928 5.584,-1.136 2.378,-0.265 4.783,-0.28 7.272,-0.408 -0.183,-0.49 -0.362,-0.913 -0.499,-1.348 -1.929,-6.116 -4.075,-12.176 -5.688,-18.375 -0.89,-3.423 -2.891,-5.736 -5.414,-7.83 -0.389,-0.323 -1.064,-0.641 -1.631,-0.407 -0.567,0.234 -0.507,1.025 -0.352,1.701 0.155,0.675 0.071,0.461 0.155,0.675 1.572,4.025 3.058,8.086 4.757,12.056 1.234,2.884 2.752,5.646 4.228,8.633 -1.67,0.596 -3.172,1.221 -4.727,1.666 -2.605,0.747 -4.156,0.123 -5.499,-2.255 -0.844,-1.495 -1.474,-3.111 -2.239,-4.653 -2.996,-6.038 -6.559,-11.713 -10.983,-16.812 -0.458,-0.529 -1.597,-1.207 -1.938,-1.096 -0.342,0.112 -0.74,1.383 -0.41,2.463 0.942,2.67 1.729,5.409 2.863,7.995 1.865,4.256 3.955,8.413 6.036,12.791 -1.448,0.55 -2.887,1.204 -4.388,1.643 -2.907,0.851 -4.683,0.152 -5.944,-2.625 -2.578,-5.68 -5.008,-11.437 -6.171,-17.609 -0.229,-1.219 -0.686,-2.169 -1.458,-3.066 -3.272,-3.805 -7.417,-6.047 -12.348,-6.745 -6.319,-0.894 -10.47,3.232 -9.341,9.465 0.584,3.229 1.528,6.435 2.684,9.51 2.38,6.332 5.66,12.171 10.501,17.002 1.888,1.884 4.059,3.299 6.833,3.423 2.21,0.099 2.998,-0.854 2.574,-3.016 -0.814,-4.154 -4.732,-8.051 -9.194,-8.909 1.015,-1.3 1.82,-2.629 2.906,-3.662 2.583,-2.455 4.945,-2.322 7.381,0.307 0.656,0.708 1.301,1.527 1.634,2.414 1.127,2.996 2.366,5.987 3.089,9.09 1.076,4.613 -1.498,8.49 -6.187,9.263 -2.473,0.408 -5.137,0.382 -7.604,-0.065 -5.146,-0.931 -9.214,-3.938 -12.595,-7.805 -6.346,-7.258 -10.953,-15.443 -12.126,-25.159 -0.347,-2.873 -1.869,-4.547 -3.95,-6.012 -1.302,-0.916 -2.158,-0.427 -2.118,1.158 0.028,1.11 0.186,2.229 0.404,3.32 1.862,9.284 5.241,18.042 9.304,26.552 1.396,2.923 2.932,5.779 4.436,8.73 -1.108,0.442 -2.137,0.868 -3.176,1.267 -3.878,1.489 -5.518,0.876 -7.507,-2.803 -0.199,-0.368 -0.386,-0.745 -0.547,-1.13 -1.595,-3.822 -3.191,-7.642 -4.769,-11.47 -0.467,-1.131 -0.882,-2.285 -1.239,-3.216 -1.472,0.764 -2.753,1.655 -4.172,2.12 -3.199,1.048 -6.077,-0.035 -8.685,-1.865 -5.424,-3.806 -8.643,-9.094 -9.752,-15.564 -0.397,-2.319 -1.055,-4.324 -2.9,-5.769 -0.796,-0.624 -2.129,-1.589 -2.656,-1.316 -1.154,0.6 -0.562,2.045 -0.187,3.019 1.219,3.161 2.593,6.261 3.906,9.385 0.953,2.27 2.018,4.501 2.82,6.824 0.707,2.05 0.035,3.647 -1.526,4.647 -1.923,1.232 -6.876,1.42 -8.841,-0.977 -1.713,-2.089 -3.547,-4.089 -5.131,-6.272 -1.604,-2.211 -2.967,-4.598 -4.436,-6.908 -0.136,0.066 -0.272,0.132 -0.408,0.197 1.975,4.381 3.951,8.763 5.996,13.298 -1.111,0.445 -2.324,1.022 -3.593,1.423 -3.5,1.106 -5.286,0.394 -6.71,-3.008 -1.379,-3.294 -2.814,-6.636 -3.573,-10.1 -0.725,-3.307 -2.369,-5.631 -4.997,-7.518 -2.163,-1.553 -4.277,-3.162 -6.981,-3.665 -1.255,-0.234 -2.3,0.072 -2.901,0.894 -0.164,0.224 -0.297,0.482 -0.388,0.785 -0.105,0.664 -0.176,1.336 -0.224,2.012 -0.22,3.121 0.175,6.335 1.347,9.407 0.993,2.602 4.147,6.065 4.912,6.703 0.765,0.637 1.712,1.391 2.004,1.272 0.292,-0.118 0.429,-1.535 0.631,-2.305 0.034,-0.131 0.004,-0.279 0.003,-0.419 -0.027,-2.499 -0.652,-4.82 -2.348,-6.698 -0.557,-0.617 -1.426,-1.238 -2.194,-1.294 -0.298,-0.022 -0.831,0.626 -0.936,0.182 -0.106,-0.443 -0.01,-0.036 -0.014,-0.051 -0.331,-1.332 -1.688,-3.524 -0.569,-3.973 1.119,-0.449 4.462,-0.032 6.565,1.371 4.747,3.169 5.274,9.744 4.114,13.275 -0.631,1.919 -1.971,3.162 -3.948,3.587 -4.721,1.014 -8.93,-0.07 -12.34,-3.511 -5.154,-5.203 -7.607,-11.534 -7.202,-18.87 0.013,-0.229 -0.124,0.151 0.07,-0.672 0.195,-0.824 -0.896,-0.285 -1.34,-0.454 -0.698,0.742 -1.796,1.427 -3.315,2.07 -2.987,1.265 -6.144,2.127 -9.216,3.193 -2.411,0.836 -4.908,1.503 -7.19,2.61 -3.002,1.457 -4.013,4.146 -2.853,7.282 0.62,1.676 1.517,3.322 2.604,4.74 3.581,4.669 8.162,8.165 13.478,10.637 1.443,0.67 3.078,1.061 4.664,1.247 1.561,0.182 2.515,-0.831 2.374,-2.391 -0.133,-1.468 -0.395,-2.976 -0.913,-4.348 -2.139,-5.671 -4.536,-11.182 -11.12,-13.313 0.467,-0.808 0.918,-1.73 1.496,-2.564 2.769,-3.998 6.145,-4.147 9.227,-0.368 3.277,4.017 4.993,8.781 6.35,13.702 0.724,2.625 1.271,5.295 0.734,8.003 -1.258,6.337 -8.025,8.801 -12.909,8.201 -4.895,-0.602 -9.111,-2.884 -13.046,-5.688 -4.546,-3.24 -8.374,-7.149 -10.485,-12.453 -2.309,-5.805 -1.029,-10.461 3.845,-14.256 4.085,-3.181 8.813,-4.929 13.75,-6.244 0.784,-0.209 1.485,-0.729 2.226,-1.106 -0.518,-0.797 -0.465,-1.282 -2.009,-2.718 -1.545,-1.436 -6.575,-3.462 -10.268,-4.132 -3.513,-0.638 -6.911,-0.607 -9.481,2.656 -0.28,-0.734 -0.546,-1.329 -0.737,-1.947 -1.358,-4.392 0.514,-7.945 4.985,-8.93 2.009,-0.442 4.2,-0.574 6.231,-0.292 7.5,1.04 13.811,4.646 19.339,9.615 1.727,1.169 3.478,2.199 5.317,2.71 1.917,-2.65 5.157,-4.163 8.837,-3.829 3.184,0.29 5.856,1.754 8.354,3.601 1.329,0.982 2.579,2.068 3.991,3.21 0.076,-0.912 0.136,-1.651 0.2,-2.39 0.261,-2.986 2.134,-4.9 4.938,-5.128 1.009,-0.082 1.549,0.214 2.027,1.198 2.093,4.307 4.191,8.621 6.527,12.798 1.552,2.774 3.508,5.322 5.283,7.97 -0.391,-2.244 -1.136,-4.29 -1.717,-6.383 -0.935,-3.372 -1.832,-6.769 -1.092,-10.323 0.646,-3.103 2.997,-4.83 6.053,-4.028 1.691,0.444 3.246,1.53 4.756,2.493 0.987,0.63 1.784,1.559 2.696,2.381 2.253,-6.648 9.142,-7.721 13.421,-2.639 0.676,0.802 1.763,1.643 2.03,2.452 0.266,0.809 -0.674,4.209 -0.441,5.224 0.233,1.016 -1.761,-1.049 -2.288,-1.49 -1.307,-1.093 -2.493,-0.631 -2.927,1.004 -0.178,0.669 -0.234,1.372 -0.343,2.041 0.623,5.268 2.766,9.78 6.456,13.502 0.648,0.652 1.787,1.081 2.722,1.126 1.732,0.083 2.858,-1.721 2.124,-3.278 -1.474,-3.121 -4.383,-8.399 -4.541,-10.121 -0.159,-1.722 0.327,-2.934 0.539,-4.238 0.096,-0.588 0.226,-1.158 0.377,-1.719 0.156,-0.581 0.338,-1.149 0.541,-1.707 0.219,-1.394 0.744,-2.562 1.491,-3.455 1.768,-2.109 4.755,-2.679 7.777,-1.023 1.091,0.599 2.062,1.43 3.054,2.197 0.597,0.462 1.128,1.01 1.737,1.563 0.253,-1.071 0.432,-1.985 0.686,-2.877 1.836,-6.448 6.332,-9.869 13.015,-9.902 5.206,-0.025 9.768,1.824 13.75,5.048 2.223,1.8 4.213,3.887 6.349,5.884 0.167,-0.305 0.372,-0.659 0.561,-1.022 1.733,-3.336 8.566,-4.008 10.5,-0.786 1.291,2.151 2.898,4.112 4.362,6.158 0.268,0.375 0.53,0.754 0.814,1.159 0.079,-1.54 0.054,-2.939 0.24,-4.309 0.483,-3.552 3.37,-5.386 6.715,-4.128 1.492,0.561 2.882,1.513 4.154,2.499 1.076,0.836 1.916,1.977 3.042,3.176 0.215,-0.823 0.316,-1.272 0.45,-1.71 0.917,-3.004 3.458,-4.726 6.523,-4.161 1.237,0.229 2.478,0.844 3.535,1.554 3.36,2.256 5.792,5.378 7.745,8.881 0.651,1.17 0.348,1.912 -0.75,2.562 -1.107,0.654 -1.551,0.02 -2.047,-0.841 -0.558,-0.967 -1.164,-1.93 -1.902,-2.76 -1.045,-1.175 -2.133,-2.352 -3.379,-3.294 -1.137,-0.86 -1.954,-0.347 -1.983,1.087 -0.015,0.739 0.064,1.492 0.194,2.221 1.449,8.117 4.22,15.811 7.492,23.343 1.042,2.397 1.109,2.439 3.391,2.309 -1.471,-2.64 -3.234,-5.328 -4.515,-8.228 -1.5,-3.397 -1.549,-6.98 0.75,-10.106 1.219,-1.661 2.784,-3.16 4.45,-4.38 3.887,-2.845 8.401,-4.358 13.032,-5.515 2.041,-0.51 2.277,-1.212 0.848,-2.771 -0.188,-0.206 -0.399,-0.396 -0.622,-0.561 -3.969,-2.919 -8.427,-4.492 -13.332,-4.78 -2.697,-0.158 -5.08,0.55 -6.798,2.827 -2.928,-4.926 -0.847,-9.988 4.654,-10.859 2.473,-0.391 5.139,-0.325 7.602,0.14 6.621,1.248 12.198,4.703 17.25,9.034 0.364,0.312 0.71,0.652 1.045,1.003 1.592,0.608 3.243,1.064 4.941,1.352 1.931,-2.275 4.923,-3.541 8.31,-3.242 3.956,0.349 7.066,2.44 10.026,4.842 0.766,0.622 1.509,1.274 2.4,2.03 0.088,-1.087 0.13,-1.922 0.227,-2.752 0.322,-2.761 2.151,-4.56 4.784,-4.826 1.128,-0.115 1.731,0.226 2.196,1.348 2.863,6.917 6.473,13.422 11.001,19.398 0.225,0.298 0.486,0.568 0.731,0.851 -0.232,-1.454 -0.7,-2.759 -1.12,-4.078 -1.104,-3.472 -2.033,-6.977 -1.903,-10.673 0.16,-4.545 3.556,-6.959 7.571,-5.333 0.812,0.329 1.612,0.766 2.303,1.3 1.315,1.014 2.547,2.133 3.873,3.26 0.092,-0.185 0.181,-0.336 0.244,-0.497 2.275,-5.759 7.948,-7.111 12.394,-2.841 0.851,0.816 1.829,1.816 2.398,2.623 0.57,0.807 -0.425,3.67 -0.642,5.211 -0.172,1.225 -0.981,-0.347 -1.539,-0.832 -1.351,-1.174 -2.544,-0.799 -3.049,0.902 -0.196,0.661 -0.243,1.365 -0.36,2.061 0.662,5.339 2.81,9.933 6.636,13.688 1.246,1.223 2.666,1.329 3.807,0.509 0.986,-0.709 1.554,-1.545 0.897,-2.846 -1.292,-2.564 -3.045,-5.502 -3.836,-7.713 -0.79,-2.21 0.045,-6.864 0.662,-9.718 0.615,-2.855 2.261,-5.351 5.301,-5.795 1.806,-0.264 3.393,0.458 4.848,1.429 3.407,2.274 5.944,5.348 7.937,8.891 C 1.354,-1.355 1.136,-0.674 0,0"
             style="fill:#272b2f;fill-opacity:1;fill-rule:nonzero;stroke:none"
             id="path20" /></g></g></g><path
       d="m -20.496305,119.86993 c -3.984007,0 -7.213586,3.22959 -7.213586,7.2136 0,3.98357 3.229579,7.21314 7.213586,7.21314 3.983576,0 7.213156,-3.22957 7.213156,-7.21314 0,-3.98401 -3.22958,-7.2136 -7.213156,-7.2136 m 4.317685,-16.8204 c -0.362416,-2.98211 -2.349486,-3.359958 -2.349486,-3.359958 l -4.439923,-1.681268 c -1.295692,5.037786 0.697814,6.635856 0.697814,6.635856 l 6.454441,1.38747 z M -36.411742,114.088 c -2.788674,0 -5.04938,2.26071 -5.04938,5.0494 0,2.78823 2.260706,5.04893 5.04938,5.04893 2.788676,0 5.049382,-2.2607 5.049382,-5.04893 0,-2.78869 -2.260706,-5.0494 -5.049382,-5.0494 m -11.510256,-2.80926 c -1.166165,0 -2.111449,0.94572 -2.111449,2.11188 0,1.16616 0.945284,2.11144 2.111449,2.11144 1.166172,0 2.111884,-0.94528 2.111884,-2.11144 0,-1.16616 -0.945712,-2.11188 -2.111884,-2.11188 m -9.156903,11.06248 c -1.235651,-0.62232 -2.741926,-0.12613 -3.364253,1.10956 -0.622756,1.23521 -0.126512,2.74106 1.109123,3.36383 1.235217,0.62274 2.741063,0.12611 3.363819,-1.10913 0.622755,-1.23522 0.126104,-2.74149 -1.108689,-3.36426 m -5.521598,-2.47214 c -1.097968,-0.55371 -2.437407,-0.11251 -2.99111,0.98604 -0.553706,1.09838 -0.112374,2.4374 0.986029,2.99111 1.0984,0.55369 2.437406,0.11251 2.991114,-0.98604 0.553703,-1.0984 0.112374,-2.43741 -0.986033,-2.99111 m -5.586354,-2.34392 c -0.890388,-0.44863 -1.975491,-0.091 -2.424545,0.79947 -0.448623,0.89037 -0.09092,1.97592 0.799459,2.42454 0.890387,0.44905 1.97592,0.091 2.424544,-0.79903 0.448625,-0.89039 0.09092,-1.97594 -0.799458,-2.42498 M 41.04112,159.88241 c -0.01209,0.004 -0.03387,-0.006 -0.04762,-0.004 -0.01209,0.006 8.57e-4,0.021 -0.01592,0.0253 -1.435088,0.39886 -3.120213,-0.23633 -3.854056,-1.56677 -0.303656,-0.5507 -0.394578,-1.15973 -0.31009,-1.73616 -1.720297,-0.69053 -3.439734,-1.3806 -5.16046,-2.0707 -0.0059,0.01 -0.0116,0.0219 -0.01714,0.0322 -0.0699,0.12224 -0.140675,0.2436 -0.211442,0.3637 -1.802645,3.05673 -3.935111,5.46026 -5.194351,4.91986 -0.203677,-0.0909 -0.482464,-0.31008 -0.613706,-0.85779 -0.280068,-1.16617 0.197726,-3.34408 1.235646,-5.82652 -2.230678,3.77555 -4.930143,6.86017 -6.459586,6.20267 -0.354696,-0.15225 -0.602594,-0.4988 -0.729122,-1.02506 -0.352552,-1.47025 0.26549,-4.24348 1.602781,-7.40403 -1.676122,2.62914 -3.527661,4.54502 -4.66552,4.05608 -0.204154,-0.091 -0.482078,-0.30966 -0.613749,-0.85737 -0.249617,-1.04008 0.104653,-2.8856 0.919979,-5.03351 0.0489,-0.12878 0.09822,-0.25733 0.150117,-0.38815 0,0 -4.338277,-1.78034 -6.632436,-2.70119 -0.09092,-0.0365 -0.181424,-0.0728 -0.272349,-0.10934 -1.2909726,2.27144 -3.0168416,4.64708 -5.2342336,5.50658 -0.232033,0.09 -0.65835,-0.12469 -0.739844,-0.35425 -0.4241735,-1.19577 -0.8483542,-2.3911 -1.2725313,-3.58685 -1.018621,0.60645 -2.0775627,1.12542 -3.1382209,1.52814 -6.212973,2.35936 -13.1057432,1.50544 -19.2260802,-0.71582 -10.061876,-3.65162 -18.756006,-10.77212 -26.815797,-17.62888 -0.07421,-0.0635 -0.146248,-0.1304 -0.220457,-0.19388 -1.510993,1.35446 -6.493038,4.79421 -14.164254,-0.0996 -9.29587,-5.93032 -25.905686,-16.17019 -25.905686,-16.17019 0,0 -2.168923,-1.55988 -0.981742,-3.60529 1.186324,-2.0454 3.852764,-0.8565 3.852764,-0.8565 l 11.976034,3.08246 c 0,0 6.053853,2.03426 8.938174,1.18204 -1.116842,-1.41021 -2.196801,-2.85215 -3.174252,-4.36186 -1.086821,-1.67912 -1.599778,-2.62399 -0.775444,-4.74272 0.0016,-0.009 -0.0055,-0.0164 -0.0022,-0.0231 0.401875,-0.81874 0.810181,-1.62894 1.229642,-2.43912 0.0039,-0.007 0.01449,-0.006 0.01939,-0.0125 1.101836,-1.76147 2.061701,-2.04412 3.907232,-2.17622 1.187187,-0.0854 2.377795,-0.10811 3.568841,-0.10811 0.09007,-0.77629 0.349117,-2.039385 1.10483,-2.037247 1.086389,0.0037 6.545365,1.824095 6.127194,-7.835473 -0.418175,-9.658713 -2.50389,-17.552954 -2.676736,-21.527958 -0.173697,-3.975424 -0.150961,-10.806434 10.217995,-10.089326 10.368967,0.717112 14.197711,7.312659 14.999746,8.806078 0.80289,1.492978 0.419458,4.721269 -2.257276,6.637145 -2.676734,1.916734 -2.531337,3.972857 -1.718582,5.04338 0.813185,1.070946 1.468537,3.701363 -1.270388,6.239993 -2.039393,1.890146 -1.663255,5.966355 1.438516,6.908209 3.102197,0.941849 13.894481,5.138165 13.894481,5.138165 0,0 3.846761,1.00661 4.265364,6.037964 0.255191,3.06918 0.842348,4.64236 1.261806,5.40324 0.108941,0.19735 -0.01075,0.41343 -0.203717,0.4679 0.443048,0.17674 0.890815,0.34399 1.329573,0.52928 0.03345,0.0143 0.06518,0.028 0.09823,0.0417 0.775011,0.32896 1.5483101,0.65965 2.3078818,1.01778 1.0507939,0.48808 2.0406845,0.98732 2.9795348,1.49555 0.080637,0.0441 0.1595537,0.0914 0.2397508,0.13593 1.1464379,0.62918 2.2135277,1.27038 3.1999881,1.92187 0.023161,0.0143 0.047617,0.0269 0.070351,0.042 0.014085,0.009 0.027022,0.0183 0.04074,0.0288 0.2500462,0.16591 0.4782163,0.3341 0.7158255,0.50137 l 0.1732733,0.0183 c -3.213e-4,0.004 -0.00513,0.0447 -0.011605,0.0934 0.1788498,0.12735 0.3684203,0.2535 0.5438387,0.38129 0.1908579,0.13776 0.3842898,0.26936 0.5725751,0.41089 0.2710612,0.20543 0.5189628,0.41174 0.7763007,0.6176 4.0316126,3.197 7.4327496,7.23976 9.0629806,12.17676 0.427608,1.29527 0.7274046,2.6969 0.8860966,4.12383 l 3.939261,-1.80565 c 0.242755,-0.11105 0.728693,0.16307 0.757429,0.42846 0.111946,1.04908 -0.09994,2.17194 -0.299798,3.19356 -0.342687,1.75547 -0.887383,3.4749 -1.536301,5.15274 2.188651,1.30255 4.376444,2.60468 6.565095,3.90723 0.06776,-0.10982 0.13596,-0.21745 0.204583,-0.3251 1.560749,-2.46572 3.31064,-4.41332 4.66938,-4.25763 0.08064,0.009 0.1707,0.0308 0.261625,0.0767 0.15955,0.0803 0.319528,0.23416 0.425894,0.51939 0.400158,1.07436 -0.220453,3.51006 -1.209913,5.96807 2.068559,-3.45733 4.481095,-6.3455 6.303897,-6.13707 0.109369,0.0122 0.211018,0.0429 0.304087,0.0895 0.221311,0.11141 0.39244,0.31869 0.501809,0.61248 0.558419,1.49899 -0.498378,5.16003 -2.009374,8.60148 1.652103,-2.75049 3.580415,-5.0451 5.051097,-4.87654 0.08064,0.009 0.170696,0.0308 0.261626,0.0767 0.159553,0.0806 0.319955,0.23419 0.425891,0.5194 0.445622,1.19533 -0.373139,4.07622 -1.557746,6.7984 -0.05147,0.11837 -0.103372,0.23634 -0.156126,0.35342 1.171741,0.6974 2.34348,1.39478 3.514795,2.09173 0.48079,0.28607 0.961581,0.57258 1.442374,0.85821 0.191288,-0.12428 0.397155,-0.23244 0.626185,-0.30708 1.35102,-0.44262 2.971386,0.17714 3.756692,1.34802 1.022058,1.52344 0.310521,3.49849 -1.363456,4.14012"
       style="fill:#272b2f;fill-opacity:1;fill-rule:nonzero;stroke:none;stroke-width:0.428895"
       id="path855" /></g></svg>
