<?xml version="1.0" encoding="UTF-8" standalone="no"?>
<svg
        xmlns:inkscape="http://www.inkscape.org/namespaces/inkscape"
        xmlns:sodipodi="http://sodipodi.sourceforge.net/DTD/sodipodi-0.dtd"
        xmlns:svg="http://www.w3.org/2000/svg"
        id="Layer_1"
        data-name="Layer 1"
        viewBox="0 0 247.77201 87.128998"
        version="1.1"
        sodipodi:docname="hc_40.svg"
        width="247.772"
        height="87.128998"
        inkscape:version="1.1.2 (0a00cf5339, 2022-02-04)"
        xmlns="http://www.w3.org/2000/svg">
    <sodipodi:namedview
            id="namedview7192"
            pagecolor="#ffffff"
            bordercolor="#999999"
            borderopacity="1"
            inkscape:pageshadow="0"
            inkscape:pageopacity="0"
            inkscape:pagecheckerboard="0"
            showgrid="false"
            fit-margin-top="0"
            fit-margin-left="0"
            fit-margin-right="0"
            fit-margin-bottom="0"
            inkscape:zoom="2.8284271"
            inkscape:cx="105.18213"
            inkscape:cy="48.790368"
            inkscape:window-width="1920"
            inkscape:window-height="1020"
            inkscape:window-x="0"
            inkscape:window-y="0"
            inkscape:window-maximized="1"
            inkscape:current-layer="layer3"
            showguides="true"
            inkscape:guide-bbox="true">
        <sodipodi:guide
                position="237.231,76.587491"
                orientation="0,-1"
                id="guide65628"/>
        <sodipodi:guide
                position="237.231,10.54048"
                orientation="0,-1"
                id="guide65630"/>
        <sodipodi:guide
                position="237.231,76.587491"
                orientation="1,0"
                id="guide65632"/>
        <sodipodi:guide
                position="15.541,64.413991"
                orientation="1,0"
                id="guide65634"/>
        <sodipodi:guide
                position="5.1452996,57.558992"
                orientation="0,-1"
                id="guide105145"/>
        <sodipodi:guide
                position="5.1452992,27.278991"
                orientation="0,-1"
                id="guide105147"/>
        <sodipodi:guide
                position="22.681,76.587496"
                orientation="1,0"
                id="guide105229"/>
        <sodipodi:guide
                position="-0.00050000004,0.00094604492"
                orientation="1,0"
                id="guide113818"/>
    </sodipodi:namedview>
    <defs
            id="defs7">
        <marker
                style="overflow:visible"
                id="marker68842"
                refX="0"
                refY="0"
                orient="auto"
                inkscape:stockid="Arrow1Lstart"
                inkscape:isstock="true">
            <path
                    transform="matrix(0.8,0,0,0.8,10,0)"
                    style="fill:context-stroke;fill-rule:evenodd;stroke:context-stroke;stroke-width:1pt"
                    d="M 0,0 5,-5 -12.5,0 5,5 Z"
                    id="path68840"/>
        </marker>
        <marker
                style="overflow:visible"
                id="Arrow1Lstart"
                refX="0"
                refY="0"
                orient="auto"
                inkscape:stockid="Arrow1Lstart"
                inkscape:isstock="true">
            <path
                    transform="matrix(0.8,0,0,0.8,10,0)"
                    style="fill:context-stroke;fill-rule:evenodd;stroke:context-stroke;stroke-width:1pt"
                    d="M 0,0 5,-5 -12.5,0 5,5 Z"
                    id="path31255"/>
        </marker>
        <style
                id="style2">
            .cls-1,.cls-100,.cls-101,.cls-102,.cls-103,.cls-104,.cls-105,.cls-106,.cls-107,.cls-108,.cls-109,.cls-110,.cls-113,.cls-114,.cls-115,.cls-116,.cls-117,.cls-119,.cls-12,.cls-125,.cls-126,.cls-127,.cls-13,.cls-130,.cls-139,.cls-14,.cls-143,.cls-145,.cls-146,.cls-147,.cls-149,.cls-15,.cls-157,.cls-158,.cls-159,.cls-161,.cls-168,.cls-173,.cls-174,.cls-175,.cls-177,.cls-178,.cls-179,.cls-182,.cls-183,.cls-186,.cls-187,.cls-188,.cls-189,.cls-190,.cls-191,.cls-192,.cls-193,.cls-196,.cls-197,.cls-201,.cls-206,.cls-207,.cls-208,.cls-210,.cls-214,.cls-218,.cls-24,.cls-25,.cls-27,.cls-3,.cls-37,.cls-4,.cls-42,.cls-46,.cls-50,.cls-56,.cls-57,.cls-6,.cls-70,.cls-71,.cls-72,.cls-78,.cls-83,.cls-84,.cls-85,.cls-86,.cls-87,.cls-88,.cls-89,.cls-90,.cls-92,.cls-93,.cls-94,.cls-95,.cls-96,.cls-97,.cls-98,.cls-99
            { fill:none; }
            .cls-2,.cls-212 { fill:#fff; }
            .cls-174,.cls-183,.cls-186,.cls-189,.cls-197,.cls-3,.cls-57,.cls-86,.cls-87 { stroke:#231f20; }
            .cls-100,.cls-101,.cls-102,.cls-103,.cls-104,.cls-105,.cls-106,.cls-107,.cls-108,.cls-109,.cls-110,.cls-111,.cls-12,.cls-139,.cls-14,.cls-146,.cls-15,.cls-159,.cls-161,.cls-174,.cls-175,.cls-177,.cls-178,.cls-179,.cls-182,.cls-183,.cls-188,.cls-189,.cls-197,.cls-214,.cls-3,.cls-4,.cls-5,.cls-50,.cls-56,.cls-57,.cls-6,.cls-85,.cls-86,.cls-87,.cls-88,.cls-95,.cls-96,.cls-97,.cls-98,.cls-99
            { stroke-linecap:round; }
            .cls-100,.cls-101,.cls-102,.cls-103,.cls-104,.cls-105,.cls-106,.cls-107,.cls-108,.cls-109,.cls-110,.cls-12,.cls-139,.cls-14,.cls-146,.cls-15,.cls-157,.cls-158,.cls-159,.cls-161,.cls-174,.cls-175,.cls-177,.cls-178,.cls-179,.cls-182,.cls-183,.cls-186,.cls-187,.cls-188,.cls-189,.cls-190,.cls-197,.cls-214,.cls-3,.cls-4,.cls-5,.cls-50,.cls-56,.cls-57,.cls-6,.cls-83,.cls-84,.cls-85,.cls-86,.cls-87,.cls-88,.cls-95,.cls-96,.cls-97,.cls-98,.cls-99
            { stroke-linejoin:round; }
            .cls-111,.cls-3,.cls-4,.cls-5,.cls-96,.cls-97 { stroke-width:3px; }
            .cls-100,.cls-102,.cls-104,.cls-106,.cls-108,.cls-187,.cls-188,.cls-190,.cls-4,.cls-56,.cls-88,.cls-98 {
            stroke:#e6282b; }
            .cls-5 { fill:#d7de27;stroke:#d7de27; }
            .cls-111,.cls-126,.cls-13,.cls-145,.cls-146,.cls-147,.cls-182,.cls-50,.cls-6,.cls-7,.cls-71 {
            stroke:#414142; }
            .cls-6 { stroke-width:9px; }
            .cls-142,.cls-19,.cls-43,.cls-47,.cls-7 { fill:#bababa; }
            .cls-111,.cls-113,.cls-114,.cls-115,.cls-116,.cls-117,.cls-119,.cls-125,.cls-126,.cls-127,.cls-128,.cls-129,.cls-13,.cls-130,.cls-131,.cls-136,.cls-137,.cls-141,.cls-142,.cls-143,.cls-144,.cls-145,.cls-147,.cls-148,.cls-149,.cls-16,.cls-168,.cls-173,.cls-191,.cls-192,.cls-193,.cls-196,.cls-201,.cls-206,.cls-207,.cls-208,.cls-210,.cls-218,.cls-22,.cls-24,.cls-25,.cls-27,.cls-37,.cls-39,.cls-40,.cls-41,.cls-42,.cls-43,.cls-44,.cls-45,.cls-46,.cls-47,.cls-49,.cls-7,.cls-70,.cls-71,.cls-72,.cls-78,.cls-89,.cls-90,.cls-92,.cls-93,.cls-94
            { stroke-miterlimit:10; }
            .cls-8 { fill:#1c1c1c; }
            .cls-9 { fill:#141414; }
            .cls-10 { fill:#0d0d0d; }
            .cls-11,.cls-40 { fill:#231f20; }
            .cls-12,.cls-137,.cls-139 { stroke:#010101; }
            .cls-13,.cls-50,.cls-71 { stroke-width:4px; }
            .cls-13,.cls-50 { opacity:0.9; }
            .cls-14,.cls-84 { stroke:#37b04a; }
            .cls-106,.cls-107,.cls-125,.cls-136,.cls-14,.cls-148,.cls-15,.cls-197,.cls-83,.cls-84 { stroke-width:2px; }
            .cls-15,.cls-83 { stroke:#d5dc28; }
            .cls-136,.cls-16,.cls-18 { fill:#1a1a1a; }
            .cls-136,.cls-148,.cls-16,.cls-27 { stroke:#383739; }
            .cls-16 { stroke-width:1.63px; }
            .cls-137,.cls-17 { fill:#212121; }
            .cls-20 { fill:#0d91ce; }
            .cls-21,.cls-41 { fill:#2c292a; }
            .cls-129,.cls-22 { fill:#e9e8e9; }
            .cls-129,.cls-130,.cls-22,.cls-24 { stroke:#424242; }
            .cls-22,.cls-24 { stroke-width:0.41px; }
            .cls-23 { fill:#a7a9ac; }
            .cls-25 { stroke:#929497; }
            .cls-25,.cls-27,.cls-49 { stroke-width:0.61px; }
            .cls-26 { fill:#999; }
            .cls-28 { fill:#ef413e; }
            .cls-29,.cls-45 { fill:#d93b37; }
            .cls-30 { fill:#323031; }
            .cls-31 { fill:#aeb636; }
            .cls-32 { fill:#d5dc28; }
            .cls-33 { fill:#37b04a; }
            .cls-34 { fill:#2b9446; }
            .cls-35 { fill:#080808; }
            .cls-128,.cls-36 { fill:#e8e8e8; }
            .cls-127,.cls-128,.cls-37 { stroke:#e8e8e8; }
            .cls-37 { stroke-width:0.81px; }
            .cls-38 { fill:#808184; }
            .cls-132,.cls-39,.cls-67 { fill:#6e6f71; }
            .cls-207,.cls-39,.cls-72 { stroke:#fff; }
            .cls-39,.cls-40,.cls-41,.cls-42,.cls-43,.cls-44,.cls-45,.cls-46,.cls-47 { stroke-width:0.08px; }
            .cls-40,.cls-41,.cls-42,.cls-43 { stroke:#6e6f71; }
            .cls-44 { fill:#b42e2c; }
            .cls-44,.cls-45,.cls-46,.cls-47 { stroke:#dd5f70; }
            .cls-48 { fill:#747578; }
            .cls-141,.cls-49 { fill:#60b356;stroke:#cfd0d3; }
            .cls-51 { fill:#383739; }
            .cls-111,.cls-52 { fill:#414142; }
            .cls-53 { fill:#be2c3a; }
            .cls-54 { fill:#846c30; }
            .cls-55 { fill:#a2a63c; }
            .cls-110,.cls-56,.cls-57 { stroke-width:20px; }
            .cls-58 { fill:#323130; }
            .cls-59 { fill:#819355; }
            .cls-60 { fill:#bc2031; }
            .cls-213,.cls-61 { fill:#211e1e; }
            .cls-62 { fill:#5b5a5d; }
            .cls-63 { fill:#f2f2f2; }
            .cls-64 { fill:#079247; }
            .cls-65 { fill:#4e4e50; }
            .cls-66 { fill:#595a5c; }
            .cls-68 { fill:#636467; }
            .cls-69 { fill:#6a5f27; }
            .cls-173,.cls-70 { stroke:#5b5a5d; }
            .cls-129,.cls-130,.cls-145,.cls-72 { stroke-width:0.5px; }
            .cls-73 { fill:#99999a; }
            .cls-74 { fill:#171717; }
            .cls-75 { fill:#c6c7c9; }
            .cls-76 { fill:#f1e902; }
            .cls-77 { fill:#7cc244; }
            .cls-113,.cls-114,.cls-115,.cls-116,.cls-117,.cls-119,.cls-159,.cls-191,.cls-193,.cls-196,.cls-206,.cls-210,.cls-78,.cls-89,.cls-90,.cls-92,.cls-93,.cls-94
            { stroke:#211e1e; }
            .cls-78 { stroke-width:2.02px; }
            .cls-79 { fill:#272660; }
            .cls-80 { fill:#a4a7a9; }
            .cls-81 { fill:#7bc044; }
            .cls-82 { fill:#314b6c; }
            .cls-157,.cls-158,.cls-85 { stroke:#babcbe; }
            .cls-104,.cls-105,.cls-175,.cls-177,.cls-178,.cls-85,.cls-86 { stroke-width:5px; }
            .cls-87,.cls-88,.cls-95 { stroke-width:15px; }
            .cls-89 { stroke-width:0.18px; }
            .cls-90 { stroke-width:0.22px; }
            .cls-91 { fill:#a5a5a9; }
            .cls-92 { stroke-width:0.17px; }
            .cls-93 { stroke-width:0.13px; }
            .cls-94 { stroke-width:0.1px; }
            .cls-101,.cls-103,.cls-105,.cls-107,.cls-109,.cls-110,.cls-95,.cls-96,.cls-99 { stroke:#211e1f; }
            .cls-97 { stroke:#b9bbbd; }
            .cls-183,.cls-186,.cls-187,.cls-98,.cls-99 { stroke-width:12px; }
            .cls-100,.cls-101,.cls-189 { stroke-width:8px; }
            .cls-102,.cls-103,.cls-174 { stroke-width:6px; }
            .cls-108,.cls-109 { stroke-width:7px; }
            .cls-112 { fill:#e5e5e5; }
            .cls-113 { stroke-width:0.18px; }
            .cls-114 { stroke-width:0.16px; }
            .cls-115 { stroke-width:0.09px; }
            .cls-116 { stroke-width:0.28px; }
            .cls-117 { stroke-width:0.17px; }
            .cls-118 { fill:#2b2929; }
            .cls-119 { stroke-width:0.21px; }
            .cls-120,.cls-144 { fill:#175c94; }
            .cls-121 { fill:#a4833a; }
            .cls-122 { fill:#ed3837; }
            .cls-123 { fill:#f89b53; }
            .cls-124 { fill:#262223; }
            .cls-125,.cls-131 { stroke:#323031; }
            .cls-126,.cls-168,.cls-173,.cls-196,.cls-218 { stroke-width:0.25px; }
            .cls-131 { fill:#3c3b3c;stroke-width:1.03px; }
            .cls-132 { opacity:0.32; }
            .cls-133 { fill:#d79528; }
            .cls-134 { fill:#835d25; }
            .cls-135 { fill:#ed2a2b; }
            .cls-138,.cls-148 { fill:#121212; }
            .cls-139 { stroke-width:0.8px; }
            .cls-140 { fill:#dbd560; }
            .cls-141 { stroke-width:0.75px; }
            .cls-142,.cls-143,.cls-144 { stroke:#909295; }
            .cls-147 { stroke-width:0.63px; }
            .cls-149 { stroke:#808083; }
            .cls-150 { fill:#191919; }
            .cls-151 { fill:#333; }
            .cls-152 { fill:#f15b2d; }
            .cls-153 { fill:#aea2a0; }
            .cls-154 { fill:#b4ada7; }
            .cls-155 { fill:#948b8a; }
            .cls-156 { fill:#7b8188; }
            .cls-157 { stroke-width:1.83px; }
            .cls-158 { stroke-width:1.81px; }
            .cls-159 { stroke-width:1.33px; }
            .cls-160 { fill:#434342; }
            .cls-161 { stroke:#2d2f6c;stroke-width:21px; }
            .cls-162 { fill:#cfd2d3; }
            .cls-163 { fill:#363435; }
            .cls-164 { fill:#505052; }
            .cls-165 { fill:#955f25; }
            .cls-166 { clip-path:url(#clip-path); }
            .cls-167 { fill:#f59222; }
            .cls-168 { stroke:#ab6b29; }
            .cls-169 { fill:#9a9ba0; }
            .cls-170 { fill:#bc984b; }
            .cls-171 { fill:#857133; }
            .cls-172 { fill:#808083; }
            .cls-175 { stroke:#e8282b; }
            .cls-176 { fill:#909294; }
            .cls-177 { stroke:#754e2a; }
            .cls-178 { stroke:#2c3a8c; }
            .cls-179,.cls-192 { stroke:#434342; }
            .cls-179 { stroke-width:25px; }
            .cls-180 { fill:#e4424f; }
            .cls-181 { fill:#892129; }
            .cls-182 { stroke-width:3.94px;opacity:0.8; }
            .cls-184 { fill:#c64e5f; }
            .cls-185 { fill:#8e464f; }
            .cls-188,.cls-190 { stroke-width:11px; }
            .cls-191 { stroke-width:0.39px; }
            .cls-192 { stroke-width:0.56px; }
            .cls-193 { stroke-width:0.37px; }
            .cls-194 { fill:#271e21; }
            .cls-195 { fill:#616262; }
            .cls-198 { fill:#ddd6d3; }
            .cls-199 { fill:#dfd6c8; }
            .cls-200 { fill:#c1baae; }
            .cls-201 { stroke:#c1baae;stroke-width:0.34px; }
            .cls-202 { fill:#b2a696; }
            .cls-203 { fill:#7b776c; }
            .cls-204 { fill:#e8e2d0; }
            .cls-205 { fill:#404042; }
            .cls-206 { stroke-width:0.27px; }
            .cls-207,.cls-210 { stroke-width:0.38px; }
            .cls-208 { stroke:#7f8081;stroke-width:0.07px; }
            .cls-209 { fill:#018fb9; }
            .cls-211 { fill:#010101; }
            .cls-211,.cls-212,.cls-213 { fill-rule:evenodd; }
            .cls-214 { stroke:#2b2929;stroke-width:10px; }
            .cls-215 { fill:#929497; }
            .cls-216 { fill:#d0d2d3; }
            .cls-217 { fill:#dbdddd; }
            .cls-218 { stroke:#343637; }
            .cls-219 { fill:#b59248; }
            .cls-220 { fill:#927738; }
            .cls-221 { fill:#d2ad2a; }
            .cls-222 { fill:#7e6b2b; }
        </style>
    </defs>
    <rect
            style="fill:none;fill-opacity:0.15503;stroke:#a9a9f7;stroke-width:1.301;stroke-linecap:round;stroke-linejoin:round;stroke-miterlimit:4;stroke-dasharray:5.204,10.408;stroke-dashoffset:0;stroke-opacity:1;paint-order:fill markers stroke"
            id="rect65716"
            width="246.47131"
            height="85.828308"
            x="0.65034503"
            y="0.65034503"/>
    <path
            id="polyline2575"
            class="cls-87"
            style="fill:none;stroke:#231f20;stroke-width:15px;stroke-linecap:butt;stroke-linejoin:round"
            d="M 22.681,29.730007 H -5.0000003e-4"
            sodipodi:nodetypes="cc"/>
    <rect
            style="fill:#1a1a1a;fill-opacity:1;stroke:none;stroke-width:1;stroke-linecap:round;stroke-linejoin:bevel;stroke-miterlimit:4;stroke-dasharray:none;stroke-dashoffset:0;stroke-opacity:1;paint-order:stroke fill markers"
            id="rect35911"
            width="111.92535"
            height="66.047012"
            x="22.681"
            y="10.541502"
            rx="0"/>
    <path
            id="polyline2577"
            class="cls-88"
            style="fill:none;stroke:#e6282b;stroke-width:15px;stroke-linecap:butt;stroke-linejoin:round"
            d="M -5.0000003e-4,59.850007 22.681,59.850007"
            sodipodi:nodetypes="cc"/>
    <rect
            style="mix-blend-mode:normal;fill:#212121;fill-opacity:1;stroke:none;stroke-width:1;stroke-linecap:round;stroke-linejoin:bevel;stroke-miterlimit:4;stroke-dasharray:none;stroke-dashoffset:0;stroke-opacity:1;paint-order:stroke fill markers"
            id="rect30883"
            width="116.41"
            height="66.047012"
            x="120.821"
            y="10.541502"
            rx="0"/>
    <path
            class="cls-19"
            d="m 124.881,21.475007 h 98.83 c 3.75,0.87 6,3 6.58,6.53 l 0.07,11.47 a 7.43,7.43 0 0 1 -6.88,7.13 h -37.55 c -2.32,0.24 -3.3,1.05 -3.31,2.29 v 2.28 c -0.62,3.62 -2.63,5.81 -6.08,6.52 l -51.66,0.06 z"
            id="path3895"/>
    <text
            xml:space="preserve"
            style="font-size:12.2667px;line-height:1.25;font-family:'Courier New';-inkscape-font-specification:'Courier New';letter-spacing:0px;word-spacing:0px;writing-mode:lr-tb;fill:#747578;fill-opacity:1"
            x="38.80949"
            y="-129.66685"
            id="text2941"
            transform="rotate(90)"><tspan
       sodipodi:role="line"
       id="tspan2939"
       x="38.80949"
       y="-129.66685"
       style="font-style:normal;font-variant:normal;font-weight:900;font-stretch:normal;font-size:12.2667px;font-family:Roboto;-inkscape-font-specification:'Roboto Heavy';fill:#747578;fill-opacity:1"
       rotate="0 0 0">##</tspan></text>
    <circle
            class="cls-122"
            cx="132.75101"
            cy="31.525007"
            r="3.05"
            id="circle3905"/>
    <rect
            class="cls-29"
            x="-113.87103"
            y="-73.434998"
            width="87.18"
            height="30.299999"
            transform="scale(-1)"
            id="rect4283"/>
    <polygon
            class="cls-28"
            points="1700.52,278.15 1700.52,275.57 1635.92,275.57 1635.92,278.72 1691.65,278.72 1691.65,305.87 1700.52,305.87 1700.52,282.15 1693.94,282.15 1693.94,278.43 "
            id="polygon4285"
            transform="translate(-1586.639,-232.44499)"/>
    <path
            class="cls-123"
            d="m 15.551,65.995007 c 0.34,4.4 3.34,7.2 9.14,8.29 h 24 v -1.14 h 25.15 l 5.14,-7.15 h 23.44 v -14.29 h -23.44 l -8.57,-4.86 h -21.72 v -1.43 h -24 c -5.59,1.24 -8.71,3.73 -9.15,7.58 z m 30,-10.86 v -1.43 h 4.29 v 1.43 q 5.73,4.71 0,9.43 v 1.43 h -4.29 v -1.44 c -4.27,-3.07 -4.1,-6.21 0.01,-9.42 z"
            id="path4287"/>
    <rect
            class="cls-11"
            x="-113.87103"
            y="-43.145"
            width="87.18"
            height="30.299999"
            transform="scale(-1)"
            id="rect4289"/>
    <polygon
            class="cls-30"
            points="1700.52,247.87 1700.52,245.3 1635.92,245.3 1635.92,248.44 1691.65,248.44 1691.65,275.6 1700.52,275.6 1700.52,251.87 1693.94,251.87 1693.94,248.16 "
            id="polygon4291"
            transform="translate(-1586.639,-232.44499)"/>
    <path
            class="cls-123"
            d="m 15.551,35.715007 c 0.34,4.41 3.34,7.2 9.14,8.29 h 24 v -1.14 h 25.15 l 5.14,-7.15 h 23.44 v -14.29 h -23.44 l -8.57,-4.86 h -21.72 v -1.43 h -24 c -5.59,1.24 -8.71,3.73 -9.15,7.58 z m 30,-10.86 v -1.43 h 4.29 v 1.43 q 5.73,4.72 0,9.43 v 1.43 h -4.29 v -1.43 c -4.27,-3.08 -4.1,-6.22 0.01,-9.43 z"
            id="path4293"/>
    <g
            inkscape:groupmode="layer"
            id="layer1"
            inkscape:label="Primary"
            transform="translate(15.541,-140.97499)"/>
    <g
            inkscape:groupmode="layer"
            id="layer3"
            inkscape:label="Breaker"
            style="display:inline"
            transform="translate(15.541,-140.97499)">
        <g
                id="g33009"
                style="">
            <rect
                    class="cls-18"
                    x="137.35004"
                    y="169.01999"
                    width="68.919998"
                    height="12.43"
                    rx="2.0799999"
                    id="rect3897"/>
            <rect
                    class="cls-30"
                    x="138.50006"
                    y="169.88"
                    width="66.889999"
                    height="10.29"
                    rx="0.85000002"
                    id="rect3899"/>
            <polygon
                    class="cls-121"
                    points="1741.78,261.04 1741.78,267.33 1743.21,269.33 1768.65,269.33 1769.8,267.9 1769.8,261.04 1768.08,261.04 1768.08,267.62 1767.79,267.9 1743.78,267.9 1743.5,267.62 1743.5,261.04 "
                    id="polygon3901"
                    transform="translate(-1602.18,-91.47)"/>
            <polygon
                    class="cls-121"
                    points="1778.69,261.04 1778.69,267.33 1780.12,269.33 1805.56,269.33 1806.7,267.9 1806.7,261.04 1804.98,261.04 1804.98,267.62 1804.7,267.9 1780.69,267.9 1780.4,267.62 1780.4,261.04 "
                    id="polygon3903"
                    transform="translate(-1602.18,-91.47)"/>
            <rect
                    class="cls-133"
                    x="133.45001"
                    y="154.84"
                    width="84.18"
                    height="40.389999"
                    rx="6.8299999"
                    id="rect4857"/>
            <path
                    class="cls-134"
                    d="m 157.02,180.21 h -1.59 v -7.42 l -2.26,0.76 v -1.33 l 3.65,-1.33 h 0.2 z"
                    id="path4859"/>
            <path
                    class="cls-134"
                    d="m 166.47,180.21 h -6.26 v -1.09 l 3,-3.29 a 9.78,9.78 0 0 0 0.78,-0.95 3.36,3.36 0 0 0 0.4,-0.72 2.09,2.09 0 0 0 0.11,-0.63 1.61,1.61 0 0 0 -0.35,-1.06 1.29,1.29 0 0 0 -1,-0.41 1.61,1.61 0 0 0 -0.86,0.22 1.37,1.37 0 0 0 -0.52,0.6 2.08,2.08 0 0 0 -0.18,0.89 h -1.58 a 3.14,3.14 0 0 1 0.37,-1.5 2.8,2.8 0 0 1 1.08,-1.08 3.47,3.47 0 0 1 1.7,-0.4 3.08,3.08 0 0 1 2.17,0.7 2.41,2.41 0 0 1 0.77,1.87 2.79,2.79 0 0 1 -0.25,1.16 5.65,5.65 0 0 1 -0.68,1.13 14.18,14.18 0 0 1 -1,1.16 l -2,2.13 h 4.26 z"
                    id="path4861"/>
            <path
                    class="cls-134"
                    d="m 171.27,178.46 0.33,1.75 h -1.23 l -3.31,-9.29 h 1.81 z m 2.23,-7.54 h 1.82 l -3.32,9.29 h -1.18 l 0.31,-1.75 z"
                    id="path4863"/>
            <path
                    class="cls-134"
                    d="m 182.53,178.14 h -6.71 v -1 l 4,-6.25 h 1.27 l -1.35,2.37 -2.27,3.58 h 5.13 z m -1.15,2.07 h -1.56 v -9.29 h 1.59 z"
                    id="path4865"/>
            <path
                    class="cls-134"
                    d="m 189.62,176.32 a 6,6 0 0 1 -0.38,2.32 2.61,2.61 0 0 1 -1.06,1.29 3.07,3.07 0 0 1 -1.6,0.41 3.13,3.13 0 0 1 -1.61,-0.41 2.62,2.62 0 0 1 -1.07,-1.29 5.81,5.81 0 0 1 -0.39,-2.32 v -1.54 a 5.94,5.94 0 0 1 0.38,-2.32 2.58,2.58 0 0 1 1.07,-1.27 3.12,3.12 0 0 1 1.6,-0.4 3.08,3.08 0 0 1 1.61,0.4 2.53,2.53 0 0 1 1.07,1.27 5.94,5.94 0 0 1 0.38,2.32 z m -1.58,-1.78 a 5.14,5.14 0 0 0 -0.17,-1.45 1.45,1.45 0 0 0 -0.5,-0.78 1.34,1.34 0 0 0 -0.81,-0.24 1.3,1.3 0 0 0 -0.79,0.24 1.45,1.45 0 0 0 -0.5,0.78 4.79,4.79 0 0 0 -0.17,1.45 v 2 a 4.94,4.94 0 0 0 0.17,1.47 1.62,1.62 0 0 0 0.51,0.81 1.34,1.34 0 0 0 0.8,0.25 1.31,1.31 0 0 0 0.8,-0.25 1.54,1.54 0 0 0 0.49,-0.81 5.29,5.29 0 0 0 0.17,-1.47 z"
                    id="path4867"/>
            <path
                    class="cls-134"
                    d="m 192.11,180.21 h -1.72 l 3.49,-9.29 h 1.1 l -0.11,1.32 z m 4.94,-2.12 h -5.06 v -1.33 h 5.06 z m -2.66,-5.85 -0.12,-1.32 h 1.11 l 3.51,9.29 h -1.73 z"
                    id="path4869"/>
        </g>
    </g>
    <text
            xml:space="preserve"
            style="font-size:21.3333px;line-height:1.25;font-family:Roboto;-inkscape-font-specification:Roboto;letter-spacing:0px;word-spacing:0px;writing-mode:lr-tb;fill:#000000"
            x="83.220177"
            y="-6.4895763"
            id="text85380"><tspan
       sodipodi:role="line"
       id="tspan85378"
       x="83.220177"
       y="-6.4895763"
       style="font-style:normal;font-variant:normal;font-weight:300;font-stretch:normal;font-size:21.3333px;font-family:Roboto;-inkscape-font-specification:'Roboto Light';fill:#000000">PDH High Current</tspan></text>
</svg>
